LinguisticsPro-Italic.ufo
<glyph name="dollar" format="1">
  <advance width="530"/>
  <unicode hex="0024"/>
  <outline>
    <contour>
      <point x="66" y="120" type="curve" smooth="yes"/>
      <point x="67" y="150"/>
      <point x="90" y="170"/>
      <point x="113" y="170" type="curve" smooth="yes"/>
      <point x="129" y="170"/>
      <point x="136" y="161"/>
      <point x="141" y="146" type="curve" smooth="yes"/>
      <point x="168" y="65"/>
      <point x="212" y="42"/>
      <point x="250" y="37" type="curve"/>
      <point x="314" y="316" type="line"/>
      <point x="208" y="360"/>
      <point x="171" y="414"/>
      <point x="171" y="482" type="curve" smooth="yes"/>
      <point x="171" y="598"/>
      <point x="267" y="669"/>
      <point x="396" y="668" type="curve"/>
      <point x="414" y="743" type="line"/>
      <point x="454" y="743" type="line"/>
      <point x="437" y="666" type="line"/>
      <point x="516" y="659"/>
      <point x="587" y="618"/>
      <point x="586" y="560" type="curve" smooth="yes"/>
      <point x="585" y="532"/>
      <point x="559" y="515"/>
      <point x="538" y="515" type="curve" smooth="yes"/>
      <point x="521" y="515"/>
      <point x="514" y="525"/>
      <point x="510" y="541" type="curve" smooth="yes"/>
      <point x="496" y="596"/>
      <point x="467" y="625"/>
      <point x="429" y="631" type="curve"/>
      <point x="372" y="386" type="line"/>
      <point x="455" y="348"/>
      <point x="526" y="299"/>
      <point x="526" y="195" type="curve" smooth="yes"/>
      <point x="526" y="79"/>
      <point x="430" y="-2"/>
      <point x="283" y="0" type="curve"/>
      <point x="260" y="-109" type="line"/>
      <point x="218" y="-109" type="line"/>
      <point x="243" y="2" type="line"/>
      <point x="136" y="9"/>
      <point x="65" y="64"/>
    </contour>
    <contour>
      <point x="251" y="512" type="curve" smooth="yes"/>
      <point x="251" y="454"/>
      <point x="284" y="428"/>
      <point x="334" y="403" type="curve"/>
      <point x="388" y="633" type="line"/>
      <point x="305" y="633"/>
      <point x="251" y="586"/>
    </contour>
    <contour>
      <point x="292" y="35" type="line"/>
      <point x="380" y="32"/>
      <point x="440" y="86"/>
      <point x="440" y="169" type="curve" smooth="yes"/>
      <point x="440" y="229"/>
      <point x="410" y="270"/>
      <point x="351" y="298" type="curve"/>
    </contour>
  </outline>
</glyph>
<glyph name="quotesingle" format="1">
  <advance width="216"/>
  <unicode hex="0027"/>
  <outline>
    <contour>
      <point x="196" y="469" type="line"/>
      <point x="208" y="690" type="line" smooth="yes"/>
      <point x="211" y="725"/>
      <point x="225" y="742"/>
      <point x="263" y="742" type="curve" smooth="yes"/>
      <point x="305" y="742"/>
      <point x="317" y="725"/>
      <point x="304" y="690" type="curve" smooth="yes"/>
      <point x="224" y="469" type="line"/>
    </contour>
  </outline>
</glyph>
<glyph name="plus" format="1">
  <advance width="570"/>
  <unicode hex="002B"/>
  <outline>
    <contour>
      <point x="93" y="221" type="line"/>
      <point x="93" y="279" type="line"/>
      <point x="301" y="279" type="line"/>
      <point x="301" y="490" type="line"/>
      <point x="369" y="490" type="line"/>
      <point x="369" y="279" type="line"/>
      <point x="577" y="279" type="line"/>
      <point x="577" y="221" type="line"/>
      <point x="369" y="221" type="line"/>
      <point x="369" y="0" type="line"/>
      <point x="301" y="0" type="line"/>
      <point x="301" y="221" type="line"/>
    </contour>
  </outline>
</glyph>
<glyph name="period" format="1">
  <advance width="265"/>
  <unicode hex="002E"/>
  <outline>
    <contour>
      <point x="82" y="45" type="curve" smooth="yes"/>
      <point x="82" y="86"/>
      <point x="109" y="113"/>
      <point x="147" y="113" type="curve" smooth="yes"/>
      <point x="183" y="113"/>
      <point x="204" y="87"/>
      <point x="204" y="57" type="curve" smooth="yes"/>
      <point x="204" y="15"/>
      <point x="178" y="-12"/>
      <point x="139" y="-12" type="curve" smooth="yes"/>
      <point x="103" y="-12"/>
      <point x="82" y="13"/>
    </contour>
  </outline>
</glyph>
<glyph name="zero" format="1">
  <advance width="530"/>
  <unicode hex="0030"/>
  <outline>
    <contour>
      <point x="95" y="204" type="curve" smooth="yes"/>
      <point x="95" y="308"/>
      <point x="122" y="426"/>
      <point x="168" y="512" type="curve" smooth="yes"/>
      <point x="222" y="612"/>
      <point x="294" y="680"/>
      <point x="397" y="680" type="curve" smooth="yes"/>
      <point x="557" y="680"/>
      <point x="576" y="547"/>
      <point x="576" y="461" type="curve" smooth="yes"/>
      <point x="576" y="389"/>
      <point x="557" y="262"/>
      <point x="507" y="161" type="curve" smooth="yes"/>
      <point x="455" y="52"/>
      <point x="386" y="-12"/>
      <point x="279" y="-12" type="curve" smooth="yes"/>
      <point x="138" y="-12"/>
      <point x="95" y="96"/>
    </contour>
    <contour>
      <point x="185" y="162" type="curve" smooth="yes"/>
      <point x="185" y="61"/>
      <point x="224" y="23"/>
      <point x="279" y="23" type="curve" smooth="yes"/>
      <point x="363" y="23"/>
      <point x="408" y="127"/>
      <point x="441" y="240" type="curve" smooth="yes"/>
      <point x="474" y="350"/>
      <point x="486" y="472"/>
      <point x="486" y="506" type="curve" smooth="yes"/>
      <point x="486" y="586"/>
      <point x="468" y="645"/>
      <point x="398" y="645" type="curve" smooth="yes"/>
      <point x="327" y="645"/>
      <point x="272" y="556"/>
      <point x="236" y="444" type="curve" smooth="yes"/>
      <point x="200" y="335"/>
      <point x="185" y="222"/>
    </contour>
  </outline>
</glyph>
<glyph name="two" format="1">
  <advance width="530"/>
  <unicode hex="0032"/>
  <outline>
    <contour>
      <point x="33" y="10" type="line"/>
      <point x="60" y="88"/>
      <point x="114" y="160"/>
      <point x="266" y="264" type="curve" smooth="yes"/>
      <point x="406" y="359"/>
      <point x="473" y="433"/>
      <point x="473" y="530" type="curve" smooth="yes"/>
      <point x="473" y="581"/>
      <point x="461" y="645"/>
      <point x="379" y="645" type="curve" smooth="yes"/>
      <point x="326" y="645"/>
      <point x="278" y="605"/>
      <point x="245" y="512" type="curve" smooth="yes"/>
      <point x="241" y="499"/>
      <point x="235" y="487"/>
      <point x="216" y="487" type="curve" smooth="yes"/>
      <point x="194" y="487"/>
      <point x="167" y="506"/>
      <point x="167" y="535" type="curve" smooth="yes"/>
      <point x="167" y="592"/>
      <point x="250" y="680"/>
      <point x="381" y="680" type="curve" smooth="yes"/>
      <point x="490" y="680"/>
      <point x="573" y="627"/>
      <point x="573" y="516" type="curve" smooth="yes"/>
      <point x="573" y="389"/>
      <point x="467" y="333"/>
      <point x="345" y="262" type="curve" smooth="yes"/>
      <point x="231" y="196"/>
      <point x="166" y="137"/>
      <point x="135" y="74" type="curve"/>
      <point x="385" y="74" type="line" smooth="yes"/>
      <point x="429" y="74"/>
      <point x="443" y="82"/>
      <point x="477" y="131" type="curve"/>
      <point x="507" y="125" type="line"/>
      <point x="453" y="0" type="line"/>
      <point x="44" y="0" type="line"/>
    </contour>
  </outline>
</glyph>
<glyph name="five" format="1">
  <advance width="553"/>
  <unicode hex="0035"/>
  <outline>
    <contour>
      <point x="68" y="108" type="curve" smooth="yes"/>
      <point x="68" y="140"/>
      <point x="95" y="164"/>
      <point x="121" y="164" type="curve" smooth="yes"/>
      <point x="135" y="164"/>
      <point x="144" y="153"/>
      <point x="149" y="135" type="curve" smooth="yes"/>
      <point x="171" y="52"/>
      <point x="218" y="23"/>
      <point x="280" y="23" type="curve" smooth="yes"/>
      <point x="362" y="23"/>
      <point x="440" y="106"/>
      <point x="440" y="230" type="curve" smooth="yes"/>
      <point x="440" y="323"/>
      <point x="395" y="381"/>
      <point x="321" y="381" type="curve" smooth="yes"/>
      <point x="268" y="381"/>
      <point x="224" y="357"/>
      <point x="189" y="315" type="curve"/>
      <point x="165" y="327" type="line"/>
      <point x="238" y="660" type="line"/>
      <point x="248" y="668" type="line"/>
      <point x="589" y="668" type="line"/>
      <point x="594" y="657" type="line"/>
      <point x="552" y="594" type="line"/>
      <point x="304" y="594" type="line" smooth="yes"/>
      <point x="287" y="594"/>
      <point x="278" y="592"/>
      <point x="272" y="570" type="curve" smooth="yes"/>
      <point x="218" y="383" type="line"/>
      <point x="220" y="381" type="line"/>
      <point x="255" y="409"/>
      <point x="309" y="427"/>
      <point x="354" y="427" type="curve" smooth="yes"/>
      <point x="471" y="427"/>
      <point x="544" y="358"/>
      <point x="544" y="242" type="curve" smooth="yes"/>
      <point x="544" y="98"/>
      <point x="426" y="-12"/>
      <point x="273" y="-12" type="curve" smooth="yes"/>
      <point x="135" y="-12"/>
      <point x="68" y="56"/>
    </contour>
  </outline>
</glyph>
<glyph name="six" format="1">
  <advance width="530"/>
  <unicode hex="0036"/>
  <outline>
    <contour>
      <point x="91" y="207" type="curve" smooth="yes"/>
      <point x="91" y="349"/>
      <point x="143" y="503"/>
      <point x="213" y="585" type="curve" smooth="yes"/>
      <point x="268" y="649"/>
      <point x="339" y="680"/>
      <point x="413" y="680" type="curve" smooth="yes"/>
      <point x="546" y="680"/>
      <point x="586" y="610"/>
      <point x="586" y="572" type="curve" smooth="yes"/>
      <point x="586" y="544"/>
      <point x="555" y="526"/>
      <point x="533" y="526" type="curve" smooth="yes"/>
      <point x="514" y="526"/>
      <point x="507" y="537"/>
      <point x="504" y="554" type="curve" smooth="yes"/>
      <point x="492" y="613"/>
      <point x="460" y="645"/>
      <point x="410" y="645" type="curve" smooth="yes"/>
      <point x="315" y="645"/>
      <point x="239" y="532"/>
      <point x="199" y="338" type="curve"/>
      <point x="201" y="338" type="line"/>
      <point x="237" y="377"/>
      <point x="297" y="420"/>
      <point x="368" y="420" type="curve" smooth="yes"/>
      <point x="488" y="420"/>
      <point x="545" y="343"/>
      <point x="545" y="239" type="curve" smooth="yes"/>
      <point x="545" y="123"/>
      <point x="464" y="-12"/>
      <point x="297" y="-12" type="curve" smooth="yes"/>
      <point x="141" y="-12"/>
      <point x="91" y="91"/>
    </contour>
    <contour>
      <point x="184" y="168" type="curve" smooth="yes"/>
      <point x="184" y="112"/>
      <point x="199" y="23"/>
      <point x="296" y="23" type="curve" smooth="yes"/>
      <point x="373" y="23"/>
      <point x="448" y="103"/>
      <point x="448" y="247" type="curve" smooth="yes"/>
      <point x="448" y="321"/>
      <point x="406" y="371"/>
      <point x="338" y="371" type="curve" smooth="yes"/>
      <point x="243" y="371"/>
      <point x="184" y="296"/>
    </contour>
  </outline>
</glyph>
<glyph name="seven" format="1">
  <advance width="530"/>
  <unicode hex="0037"/>
  <outline>
    <contour>
      <point x="165" y="530" type="line"/>
      <point x="207" y="668" type="line"/>
      <point x="627" y="668" type="line"/>
      <point x="635" y="657" type="line"/>
      <point x="582" y="531"/>
      <point x="515" y="468"/>
      <point x="423" y="355" type="curve" smooth="yes"/>
      <point x="350" y="267"/>
      <point x="305" y="179"/>
      <point x="280" y="29" type="curve" smooth="yes"/>
      <point x="275" y="-3"/>
      <point x="262" y="-12"/>
      <point x="226" y="-12" type="curve" smooth="yes"/>
      <point x="194" y="-12"/>
      <point x="178" y="2"/>
      <point x="178" y="25" type="curve" smooth="yes"/>
      <point x="178" y="98"/>
      <point x="224" y="192"/>
      <point x="392" y="383" type="curve" smooth="yes"/>
      <point x="477" y="479"/>
      <point x="521" y="547"/>
      <point x="538" y="594" type="curve"/>
      <point x="297" y="594" type="line" smooth="yes"/>
      <point x="245" y="594"/>
      <point x="226" y="580"/>
      <point x="211" y="556" type="curve" smooth="yes"/>
      <point x="195" y="530" type="line"/>
    </contour>
  </outline>
</glyph>
<glyph name="eight" format="1">
  <advance width="530"/>
  <unicode hex="0038"/>
  <outline>
    <contour>
      <point x="81" y="159" type="curve" smooth="yes"/>
      <point x="81" y="281"/>
      <point x="166" y="359"/>
      <point x="260" y="370" type="curve"/>
      <point x="260" y="374" type="line"/>
      <point x="215" y="393"/>
      <point x="178" y="434"/>
      <point x="178" y="500" type="curve" smooth="yes"/>
      <point x="178" y="621"/>
      <point x="281" y="680"/>
      <point x="387" y="680" type="curve" smooth="yes"/>
      <point x="526" y="680"/>
      <point x="570" y="598"/>
      <point x="570" y="530" type="curve" smooth="yes"/>
      <point x="570" y="432"/>
      <point x="501" y="382"/>
      <point x="431" y="368" type="curve"/>
      <point x="431" y="365" type="line"/>
      <point x="474" y="350"/>
      <point x="536" y="299"/>
      <point x="536" y="207" type="curve" smooth="yes"/>
      <point x="536" y="84"/>
      <point x="456" y="-12"/>
      <point x="292" y="-12" type="curve" smooth="yes"/>
      <point x="143" y="-12"/>
      <point x="81" y="72"/>
    </contour>
    <contour>
      <point x="177" y="151" type="curve" smooth="yes"/>
      <point x="177" y="71"/>
      <point x="221" y="23"/>
      <point x="296" y="23" type="curve" smooth="yes"/>
      <point x="389" y="23"/>
      <point x="440" y="115"/>
      <point x="440" y="221" type="curve" smooth="yes"/>
      <point x="440" y="297"/>
      <point x="397" y="343"/>
      <point x="328" y="343" type="curve" smooth="yes"/>
      <point x="238" y="343"/>
      <point x="177" y="254"/>
    </contour>
    <contour>
      <point x="267" y="477" type="curve" smooth="yes"/>
      <point x="267" y="427"/>
      <point x="291" y="381"/>
      <point x="359" y="381" type="curve" smooth="yes"/>
      <point x="426" y="381"/>
      <point x="481" y="455"/>
      <point x="481" y="554" type="curve" smooth="yes"/>
      <point x="481" y="602"/>
      <point x="453" y="645"/>
      <point x="391" y="645" type="curve" smooth="yes"/>
      <point x="303" y="645"/>
      <point x="267" y="545"/>
    </contour>
  </outline>
</glyph>
<glyph name="colon" format="1">
  <advance width="265"/>
  <unicode hex="003A"/>
  <outline>
    <contour>
      <point x="161" y="422" type="curve" smooth="yes"/>
      <point x="161" y="463"/>
      <point x="188" y="490"/>
      <point x="226" y="490" type="curve" smooth="yes"/>
      <point x="262" y="490"/>
      <point x="283" y="464"/>
      <point x="283" y="434" type="curve" smooth="yes"/>
      <point x="283" y="392"/>
      <point x="257" y="365"/>
      <point x="218" y="365" type="curve" smooth="yes"/>
      <point x="182" y="365"/>
      <point x="161" y="390"/>
    </contour>
    <contour>
      <point x="82" y="45" type="curve" smooth="yes"/>
      <point x="82" y="86"/>
      <point x="109" y="113"/>
      <point x="147" y="113" type="curve" smooth="yes"/>
      <point x="183" y="113"/>
      <point x="204" y="87"/>
      <point x="204" y="57" type="curve" smooth="yes"/>
      <point x="204" y="15"/>
      <point x="178" y="-12"/>
      <point x="139" y="-12" type="curve" smooth="yes"/>
      <point x="103" y="-12"/>
      <point x="82" y="13"/>
    </contour>
  </outline>
</glyph>
<glyph name="semicolon" format="1">
  <advance width="265"/>
  <unicode hex="003B"/>
  <outline>
    <contour>
      <point x="161" y="422" type="curve" smooth="yes"/>
      <point x="161" y="463"/>
      <point x="188" y="490"/>
      <point x="226" y="490" type="curve" smooth="yes"/>
      <point x="262" y="490"/>
      <point x="283" y="464"/>
      <point x="283" y="434" type="curve" smooth="yes"/>
      <point x="283" y="392"/>
      <point x="257" y="365"/>
      <point x="218" y="365" type="curve" smooth="yes"/>
      <point x="182" y="365"/>
      <point x="161" y="390"/>
    </contour>
    <contour>
      <point x="46" y="-116" type="line"/>
      <point x="82" y="-81"/>
      <point x="113" y="-41"/>
      <point x="117" y="-1" type="curve" smooth="yes"/>
      <point x="119" y="20"/>
      <point x="113" y="34"/>
      <point x="106" y="49" type="curve" smooth="yes"/>
      <point x="101" y="61"/>
      <point x="94" y="74"/>
      <point x="94" y="89" type="curve" smooth="yes"/>
      <point x="94" y="117"/>
      <point x="118" y="142"/>
      <point x="150" y="142" type="curve" smooth="yes"/>
      <point x="187" y="144"/>
      <point x="208" y="106"/>
      <point x="208" y="74" type="curve" smooth="yes"/>
      <point x="208" y="-16"/>
      <point x="125" y="-82"/>
      <point x="63" y="-134" type="curve"/>
    </contour>
  </outline>
</glyph>
<glyph name="less" format="1">
  <advance width="570"/>
  <unicode hex="003C"/>
  <outline>
    <contour>
      <point x="86" y="207" type="line"/>
      <point x="86" y="288" type="line"/>
      <point x="564" y="497" type="line"/>
      <point x="564" y="428" type="line"/>
      <point x="145" y="248" type="line"/>
      <point x="564" y="68" type="line"/>
      <point x="564" y="1" type="line"/>
    </contour>
  </outline>
</glyph>
<glyph name="equal" format="1">
  <advance width="570"/>
  <unicode hex="003D"/>
  <outline>
    <contour>
      <point x="93" y="111" type="line"/>
      <point x="93" y="169" type="line"/>
      <point x="577" y="169" type="line"/>
      <point x="577" y="111" type="line"/>
    </contour>
    <contour>
      <point x="93" y="331" type="line"/>
      <point x="93" y="389" type="line"/>
      <point x="577" y="389" type="line"/>
      <point x="577" y="331" type="line"/>
    </contour>
  </outline>
</glyph>
<glyph name="question" format="1">
  <advance width="425"/>
  <unicode hex="003F"/>
  <outline>
    <contour>
      <point x="160" y="285" type="curve" smooth="yes"/>
      <point x="160" y="332"/>
      <point x="195" y="368"/>
      <point x="264" y="408" type="curve" smooth="yes"/>
      <point x="359" y="464"/>
      <point x="398" y="536"/>
      <point x="398" y="599" type="curve" smooth="yes"/>
      <point x="398" y="640"/>
      <point x="380" y="672"/>
      <point x="339" y="672" type="curve" smooth="yes"/>
      <point x="290" y="672"/>
      <point x="261" y="624"/>
      <point x="239" y="568" type="curve" smooth="yes"/>
      <point x="235" y="557"/>
      <point x="225" y="549"/>
      <point x="208" y="549" type="curve" smooth="yes"/>
      <point x="192" y="549"/>
      <point x="164" y="564"/>
      <point x="164" y="593" type="curve" smooth="yes"/>
      <point x="164" y="634"/>
      <point x="222" y="707"/>
      <point x="334" y="707" type="curve" smooth="yes"/>
      <point x="431" y="707"/>
      <point x="491" y="655"/>
      <point x="491" y="580" type="curve" smooth="yes"/>
      <point x="491" y="495"/>
      <point x="440" y="460"/>
      <point x="363" y="421" type="curve" smooth="yes"/>
      <point x="298" y="388"/>
      <point x="249" y="354"/>
      <point x="249" y="302" type="curve" smooth="yes"/>
      <point x="249" y="259"/>
      <point x="280" y="244"/>
      <point x="313" y="244" type="curve" smooth="yes"/>
      <point x="331" y="244"/>
      <point x="344" y="246"/>
      <point x="356" y="247" type="curve"/>
      <point x="362" y="230" type="line"/>
      <point x="340" y="214"/>
      <point x="298" y="199"/>
      <point x="264" y="199" type="curve" smooth="yes"/>
      <point x="214" y="199"/>
      <point x="160" y="223"/>
    </contour>
    <contour>
      <point x="150" y="45" type="curve" smooth="yes"/>
      <point x="150" y="86"/>
      <point x="177" y="113"/>
      <point x="215" y="113" type="curve" smooth="yes"/>
      <point x="251" y="113"/>
      <point x="272" y="87"/>
      <point x="272" y="57" type="curve" smooth="yes"/>
      <point x="272" y="15"/>
      <point x="246" y="-12"/>
      <point x="207" y="-12" type="curve" smooth="yes"/>
      <point x="171" y="-12"/>
      <point x="150" y="13"/>
    </contour>
  </outline>
</glyph>
<glyph name="N" format="1">
  <advance width="763"/>
  <unicode hex="004E"/>
  <outline>
    <contour>
      <point x="31" y="0" type="line"/>
      <point x="36" y="29" type="line"/>
      <point x="67" y="32" type="line" smooth="yes"/>
      <point x="97" y="35"/>
      <point x="114" y="43"/>
      <point x="126" y="75" type="curve" smooth="yes"/>
      <point x="138" y="108"/>
      <point x="149" y="146"/>
      <point x="161" y="199" type="curve" smooth="yes"/>
      <point x="255" y="609" type="line" smooth="yes"/>
      <point x="263" y="642"/>
      <point x="256" y="655"/>
      <point x="233" y="657" type="curve" smooth="yes"/>
      <point x="174" y="663" type="line"/>
      <point x="181" y="692" type="line"/>
      <point x="371" y="692" type="line"/>
      <point x="455" y="505"/>
      <point x="541" y="318"/>
      <point x="627" y="131" type="curve"/>
      <point x="631" y="131" type="line"/>
      <point x="713" y="493" type="line" smooth="yes"/>
      <point x="725" y="546"/>
      <point x="731" y="584"/>
      <point x="734" y="617" type="curve" smooth="yes"/>
      <point x="737" y="650"/>
      <point x="720" y="655"/>
      <point x="688" y="659" type="curve" smooth="yes"/>
      <point x="649" y="663" type="line"/>
      <point x="654" y="692" type="line"/>
      <point x="890" y="692" type="line"/>
      <point x="885" y="663" type="line"/>
      <point x="854" y="660" type="line" smooth="yes"/>
      <point x="824" y="657"/>
      <point x="807" y="649"/>
      <point x="795" y="617" type="curve" smooth="yes"/>
      <point x="783" y="584"/>
      <point x="772" y="546"/>
      <point x="760" y="493" type="curve" smooth="yes"/>
      <point x="648" y="0" type="line"/>
      <point x="583" y="0" type="line"/>
      <point x="491" y="203"/>
      <point x="399" y="406"/>
      <point x="305" y="609" type="curve"/>
      <point x="302" y="609" type="line"/>
      <point x="208" y="199" type="line" smooth="yes"/>
      <point x="196" y="146"/>
      <point x="190" y="108"/>
      <point x="187" y="75" type="curve" smooth="yes"/>
      <point x="184" y="44"/>
      <point x="201" y="35"/>
      <point x="233" y="32" type="curve" smooth="yes"/>
      <point x="272" y="29" type="line"/>
      <point x="267" y="0" type="line"/>
    </contour>
  </outline>
</glyph>
<glyph name="bracketleft" format="1">
  <advance width="330"/>
  <unicode hex="005B"/>
  <outline>
    <contour>
      <point x="104" y="-128" type="line"/>
      <point x="290" y="692" type="line"/>
      <point x="449" y="692" type="line"/>
      <point x="444" y="665" type="line"/>
      <point x="353" y="660"/>
      <point x="345" y="654"/>
      <point x="335" y="610" type="curve" smooth="yes"/>
      <point x="185" y="-46" type="line" smooth="yes"/>
      <point x="176" y="-90"/>
      <point x="180" y="-96"/>
      <point x="268" y="-101" type="curve"/>
      <point x="263" y="-128" type="line"/>
    </contour>
  </outline>
</glyph>
<glyph name="backslash" format="1">
  <advance width="390"/>
  <unicode hex="005C"/>
  <outline>
    <contour>
      <point x="124" y="707" type="line"/>
      <point x="195" y="707" type="line"/>
      <point x="406" y="-15" type="line"/>
      <point x="335" y="-15" type="line"/>
    </contour>
  </outline>
</glyph>
<glyph name="bracketright" format="1">
  <advance width="330"/>
  <unicode hex="005D"/>
  <outline>
    <contour>
      <point x="14" y="-128" type="line"/>
      <point x="19" y="-101" type="line"/>
      <point x="111" y="-96"/>
      <point x="118" y="-90"/>
      <point x="128" y="-46" type="curve" smooth="yes"/>
      <point x="278" y="610" type="line" smooth="yes"/>
      <point x="288" y="654"/>
      <point x="284" y="660"/>
      <point x="195" y="665" type="curve"/>
      <point x="200" y="692" type="line"/>
      <point x="359" y="692" type="line"/>
      <point x="173" y="-128" type="line"/>
    </contour>
  </outline>
</glyph>
<glyph name="asciicircum" format="1">
  <advance width="570"/>
  <unicode hex="005E"/>
  <outline>
    <contour>
      <point x="118" y="228" type="line"/>
      <point x="314" y="668" type="line"/>
      <point x="391" y="668" type="line"/>
      <point x="582" y="228" type="line"/>
      <point x="506" y="228" type="line"/>
      <point x="352" y="595" type="line"/>
      <point x="194" y="228" type="line"/>
    </contour>
  </outline>
</glyph>
<glyph name="f" format="1">
  <advance width="315"/>
  <unicode hex="0066"/>
  <outline>
    <contour>
      <point x="-72" y="-184" type="curve" smooth="yes"/>
      <point x="-72" y="-159"/>
      <point x="-49" y="-134"/>
      <point x="-27" y="-134" type="curve" smooth="yes"/>
      <point x="-14" y="-134"/>
      <point x="-7" y="-146"/>
      <point x="0" y="-156" type="curve" smooth="yes"/>
      <point x="27" y="-197"/>
      <point x="42" y="-205"/>
      <point x="53" y="-205" type="curve" smooth="yes"/>
      <point x="63" y="-205"/>
      <point x="73" y="-199"/>
      <point x="85" y="-137" type="curve" smooth="yes"/>
      <point x="201" y="452" type="line"/>
      <point x="112" y="452" type="line"/>
      <point x="123" y="490" type="line"/>
      <point x="210" y="490" type="line"/>
      <point x="220" y="527" type="line" smooth="yes"/>
      <point x="234" y="580"/>
      <point x="254" y="634"/>
      <point x="285" y="673" type="curve" smooth="yes"/>
      <point x="318" y="715"/>
      <point x="360" y="742"/>
      <point x="425" y="742" type="curve" smooth="yes"/>
      <point x="485" y="742"/>
      <point x="539" y="707"/>
      <point x="539" y="664" type="curve" smooth="yes"/>
      <point x="539" y="639"/>
      <point x="510" y="620"/>
      <point x="490" y="620" type="curve" smooth="yes"/>
      <point x="475" y="620"/>
      <point x="468" y="627"/>
      <point x="463" y="637" type="curve" smooth="yes"/>
      <point x="441" y="685"/>
      <point x="423" y="707"/>
      <point x="396" y="707" type="curve" smooth="yes"/>
      <point x="368" y="707"/>
      <point x="349" y="679"/>
      <point x="330" y="603" type="curve" smooth="yes"/>
      <point x="302" y="490" type="line"/>
      <point x="432" y="490" type="line"/>
      <point x="422" y="452" type="line"/>
      <point x="296" y="452" type="line"/>
      <point x="203" y="31" type="line" smooth="yes"/>
      <point x="161" y="-161"/>
      <point x="119" y="-242"/>
      <point x="19" y="-242" type="curve" smooth="yes"/>
      <point x="-28" y="-242"/>
      <point x="-71" y="-217"/>
    </contour>
  </outline>
</glyph>
<glyph name="q" format="1">
  <advance width="559"/>
  <unicode hex="0071"/>
  <outline>
    <contour>
      <point x="73" y="107" type="curve" smooth="yes"/>
      <point x="73" y="244"/>
      <point x="174" y="502"/>
      <point x="423" y="502" type="curve" smooth="yes"/>
      <point x="470" y="502"/>
      <point x="505" y="489"/>
      <point x="521" y="480" type="curve"/>
      <point x="564" y="525" type="line"/>
      <point x="602" y="525" type="line"/>
      <point x="424" y="-222" type="line"/>
      <point x="331" y="-242" type="line"/>
      <point x="430" y="190" type="line"/>
      <point x="427" y="190" type="line"/>
      <point x="353" y="66"/>
      <point x="251" y="-12"/>
      <point x="168" y="-12" type="curve" smooth="yes"/>
      <point x="119" y="-12"/>
      <point x="73" y="20"/>
    </contour>
    <contour>
      <point x="172" y="123" type="curve" smooth="yes"/>
      <point x="172" y="76"/>
      <point x="184" y="40"/>
      <point x="220" y="40" type="curve" smooth="yes"/>
      <point x="261" y="40"/>
      <point x="317" y="84"/>
      <point x="372" y="156" type="curve" smooth="yes"/>
      <point x="426" y="228"/>
      <point x="470" y="331"/>
      <point x="494" y="446" type="curve"/>
      <point x="479" y="457"/>
      <point x="456" y="467"/>
      <point x="424" y="467" type="curve" smooth="yes"/>
      <point x="258" y="467"/>
      <point x="172" y="221"/>
    </contour>
  </outline>
</glyph>
<glyph name="braceleft" format="1">
  <advance width="340"/>
  <unicode hex="007B"/>
  <outline>
    <contour>
      <point x="135" y="-39" type="curve" smooth="yes"/>
      <point x="134" y="1"/>
      <point x="152" y="46"/>
      <point x="180" y="107" type="curve" smooth="yes"/>
      <point x="212" y="180"/>
      <point x="252" y="266"/>
      <point x="138" y="269" type="curve"/>
      <point x="146" y="295" type="line"/>
      <point x="260" y="298"/>
      <point x="258" y="384"/>
      <point x="260" y="465" type="curve" smooth="yes"/>
      <point x="266" y="588"/>
      <point x="292" y="692"/>
      <point x="441" y="692" type="curve" smooth="yes"/>
      <point x="458" y="692" type="line"/>
      <point x="451" y="667" type="line"/>
      <point x="391" y="663"/>
      <point x="359" y="639"/>
      <point x="345" y="603" type="curve" smooth="yes"/>
      <point x="333" y="568"/>
      <point x="332" y="525"/>
      <point x="331" y="495" type="curve" smooth="yes"/>
      <point x="328" y="382"/>
      <point x="330" y="312"/>
      <point x="212" y="285" type="curve"/>
      <point x="212" y="279" type="line"/>
      <point x="315" y="258"/>
      <point x="287" y="180"/>
      <point x="235" y="69" type="curve" smooth="yes"/>
      <point x="221" y="37"/>
      <point x="197" y="-12"/>
      <point x="198" y="-47" type="curve" smooth="yes"/>
      <point x="200" y="-78"/>
      <point x="220" y="-99"/>
      <point x="277" y="-103" type="curve"/>
      <point x="269" y="-128" type="line"/>
      <point x="258" y="-128" type="line" smooth="yes"/>
      <point x="201" y="-128"/>
      <point x="138" y="-108"/>
    </contour>
  </outline>
</glyph>
<glyph name="cent" format="1">
  <advance width="530"/>
  <unicode hex="00A2"/>
  <outline>
    <contour>
      <point x="129" y="275" type="curve" smooth="yes"/>
      <point x="132" y="426"/>
      <point x="235" y="594"/>
      <point x="409" y="599" type="curve"/>
      <point x="424" y="669" type="line"/>
      <point x="465" y="668" type="line"/>
      <point x="451" y="599" type="line"/>
      <point x="522" y="597"/>
      <point x="599" y="559"/>
      <point x="598" y="500" type="curve" smooth="yes"/>
      <point x="598" y="468"/>
      <point x="563" y="454"/>
      <point x="542" y="455" type="curve" smooth="yes"/>
      <point x="526" y="455"/>
      <point x="518" y="465"/>
      <point x="515" y="480" type="curve" smooth="yes"/>
      <point x="503" y="533"/>
      <point x="470" y="562"/>
      <point x="443" y="563" type="curve"/>
      <point x="344" y="129" type="line"/>
      <point x="406" y="129"/>
      <point x="459" y="151"/>
      <point x="514" y="220" type="curve"/>
      <point x="536" y="201" type="line"/>
      <point x="486" y="124"/>
      <point x="410" y="88"/>
      <point x="334" y="87" type="curve"/>
      <point x="310" y="-21" type="line"/>
      <point x="269" y="-21" type="line"/>
      <point x="293" y="87" type="line"/>
      <point x="229" y="89"/>
      <point x="127" y="131"/>
    </contour>
    <contour>
      <point x="224" y="277" type="curve" smooth="yes"/>
      <point x="223" y="210"/>
      <point x="238" y="155"/>
      <point x="305" y="138" type="curve"/>
      <point x="401" y="563" type="line"/>
      <point x="286" y="563"/>
      <point x="226" y="382"/>
    </contour>
  </outline>
</glyph>
<glyph name="currency" format="1">
  <advance width="530"/>
  <unicode hex="00A4"/>
  <outline>
    <contour>
      <point x="108" y="101" type="curve" smooth="yes"/>
      <point x="83" y="121"/>
      <point x="85" y="142"/>
      <point x="116" y="166" type="curve" smooth="yes"/>
      <point x="155" y="196" type="line"/>
      <point x="119" y="242"/>
      <point x="109" y="285"/>
      <point x="109" y="334" type="curve" smooth="yes"/>
      <point x="109" y="383"/>
      <point x="119" y="426"/>
      <point x="155" y="472" type="curve"/>
      <point x="116" y="502" type="line" smooth="yes"/>
      <point x="85" y="526"/>
      <point x="83" y="547"/>
      <point x="108" y="567" type="curve" smooth="yes"/>
      <point x="132" y="587"/>
      <point x="151" y="580"/>
      <point x="170" y="552" type="curve" smooth="yes"/>
      <point x="197" y="513" type="line"/>
      <point x="234" y="548"/>
      <point x="286" y="559"/>
      <point x="331" y="559" type="curve" smooth="yes"/>
      <point x="376" y="559"/>
      <point x="428" y="548"/>
      <point x="465" y="513" type="curve"/>
      <point x="492" y="552" type="line" smooth="yes"/>
      <point x="511" y="580"/>
      <point x="530" y="587"/>
      <point x="554" y="567" type="curve" smooth="yes"/>
      <point x="579" y="547"/>
      <point x="577" y="526"/>
      <point x="546" y="502" type="curve" smooth="yes"/>
      <point x="507" y="472" type="line"/>
      <point x="543" y="426"/>
      <point x="553" y="383"/>
      <point x="553" y="334" type="curve" smooth="yes"/>
      <point x="553" y="285"/>
      <point x="543" y="242"/>
      <point x="507" y="196" type="curve"/>
      <point x="546" y="166" type="line" smooth="yes"/>
      <point x="577" y="142"/>
      <point x="579" y="121"/>
      <point x="554" y="101" type="curve" smooth="yes"/>
      <point x="530" y="81"/>
      <point x="511" y="88"/>
      <point x="492" y="116" type="curve" smooth="yes"/>
      <point x="465" y="155" type="line"/>
      <point x="428" y="120"/>
      <point x="376" y="109"/>
      <point x="331" y="109" type="curve" smooth="yes"/>
      <point x="286" y="109"/>
      <point x="234" y="120"/>
      <point x="197" y="155" type="curve"/>
      <point x="170" y="116" type="line" smooth="yes"/>
      <point x="151" y="88"/>
      <point x="132" y="81"/>
    </contour>
    <contour>
      <point x="181" y="334" type="curve" smooth="yes"/>
      <point x="181" y="236"/>
      <point x="244" y="162"/>
      <point x="331" y="162" type="curve" smooth="yes"/>
      <point x="418" y="162"/>
      <point x="481" y="236"/>
      <point x="481" y="334" type="curve" smooth="yes"/>
      <point x="481" y="432"/>
      <point x="418" y="506"/>
      <point x="331" y="506" type="curve" smooth="yes"/>
      <point x="244" y="506"/>
      <point x="181" y="432"/>
    </contour>
  </outline>
</glyph>
<glyph name="brokenbar" format="1">
  <advance width="270"/>
  <unicode hex="00A6"/>
  <outline>
    <contour>
      <point x="165" y="-175" type="line"/>
      <point x="165" y="175" type="line"/>
      <point x="233" y="175" type="line"/>
      <point x="233" y="-175" type="line"/>
    </contour>
    <contour>
      <point x="165" y="325" type="line"/>
      <point x="165" y="675" type="line"/>
      <point x="233" y="675" type="line"/>
      <point x="233" y="325" type="line"/>
    </contour>
  </outline>
</glyph>
<glyph name="section" format="1">
  <advance width="530"/>
  <unicode hex="00A7"/>
  <outline>
    <contour>
      <point x="90" y="-23" type="curve" smooth="yes"/>
      <point x="90" y="12"/>
      <point x="121" y="25"/>
      <point x="138" y="25" type="curve" smooth="yes"/>
      <point x="152" y="25"/>
      <point x="159" y="13"/>
      <point x="165" y="-1" type="curve" smooth="yes"/>
      <point x="192" y="-65"/>
      <point x="235" y="-80"/>
      <point x="268" y="-80" type="curve" smooth="yes"/>
      <point x="312" y="-80"/>
      <point x="354" y="-46"/>
      <point x="355" y="9" type="curve" smooth="yes"/>
      <point x="356" y="46"/>
      <point x="352" y="101"/>
      <point x="243" y="173" type="curve" smooth="yes"/>
      <point x="132" y="246"/>
      <point x="120" y="312"/>
      <point x="121" y="360" type="curve" smooth="yes"/>
      <point x="123" y="447"/>
      <point x="182" y="522"/>
      <point x="256" y="572" type="curve"/>
      <point x="262" y="621"/>
      <point x="310" y="707"/>
      <point x="431" y="707" type="curve" smooth="yes"/>
      <point x="525" y="707"/>
      <point x="568" y="660"/>
      <point x="568" y="626" type="curve" smooth="yes"/>
      <point x="567" y="596"/>
      <point x="538" y="586"/>
      <point x="520" y="586" type="curve" smooth="yes"/>
      <point x="508" y="586"/>
      <point x="501" y="595"/>
      <point x="494" y="611" type="curve" smooth="yes"/>
      <point x="477" y="650"/>
      <point x="447" y="672"/>
      <point x="410" y="672" type="curve" smooth="yes"/>
      <point x="364" y="672"/>
      <point x="323" y="636"/>
      <point x="322" y="587" type="curve" smooth="yes"/>
      <point x="322" y="562"/>
      <point x="324" y="516"/>
      <point x="421" y="454" type="curve" smooth="yes"/>
      <point x="511" y="396"/>
      <point x="549" y="341"/>
      <point x="548" y="259" type="curve" smooth="yes"/>
      <point x="546" y="169"/>
      <point x="489" y="96"/>
      <point x="426" y="39" type="curve"/>
      <point x="417" y="-48"/>
      <point x="357" y="-115"/>
      <point x="244" y="-115" type="curve" smooth="yes"/>
      <point x="146" y="-115"/>
      <point x="89" y="-65"/>
    </contour>
    <contour>
      <point x="181" y="406" type="curve" smooth="yes"/>
      <point x="180" y="356"/>
      <point x="203" y="302"/>
      <point x="284" y="245" type="curve" smooth="yes"/>
      <point x="365" y="189"/>
      <point x="414" y="135"/>
      <point x="423" y="85" type="curve"/>
      <point x="456" y="110"/>
      <point x="489" y="147"/>
      <point x="490" y="207" type="curve" smooth="yes"/>
      <point x="491" y="272"/>
      <point x="454" y="329"/>
      <point x="389" y="375" type="curve" smooth="yes"/>
      <point x="317" y="425"/>
      <point x="266" y="472"/>
      <point x="258" y="526" type="curve"/>
      <point x="220" y="506"/>
      <point x="182" y="463"/>
    </contour>
  </outline>
</glyph>
<glyph name="copyright" format="1">
  <advance width="836"/>
  <unicode hex="00A9"/>
  <outline>
    <contour>
      <point x="126" y="346" type="curve" smooth="yes"/>
      <point x="126" y="546"/>
      <point x="289" y="707"/>
      <point x="490" y="707" type="curve" smooth="yes"/>
      <point x="691" y="707"/>
      <point x="854" y="546"/>
      <point x="854" y="346" type="curve" smooth="yes"/>
      <point x="854" y="146"/>
      <point x="691" y="-15"/>
      <point x="490" y="-15" type="curve" smooth="yes"/>
      <point x="289" y="-15"/>
      <point x="126" y="146"/>
    </contour>
    <contour>
      <point x="190" y="346" type="curve" smooth="yes"/>
      <point x="190" y="169"/>
      <point x="322" y="30"/>
      <point x="490" y="30" type="curve" smooth="yes"/>
      <point x="658" y="30"/>
      <point x="790" y="169"/>
      <point x="790" y="346" type="curve" smooth="yes"/>
      <point x="790" y="523"/>
      <point x="658" y="662"/>
      <point x="490" y="662" type="curve" smooth="yes"/>
      <point x="322" y="662"/>
      <point x="190" y="523"/>
    </contour>
    <contour>
      <point x="300" y="348" type="curve" smooth="yes"/>
      <point x="300" y="469"/>
      <point x="372" y="550"/>
      <point x="511" y="550" type="curve" smooth="yes"/>
      <point x="559" y="550"/>
      <point x="613" y="539"/>
      <point x="644" y="519" type="curve"/>
      <point x="644" y="421" type="line"/>
      <point x="624" y="421" type="line"/>
      <point x="614" y="475"/>
      <point x="592" y="522"/>
      <point x="509" y="522" type="curve" smooth="yes"/>
      <point x="417" y="522"/>
      <point x="381" y="444"/>
      <point x="381" y="357" type="curve" smooth="yes"/>
      <point x="381" y="272"/>
      <point x="411" y="177"/>
      <point x="514" y="177" type="curve" smooth="yes"/>
      <point x="579" y="177"/>
      <point x="613" y="209"/>
      <point x="632" y="280" type="curve"/>
      <point x="652" y="280" type="line"/>
      <point x="641" y="180" type="line"/>
      <point x="615" y="161"/>
      <point x="568" y="149"/>
      <point x="504" y="149" type="curve" smooth="yes"/>
      <point x="357" y="149"/>
      <point x="300" y="235"/>
    </contour>
  </outline>
</glyph>
<glyph name="logicalnot" format="1">
  <advance width="570"/>
  <unicode hex="00AC"/>
  <outline>
    <contour>
      <point x="93" y="331" type="line"/>
      <point x="93" y="389" type="line"/>
      <point x="577" y="389" type="line"/>
      <point x="577" y="102" type="line"/>
      <point x="509" y="102" type="line"/>
      <point x="509" y="331" type="line"/>
    </contour>
  </outline>
</glyph>
<glyph name="registered" format="1">
  <advance width="836"/>
  <unicode hex="00AE"/>
  <outline>
    <contour>
      <point x="126" y="346" type="curve" smooth="yes"/>
      <point x="126" y="546"/>
      <point x="289" y="707"/>
      <point x="490" y="707" type="curve" smooth="yes"/>
      <point x="691" y="707"/>
      <point x="854" y="546"/>
      <point x="854" y="346" type="curve" smooth="yes"/>
      <point x="854" y="146"/>
      <point x="691" y="-15"/>
      <point x="490" y="-15" type="curve" smooth="yes"/>
      <point x="289" y="-15"/>
      <point x="126" y="146"/>
    </contour>
    <contour>
      <point x="190" y="346" type="curve" smooth="yes"/>
      <point x="190" y="169"/>
      <point x="322" y="30"/>
      <point x="490" y="30" type="curve" smooth="yes"/>
      <point x="658" y="30"/>
      <point x="790" y="169"/>
      <point x="790" y="346" type="curve" smooth="yes"/>
      <point x="790" y="523"/>
      <point x="658" y="662"/>
      <point x="490" y="662" type="curve" smooth="yes"/>
      <point x="322" y="662"/>
      <point x="190" y="523"/>
    </contour>
    <contour>
      <point x="325" y="159" type="line"/>
      <point x="325" y="179" type="line"/>
      <point x="356" y="183" type="line" smooth="yes"/>
      <point x="373" y="185"/>
      <point x="376" y="194"/>
      <point x="376" y="211" type="curve" smooth="yes"/>
      <point x="376" y="486" type="line" smooth="yes"/>
      <point x="376" y="505"/>
      <point x="373" y="513"/>
      <point x="356" y="516" type="curve" smooth="yes"/>
      <point x="325" y="520" type="line"/>
      <point x="325" y="540" type="line"/>
      <point x="505" y="540" type="line" smooth="yes"/>
      <point x="602" y="540"/>
      <point x="635" y="500"/>
      <point x="635" y="446" type="curve" smooth="yes"/>
      <point x="635" y="391"/>
      <point x="594" y="360"/>
      <point x="538" y="351" type="curve"/>
      <point x="538" y="349" type="line"/>
      <point x="598" y="334"/>
      <point x="608" y="297"/>
      <point x="616" y="253" type="curve" smooth="yes"/>
      <point x="621" y="224"/>
      <point x="630" y="206"/>
      <point x="643" y="191" type="curve" smooth="yes"/>
      <point x="651" y="183"/>
      <point x="664" y="178"/>
      <point x="678" y="174" type="curve"/>
      <point x="678" y="159" type="line"/>
      <point x="634" y="159" type="line" smooth="yes"/>
      <point x="591" y="159"/>
      <point x="571" y="174"/>
      <point x="561" y="202" type="curve" smooth="yes"/>
      <point x="547" y="242"/>
      <point x="544" y="285"/>
      <point x="535" y="304" type="curve" smooth="yes"/>
      <point x="525" y="325"/>
      <point x="506" y="334"/>
      <point x="475" y="334" type="curve" smooth="yes"/>
      <point x="441" y="334" type="line"/>
      <point x="441" y="211" type="line" smooth="yes"/>
      <point x="441" y="194"/>
      <point x="445" y="185"/>
      <point x="463" y="183" type="curve" smooth="yes"/>
      <point x="493" y="179" type="line"/>
      <point x="493" y="159" type="line"/>
    </contour>
    <contour>
      <point x="441" y="362" type="line"/>
      <point x="479" y="362" type="line" smooth="yes"/>
      <point x="530" y="362"/>
      <point x="565" y="383"/>
      <point x="565" y="438" type="curve" smooth="yes"/>
      <point x="565" y="499"/>
      <point x="524" y="512"/>
      <point x="486" y="512" type="curve" smooth="yes"/>
      <point x="445" y="512"/>
      <point x="441" y="506"/>
      <point x="441" y="491" type="curve" smooth="yes"/>
    </contour>
  </outline>
</glyph>
<glyph name="degree" format="1">
  <advance width="400"/>
  <unicode hex="00B0"/>
  <outline>
    <contour>
      <point x="187" y="542" type="curve" smooth="yes"/>
      <point x="186" y="617"/>
      <point x="249" y="680"/>
      <point x="325" y="680" type="curve" smooth="yes"/>
      <point x="400" y="680"/>
      <point x="463" y="617"/>
      <point x="463" y="542" type="curve" smooth="yes"/>
      <point x="463" y="466"/>
      <point x="400" y="404"/>
      <point x="325" y="404" type="curve" smooth="yes"/>
      <point x="249" y="404"/>
      <point x="187" y="466"/>
    </contour>
    <contour>
      <point x="243" y="542" type="curve" smooth="yes"/>
      <point x="243" y="490"/>
      <point x="281" y="452"/>
      <point x="325" y="452" type="curve" smooth="yes"/>
      <point x="368" y="452"/>
      <point x="407" y="490"/>
      <point x="407" y="542" type="curve" smooth="yes"/>
      <point x="407" y="593"/>
      <point x="368" y="632"/>
      <point x="324" y="632" type="curve" smooth="yes"/>
      <point x="281" y="632"/>
      <point x="242" y="593"/>
    </contour>
  </outline>
</glyph>
<glyph name="paragraph" format="1">
  <advance width="560"/>
  <unicode hex="00B6"/>
  <outline>
    <contour>
      <point x="144" y="437" type="curve" smooth="yes"/>
      <point x="144" y="574"/>
      <point x="261" y="692"/>
      <point x="415" y="692" type="curve" smooth="yes"/>
      <point x="427" y="692" type="line"/>
      <point x="335" y="250" type="line"/>
      <point x="324" y="250" type="line" smooth="yes"/>
      <point x="218" y="250"/>
      <point x="144" y="329"/>
    </contour>
    <contour>
      <point x="237" y="-101" type="line"/>
      <point x="242" y="-75" type="line"/>
      <point x="318" y="-66" type="line" smooth="yes"/>
      <point x="339" y="-63"/>
      <point x="348" y="-55"/>
      <point x="354" y="-26" type="curve" smooth="yes"/>
      <point x="504" y="692" type="line"/>
      <point x="672" y="692" type="line"/>
      <point x="667" y="666" type="line"/>
      <point x="597" y="657" type="line" smooth="yes"/>
      <point x="577" y="654"/>
      <point x="568" y="649"/>
      <point x="562" y="620" type="curve" smooth="yes"/>
      <point x="411" y="-101" type="line"/>
    </contour>
  </outline>
</glyph>
<glyph name="periodcentered" format="1">
  <advance width="265"/>
  <unicode hex="00B7"/>
  <outline>
    <contour>
      <point x="124" y="244" type="curve" smooth="yes"/>
      <point x="124" y="285"/>
      <point x="151" y="312"/>
      <point x="189" y="312" type="curve" smooth="yes"/>
      <point x="225" y="312"/>
      <point x="246" y="286"/>
      <point x="246" y="256" type="curve" smooth="yes"/>
      <point x="246" y="214"/>
      <point x="220" y="187"/>
      <point x="181" y="187" type="curve" smooth="yes"/>
      <point x="145" y="187"/>
      <point x="124" y="212"/>
    </contour>
  </outline>
</glyph>
<glyph name="uni00B9" format="1">
  <advance width="370"/>
  <unicode hex="00B9"/>
  <outline>
    <contour>
      <point x="139" y="408" type="line"/>
      <point x="144" y="431" type="line"/>
      <point x="195" y="435" type="line" smooth="yes"/>
      <point x="213" y="436"/>
      <point x="223" y="442"/>
      <point x="226" y="458" type="curve" smooth="yes"/>
      <point x="288" y="747" type="line" smooth="yes"/>
      <point x="291" y="759"/>
      <point x="289" y="765"/>
      <point x="274" y="767" type="curve" smooth="yes"/>
      <point x="219" y="776" type="line"/>
      <point x="222" y="795" type="line"/>
      <point x="372" y="816" type="line"/>
      <point x="375" y="812" type="line"/>
      <point x="299" y="458" type="line" smooth="yes"/>
      <point x="296" y="442"/>
      <point x="302" y="436"/>
      <point x="321" y="435" type="curve" smooth="yes"/>
      <point x="369" y="431" type="line"/>
      <point x="364" y="408" type="line"/>
    </contour>
  </outline>
</glyph>
<glyph name="ordmasculine" format="1">
  <advance width="389"/>
  <unicode hex="00BA"/>
  <outline>
    <contour>
      <point x="121" y="519" type="curve" smooth="yes"/>
      <point x="121" y="550"/>
      <point x="131" y="601"/>
      <point x="161" y="644" type="curve" smooth="yes"/>
      <point x="192" y="690"/>
      <point x="243" y="726"/>
      <point x="318" y="726" type="curve" smooth="yes"/>
      <point x="382" y="726"/>
      <point x="455" y="701"/>
      <point x="455" y="603" type="curve" smooth="yes"/>
      <point x="455" y="578"/>
      <point x="445" y="527"/>
      <point x="416" y="483" type="curve" smooth="yes"/>
      <point x="384" y="437"/>
      <point x="333" y="401"/>
      <point x="254" y="401" type="curve" smooth="yes"/>
      <point x="166" y="401"/>
      <point x="121" y="450"/>
    </contour>
    <contour>
      <point x="199" y="495" type="curve" smooth="yes"/>
      <point x="199" y="452"/>
      <point x="221" y="429"/>
      <point x="255" y="429" type="curve" smooth="yes"/>
      <point x="298" y="429"/>
      <point x="327" y="465"/>
      <point x="348" y="511" type="curve" smooth="yes"/>
      <point x="368" y="556"/>
      <point x="377" y="599"/>
      <point x="377" y="630" type="curve" smooth="yes"/>
      <point x="377" y="663"/>
      <point x="368" y="698"/>
      <point x="322" y="698" type="curve" smooth="yes"/>
      <point x="243" y="698"/>
      <point x="199" y="560"/>
    </contour>
  </outline>
</glyph>
<glyph name="onehalf" format="1">
  <advance width="890"/>
  <unicode hex="00BD"/>
  <outline>
    <contour>
      <point x="180" y="6" type="line"/>
      <point x="716" y="698" type="line"/>
      <point x="750" y="671" type="line"/>
      <point x="213" y="-24" type="line"/>
    </contour>
    <contour>
      <point x="120" y="272" type="line"/>
      <point x="125" y="295" type="line"/>
      <point x="176" y="299" type="line" smooth="yes"/>
      <point x="194" y="300"/>
      <point x="204" y="306"/>
      <point x="207" y="322" type="curve" smooth="yes"/>
      <point x="269" y="611" type="line" smooth="yes"/>
      <point x="272" y="623"/>
      <point x="270" y="629"/>
      <point x="255" y="631" type="curve" smooth="yes"/>
      <point x="200" y="640" type="line"/>
      <point x="203" y="659" type="line"/>
      <point x="353" y="680" type="line"/>
      <point x="356" y="676" type="line"/>
      <point x="280" y="322" type="line" smooth="yes"/>
      <point x="277" y="306"/>
      <point x="283" y="300"/>
      <point x="302" y="299" type="curve" smooth="yes"/>
      <point x="350" y="295" type="line"/>
      <point x="345" y="272" type="line"/>
    </contour>
    <contour>
      <point x="502" y="9" type="line"/>
      <point x="520" y="58"/>
      <point x="580" y="119"/>
      <point x="647" y="154" type="curve" smooth="yes"/>
      <point x="737" y="201"/>
      <point x="783" y="253"/>
      <point x="783" y="315" type="curve" smooth="yes"/>
      <point x="783" y="345"/>
      <point x="773" y="380"/>
      <point x="730" y="380" type="curve" smooth="yes"/>
      <point x="697" y="380"/>
      <point x="667" y="355"/>
      <point x="651" y="301" type="curve" smooth="yes"/>
      <point x="648" y="290"/>
      <point x="637" y="280"/>
      <point x="623" y="280" type="curve" smooth="yes"/>
      <point x="604" y="280"/>
      <point x="585" y="296"/>
      <point x="585" y="312" type="curve" smooth="yes"/>
      <point x="585" y="348"/>
      <point x="637" y="408"/>
      <point x="732" y="408" type="curve" smooth="yes"/>
      <point x="823" y="408"/>
      <point x="866" y="362"/>
      <point x="866" y="299" type="curve" smooth="yes"/>
      <point x="866" y="228"/>
      <point x="804" y="193"/>
      <point x="715" y="154" type="curve" smooth="yes"/>
      <point x="647" y="124"/>
      <point x="599" y="83"/>
      <point x="588" y="59" type="curve"/>
      <point x="743" y="59" type="line" smooth="yes"/>
      <point x="775" y="59"/>
      <point x="785" y="69"/>
      <point x="803" y="92" type="curve"/>
      <point x="825" y="85" type="line"/>
      <point x="789" y="0" type="line"/>
      <point x="509" y="0" type="line"/>
    </contour>
  </outline>
</glyph>
<glyph name="threequarters" format="1">
  <advance width="890"/>
  <unicode hex="00BE"/>
  <outline>
    <contour>
      <point x="526" y="120" type="line"/>
      <point x="607" y="220"/>
      <point x="694" y="317"/>
      <point x="777" y="401" type="curve"/>
      <point x="839" y="401" type="line"/>
      <point x="783" y="137" type="line"/>
      <point x="851" y="137" type="line"/>
      <point x="841" y="104" type="line"/>
      <point x="776" y="104" type="line"/>
      <point x="765" y="50" type="line" smooth="yes"/>
      <point x="762" y="34"/>
      <point x="768" y="27"/>
      <point x="782" y="26" type="curve" smooth="yes"/>
      <point x="815" y="23" type="line"/>
      <point x="810" y="0" type="line"/>
      <point x="617" y="0" type="line"/>
      <point x="622" y="23" type="line"/>
      <point x="668" y="26" type="line" smooth="yes"/>
      <point x="681" y="27"/>
      <point x="692" y="34"/>
      <point x="695" y="50" type="curve" smooth="yes"/>
      <point x="706" y="104" type="line"/>
      <point x="535" y="104" type="line"/>
    </contour>
    <contour>
      <point x="587" y="137" type="curve"/>
      <point x="713" y="137" type="line"/>
      <point x="756" y="329" type="line"/>
      <point x="750" y="329" type="line"/>
      <point x="694" y="273"/>
      <point x="640" y="207"/>
    </contour>
    <contour>
      <point x="255" y="6" type="line"/>
      <point x="791" y="698" type="line"/>
      <point x="825" y="671" type="line"/>
      <point x="288" y="-24" type="line"/>
    </contour>
    <contour>
      <point x="151" y="344" type="curve" smooth="yes"/>
      <point x="151" y="361"/>
      <point x="167" y="383"/>
      <point x="192" y="383" type="curve" smooth="yes"/>
      <point x="207" y="383"/>
      <point x="212" y="372"/>
      <point x="217" y="357" type="curve" smooth="yes"/>
      <point x="231" y="314"/>
      <point x="253" y="293"/>
      <point x="290" y="293" type="curve" smooth="yes"/>
      <point x="341" y="293"/>
      <point x="371" y="339"/>
      <point x="371" y="400" type="curve" smooth="yes"/>
      <point x="371" y="450"/>
      <point x="348" y="470"/>
      <point x="310" y="470" type="curve" smooth="yes"/>
      <point x="292" y="470"/>
      <point x="263" y="463"/>
      <point x="255" y="463" type="curve" smooth="yes"/>
      <point x="246" y="463"/>
      <point x="242" y="470"/>
      <point x="242" y="479" type="curve" smooth="yes"/>
      <point x="242" y="498"/>
      <point x="251" y="509"/>
      <point x="259" y="509" type="curve" smooth="yes"/>
      <point x="269" y="509"/>
      <point x="298" y="501"/>
      <point x="320" y="501" type="curve" smooth="yes"/>
      <point x="378" y="501"/>
      <point x="403" y="552"/>
      <point x="403" y="596" type="curve" smooth="yes"/>
      <point x="403" y="634"/>
      <point x="381" y="652"/>
      <point x="352" y="652" type="curve" smooth="yes"/>
      <point x="311" y="652"/>
      <point x="293" y="621"/>
      <point x="275" y="587" type="curve" smooth="yes"/>
      <point x="269" y="576"/>
      <point x="263" y="568"/>
      <point x="247" y="568" type="curve" smooth="yes"/>
      <point x="230" y="568"/>
      <point x="213" y="584"/>
      <point x="213" y="599" type="curve" smooth="yes"/>
      <point x="213" y="633"/>
      <point x="262" y="680"/>
      <point x="350" y="680" type="curve" smooth="yes"/>
      <point x="437" y="680"/>
      <point x="481" y="639"/>
      <point x="481" y="581" type="curve" smooth="yes"/>
      <point x="481" y="527"/>
      <point x="435" y="492"/>
      <point x="373" y="487" type="curve"/>
      <point x="373" y="485" type="line"/>
      <point x="436" y="473"/>
      <point x="454" y="426"/>
      <point x="454" y="389" type="curve" smooth="yes"/>
      <point x="454" y="325"/>
      <point x="405" y="265"/>
      <point x="283" y="265" type="curve" smooth="yes"/>
      <point x="197" y="265"/>
      <point x="151" y="310"/>
    </contour>
  </outline>
</glyph>
<glyph name="questiondown" format="1">
  <advance width="425"/>
  <unicode hex="00BF"/>
  <outline>
    <contour>
      <point x="38" y="-90" type="curve" smooth="yes"/>
      <point x="38" y="-5"/>
      <point x="89" y="30"/>
      <point x="166" y="69" type="curve" smooth="yes"/>
      <point x="231" y="102"/>
      <point x="280" y="136"/>
      <point x="280" y="188" type="curve" smooth="yes"/>
      <point x="280" y="231"/>
      <point x="249" y="246"/>
      <point x="216" y="246" type="curve" smooth="yes"/>
      <point x="198" y="246"/>
      <point x="185" y="244"/>
      <point x="173" y="243" type="curve"/>
      <point x="167" y="260" type="line"/>
      <point x="189" y="276"/>
      <point x="231" y="291"/>
      <point x="265" y="291" type="curve" smooth="yes"/>
      <point x="315" y="291"/>
      <point x="369" y="267"/>
      <point x="369" y="205" type="curve" smooth="yes"/>
      <point x="369" y="158"/>
      <point x="334" y="122"/>
      <point x="265" y="82" type="curve" smooth="yes"/>
      <point x="170" y="26"/>
      <point x="131" y="-46"/>
      <point x="131" y="-109" type="curve" smooth="yes"/>
      <point x="131" y="-150"/>
      <point x="149" y="-182"/>
      <point x="190" y="-182" type="curve" smooth="yes"/>
      <point x="239" y="-182"/>
      <point x="268" y="-134"/>
      <point x="290" y="-78" type="curve" smooth="yes"/>
      <point x="294" y="-67"/>
      <point x="304" y="-59"/>
      <point x="321" y="-59" type="curve" smooth="yes"/>
      <point x="337" y="-59"/>
      <point x="365" y="-74"/>
      <point x="365" y="-103" type="curve" smooth="yes"/>
      <point x="365" y="-144"/>
      <point x="307" y="-217"/>
      <point x="195" y="-217" type="curve" smooth="yes"/>
      <point x="98" y="-217"/>
      <point x="38" y="-165"/>
    </contour>
    <contour>
      <point x="257" y="433" type="curve" smooth="yes"/>
      <point x="257" y="475"/>
      <point x="283" y="502"/>
      <point x="322" y="502" type="curve" smooth="yes"/>
      <point x="358" y="502"/>
      <point x="379" y="477"/>
      <point x="379" y="445" type="curve" smooth="yes"/>
      <point x="379" y="404"/>
      <point x="352" y="377"/>
      <point x="314" y="377" type="curve" smooth="yes"/>
      <point x="278" y="377"/>
      <point x="257" y="403"/>
    </contour>
  </outline>
</glyph>
<glyph name="Aacute" format="1">
  <advance width="624"/>
  <unicode hex="00C1"/>
  <outline>
    <contour>
      <point x="390" y="764" type="line"/>
      <point x="535" y="863" type="line" smooth="yes"/>
      <point x="565" y="883"/>
      <point x="579" y="891"/>
      <point x="593" y="891" type="curve" smooth="yes"/>
      <point x="618" y="891"/>
      <point x="632" y="856"/>
      <point x="632" y="841" type="curve" smooth="yes"/>
      <point x="632" y="817"/>
      <point x="610" y="810"/>
      <point x="571" y="798" type="curve" smooth="yes"/>
      <point x="401" y="742" type="line"/>
    </contour>
    <contour>
      <point x="-23" y="0" type="line"/>
      <point x="-17" y="29" type="line"/>
      <point x="16" y="33" type="line" smooth="yes"/>
      <point x="47" y="36"/>
      <point x="64" y="47"/>
      <point x="96" y="99" type="curve" smooth="yes"/>
      <point x="133" y="159"/>
      <point x="216" y="308"/>
      <point x="267" y="397" type="curve" smooth="yes"/>
      <point x="435" y="692" type="line"/>
      <point x="506" y="692" type="line"/>
      <point x="580" y="90" type="line" smooth="yes"/>
      <point x="585" y="49"/>
      <point x="589" y="35"/>
      <point x="620" y="32" type="curve" smooth="yes"/>
      <point x="658" y="29" type="line"/>
      <point x="652" y="0" type="line"/>
      <point x="406" y="0" type="line"/>
      <point x="412" y="29" type="line"/>
      <point x="465" y="34" type="line" smooth="yes"/>
      <point x="485" y="36"/>
      <point x="493" y="44"/>
      <point x="490" y="73" type="curve" smooth="yes"/>
      <point x="467" y="267" type="line"/>
      <point x="243" y="267" type="line"/>
      <point x="206" y="200"/>
      <point x="173" y="135"/>
      <point x="140" y="71" type="curve" smooth="yes"/>
      <point x="131" y="50"/>
      <point x="133" y="36"/>
      <point x="153" y="34" type="curve" smooth="yes"/>
      <point x="208" y="29" type="line"/>
      <point x="202" y="0" type="line"/>
    </contour>
    <contour>
      <point x="263" y="305" type="curve"/>
      <point x="462" y="305" type="line"/>
      <point x="427" y="599" type="line"/>
      <point x="425" y="599" type="line"/>
      <point x="371" y="502"/>
      <point x="316" y="404"/>
    </contour>
  </outline>
</glyph>
<glyph name="Edieresis" format="1">
  <advance width="596"/>
  <unicode hex="00CB"/>
  <outline>
    <contour>
      <point x="514" y="787" type="curve" smooth="yes"/>
      <point x="514" y="823"/>
      <point x="540" y="848"/>
      <point x="573" y="848" type="curve" smooth="yes"/>
      <point x="603" y="848"/>
      <point x="621" y="824"/>
      <point x="621" y="799" type="curve" smooth="yes"/>
      <point x="621" y="765"/>
      <point x="598" y="738"/>
      <point x="563" y="738" type="curve" smooth="yes"/>
      <point x="531" y="738"/>
      <point x="514" y="758"/>
    </contour>
    <contour>
      <point x="306" y="787" type="curve" smooth="yes"/>
      <point x="306" y="823"/>
      <point x="332" y="848"/>
      <point x="365" y="848" type="curve" smooth="yes"/>
      <point x="395" y="848"/>
      <point x="413" y="824"/>
      <point x="413" y="799" type="curve" smooth="yes"/>
      <point x="413" y="765"/>
      <point x="390" y="738"/>
      <point x="355" y="738" type="curve" smooth="yes"/>
      <point x="323" y="738"/>
      <point x="306" y="758"/>
    </contour>
    <contour>
      <point x="38" y="0" type="line"/>
      <point x="44" y="29" type="line"/>
      <point x="100" y="35" type="line" smooth="yes"/>
      <point x="124" y="37"/>
      <point x="133" y="49"/>
      <point x="141" y="83" type="curve" smooth="yes"/>
      <point x="261" y="611" type="line" smooth="yes"/>
      <point x="269" y="645"/>
      <point x="262" y="657"/>
      <point x="239" y="659" type="curve" smooth="yes"/>
      <point x="179" y="663" type="line"/>
      <point x="186" y="692" type="line"/>
      <point x="692" y="692" type="line"/>
      <point x="654" y="525" type="line"/>
      <point x="624" y="525" type="line"/>
      <point x="633" y="615"/>
      <point x="636" y="657"/>
      <point x="510" y="657" type="curve" smooth="yes"/>
      <point x="389" y="657" type="line" smooth="yes"/>
      <point x="372" y="657"/>
      <point x="366" y="652"/>
      <point x="361" y="628" type="curve" smooth="yes"/>
      <point x="304" y="379" type="line"/>
      <point x="435" y="379" type="line" smooth="yes"/>
      <point x="523" y="379"/>
      <point x="534" y="395"/>
      <point x="560" y="464" type="curve"/>
      <point x="590" y="464" type="line"/>
      <point x="544" y="255" type="line"/>
      <point x="514" y="255" type="line"/>
      <point x="518" y="320"/>
      <point x="515" y="341"/>
      <point x="427" y="341" type="curve" smooth="yes"/>
      <point x="296" y="341" type="line"/>
      <point x="245" y="122" type="line" smooth="yes"/>
      <point x="234" y="75"/>
      <point x="235" y="60"/>
      <point x="250" y="48" type="curve" smooth="yes"/>
      <point x="263" y="38"/>
      <point x="313" y="35"/>
      <point x="362" y="35" type="curve" smooth="yes"/>
      <point x="485" y="35"/>
      <point x="530" y="53"/>
      <point x="581" y="176" type="curve"/>
      <point x="611" y="176" type="line"/>
      <point x="560" y="0" type="line"/>
    </contour>
  </outline>
</glyph>
<glyph name="Igrave" format="1">
  <advance width="345"/>
  <unicode hex="00CC"/>
  <outline>
    <contour>
      <point x="182" y="841" type="curve" smooth="yes"/>
      <point x="182" y="856"/>
      <point x="196" y="891"/>
      <point x="221" y="891" type="curve" smooth="yes"/>
      <point x="235" y="891"/>
      <point x="249" y="883"/>
      <point x="279" y="863" type="curve" smooth="yes"/>
      <point x="424" y="764" type="line"/>
      <point x="413" y="742" type="line"/>
      <point x="243" y="798" type="line" smooth="yes"/>
      <point x="204" y="810"/>
      <point x="182" y="817"/>
    </contour>
    <contour>
      <point x="40" y="0" type="line"/>
      <point x="46" y="29" type="line"/>
      <point x="101" y="35" type="line" smooth="yes"/>
      <point x="125" y="37"/>
      <point x="136" y="51"/>
      <point x="143" y="83" type="curve" smooth="yes"/>
      <point x="263" y="609" type="line" smooth="yes"/>
      <point x="270" y="639"/>
      <point x="264" y="657"/>
      <point x="241" y="659" type="curve" smooth="yes"/>
      <point x="182" y="663" type="line"/>
      <point x="189" y="692" type="line"/>
      <point x="463" y="692" type="line"/>
      <point x="456" y="663" type="line"/>
      <point x="401" y="658" type="line" smooth="yes"/>
      <point x="376" y="656"/>
      <point x="366" y="640"/>
      <point x="359" y="609" type="curve" smooth="yes"/>
      <point x="239" y="83" type="line" smooth="yes"/>
      <point x="232" y="52"/>
      <point x="237" y="35"/>
      <point x="261" y="33" type="curve" smooth="yes"/>
      <point x="320" y="29" type="line"/>
      <point x="314" y="0" type="line"/>
    </contour>
  </outline>
</glyph>
<glyph name="Icircumflex" format="1">
  <advance width="345"/>
  <unicode hex="00CE"/>
  <outline>
    <contour>
      <point x="182" y="742" type="line"/>
      <point x="322" y="853" type="line" smooth="yes"/>
      <point x="340" y="868"/>
      <point x="351" y="876"/>
      <point x="364" y="876" type="curve" smooth="yes"/>
      <point x="376" y="876"/>
      <point x="386" y="865"/>
      <point x="397" y="851" type="curve" smooth="yes"/>
      <point x="488" y="741" type="line"/>
      <point x="470" y="722" type="line"/>
      <point x="380" y="781" type="line" smooth="yes"/>
      <point x="368" y="790"/>
      <point x="357" y="797"/>
      <point x="348" y="797" type="curve" smooth="yes"/>
      <point x="340" y="797"/>
      <point x="325" y="790"/>
      <point x="312" y="783" type="curve" smooth="yes"/>
      <point x="195" y="722" type="line"/>
    </contour>
    <contour>
      <point x="40" y="0" type="line"/>
      <point x="46" y="29" type="line"/>
      <point x="101" y="35" type="line" smooth="yes"/>
      <point x="125" y="37"/>
      <point x="136" y="51"/>
      <point x="143" y="83" type="curve" smooth="yes"/>
      <point x="263" y="609" type="line" smooth="yes"/>
      <point x="270" y="639"/>
      <point x="264" y="657"/>
      <point x="241" y="659" type="curve" smooth="yes"/>
      <point x="182" y="663" type="line"/>
      <point x="189" y="692" type="line"/>
      <point x="463" y="692" type="line"/>
      <point x="456" y="663" type="line"/>
      <point x="401" y="658" type="line" smooth="yes"/>
      <point x="376" y="656"/>
      <point x="366" y="640"/>
      <point x="359" y="609" type="curve" smooth="yes"/>
      <point x="239" y="83" type="line" smooth="yes"/>
      <point x="232" y="52"/>
      <point x="237" y="35"/>
      <point x="261" y="33" type="curve" smooth="yes"/>
      <point x="320" y="29" type="line"/>
      <point x="314" y="0" type="line"/>
    </contour>
  </outline>
</glyph>
<glyph name="Eth" format="1">
  <advance width="770"/>
  <unicode hex="00D0"/>
  <outline>
    <contour>
      <point x="47" y="0" type="line"/>
      <point x="53" y="29" type="line"/>
      <point x="109" y="35" type="line" smooth="yes"/>
      <point x="133" y="37"/>
      <point x="143" y="50"/>
      <point x="150" y="83" type="curve" smooth="yes"/>
      <point x="208" y="341" type="line"/>
      <point x="101" y="341" type="line"/>
      <point x="111" y="379" type="line"/>
      <point x="217" y="379" type="line"/>
      <point x="269" y="609" type="line" smooth="yes"/>
      <point x="276" y="642"/>
      <point x="271" y="656"/>
      <point x="248" y="658" type="curve" smooth="yes"/>
      <point x="189" y="663" type="line"/>
      <point x="195" y="692" type="line"/>
      <point x="464" y="692" type="line" smooth="yes"/>
      <point x="575" y="692"/>
      <point x="665" y="669"/>
      <point x="723" y="620" type="curve" smooth="yes"/>
      <point x="780" y="572"/>
      <point x="809" y="492"/>
      <point x="809" y="411" type="curve" smooth="yes"/>
      <point x="809" y="351"/>
      <point x="799" y="267"/>
      <point x="742" y="181" type="curve" smooth="yes"/>
      <point x="670" y="72"/>
      <point x="554" y="0"/>
      <point x="354" y="0" type="curve" smooth="yes"/>
    </contour>
    <contour>
      <point x="246" y="86" type="line" smooth="yes"/>
      <point x="236" y="42"/>
      <point x="273" y="35"/>
      <point x="328" y="35" type="curve" smooth="yes"/>
      <point x="494" y="35"/>
      <point x="580" y="97"/>
      <point x="637" y="191" type="curve" smooth="yes"/>
      <point x="682" y="265"/>
      <point x="702" y="347"/>
      <point x="702" y="433" type="curve" smooth="yes"/>
      <point x="702" y="513"/>
      <point x="684" y="653"/>
      <point x="476" y="657" type="curve" smooth="yes"/>
      <point x="396" y="657"/>
      <point x="375" y="654"/>
      <point x="367" y="620" type="curve" smooth="yes"/>
      <point x="313" y="379" type="line"/>
      <point x="450" y="379" type="line"/>
      <point x="439" y="341" type="line"/>
      <point x="304" y="341" type="line"/>
    </contour>
  </outline>
</glyph>
<glyph name="multiply" format="1">
  <advance width="570"/>
  <unicode hex="00D7"/>
  <outline>
    <contour>
      <point x="123" y="66" type="line"/>
      <point x="302" y="250" type="line"/>
      <point x="123" y="432" type="line"/>
      <point x="164" y="478" type="line"/>
      <point x="345" y="294" type="line"/>
      <point x="525" y="478" type="line"/>
      <point x="567" y="432" type="line"/>
      <point x="388" y="250" type="line"/>
      <point x="567" y="66" type="line"/>
      <point x="525" y="22" type="line"/>
      <point x="345" y="206" type="line"/>
      <point x="164" y="22" type="line"/>
    </contour>
  </outline>
</glyph>
<glyph name="Ucircumflex" format="1">
  <advance width="794"/>
  <unicode hex="00DB"/>
  <outline>
    <contour>
      <point x="404" y="742" type="line"/>
      <point x="544" y="853" type="line" smooth="yes"/>
      <point x="562" y="868"/>
      <point x="573" y="876"/>
      <point x="586" y="876" type="curve" smooth="yes"/>
      <point x="598" y="876"/>
      <point x="608" y="865"/>
      <point x="619" y="851" type="curve" smooth="yes"/>
      <point x="710" y="741" type="line"/>
      <point x="692" y="722" type="line"/>
      <point x="602" y="781" type="line" smooth="yes"/>
      <point x="590" y="790"/>
      <point x="579" y="797"/>
      <point x="570" y="797" type="curve" smooth="yes"/>
      <point x="562" y="797"/>
      <point x="547" y="790"/>
      <point x="534" y="783" type="curve" smooth="yes"/>
      <point x="417" y="722" type="line"/>
    </contour>
    <contour>
      <point x="177" y="256" type="curve" smooth="yes"/>
      <point x="261" y="609" type="line" smooth="yes"/>
      <point x="269" y="642"/>
      <point x="262" y="656"/>
      <point x="239" y="658" type="curve" smooth="yes"/>
      <point x="180" y="663" type="line"/>
      <point x="187" y="692" type="line"/>
      <point x="461" y="692" type="line"/>
      <point x="454" y="663" type="line"/>
      <point x="399" y="659" type="line" smooth="yes"/>
      <point x="374" y="657"/>
      <point x="365" y="643"/>
      <point x="357" y="609" type="curve" smooth="yes"/>
      <point x="278" y="269" type="line" smooth="yes"/>
      <point x="234" y="81"/>
      <point x="304" y="20"/>
      <point x="415" y="20" type="curve" smooth="yes"/>
      <point x="554" y="20"/>
      <point x="603" y="127"/>
      <point x="634" y="260" type="curve" smooth="yes"/>
      <point x="715" y="609" type="line" smooth="yes"/>
      <point x="723" y="642"/>
      <point x="716" y="656"/>
      <point x="693" y="658" type="curve" smooth="yes"/>
      <point x="634" y="663" type="line"/>
      <point x="641" y="692" type="line"/>
      <point x="915" y="692" type="line"/>
      <point x="908" y="663" type="line"/>
      <point x="853" y="658" type="line" smooth="yes"/>
      <point x="828" y="656"/>
      <point x="819" y="643"/>
      <point x="811" y="609" type="curve" smooth="yes"/>
      <point x="726" y="247" type="line" smooth="yes"/>
      <point x="671" y="14"/>
      <point x="546" y="-15"/>
      <point x="410" y="-15" type="curve" smooth="yes"/>
      <point x="238" y="-15"/>
      <point x="130" y="57"/>
    </contour>
  </outline>
</glyph>
<glyph name="Udieresis" format="1">
  <advance width="794"/>
  <unicode hex="00DC"/>
  <outline>
    <contour>
      <point x="618" y="787" type="curve" smooth="yes"/>
      <point x="618" y="823"/>
      <point x="644" y="848"/>
      <point x="677" y="848" type="curve" smooth="yes"/>
      <point x="707" y="848"/>
      <point x="725" y="824"/>
      <point x="725" y="799" type="curve" smooth="yes"/>
      <point x="725" y="765"/>
      <point x="702" y="738"/>
      <point x="667" y="738" type="curve" smooth="yes"/>
      <point x="635" y="738"/>
      <point x="618" y="758"/>
    </contour>
    <contour>
      <point x="410" y="787" type="curve" smooth="yes"/>
      <point x="410" y="823"/>
      <point x="436" y="848"/>
      <point x="469" y="848" type="curve" smooth="yes"/>
      <point x="499" y="848"/>
      <point x="517" y="824"/>
      <point x="517" y="799" type="curve" smooth="yes"/>
      <point x="517" y="765"/>
      <point x="494" y="738"/>
      <point x="459" y="738" type="curve" smooth="yes"/>
      <point x="427" y="738"/>
      <point x="410" y="758"/>
    </contour>
    <contour>
      <point x="177" y="256" type="curve" smooth="yes"/>
      <point x="261" y="609" type="line" smooth="yes"/>
      <point x="269" y="642"/>
      <point x="262" y="656"/>
      <point x="239" y="658" type="curve" smooth="yes"/>
      <point x="180" y="663" type="line"/>
      <point x="187" y="692" type="line"/>
      <point x="461" y="692" type="line"/>
      <point x="454" y="663" type="line"/>
      <point x="399" y="659" type="line" smooth="yes"/>
      <point x="374" y="657"/>
      <point x="365" y="643"/>
      <point x="357" y="609" type="curve" smooth="yes"/>
      <point x="278" y="269" type="line" smooth="yes"/>
      <point x="234" y="81"/>
      <point x="304" y="20"/>
      <point x="415" y="20" type="curve" smooth="yes"/>
      <point x="554" y="20"/>
      <point x="603" y="127"/>
      <point x="634" y="260" type="curve" smooth="yes"/>
      <point x="715" y="609" type="line" smooth="yes"/>
      <point x="723" y="642"/>
      <point x="716" y="656"/>
      <point x="693" y="658" type="curve" smooth="yes"/>
      <point x="634" y="663" type="line"/>
      <point x="641" y="692" type="line"/>
      <point x="915" y="692" type="line"/>
      <point x="908" y="663" type="line"/>
      <point x="853" y="658" type="line" smooth="yes"/>
      <point x="828" y="656"/>
      <point x="819" y="643"/>
      <point x="811" y="609" type="curve" smooth="yes"/>
      <point x="726" y="247" type="line" smooth="yes"/>
      <point x="671" y="14"/>
      <point x="546" y="-15"/>
      <point x="410" y="-15" type="curve" smooth="yes"/>
      <point x="238" y="-15"/>
      <point x="130" y="57"/>
    </contour>
  </outline>
</glyph>
<glyph name="Thorn" format="1">
  <advance width="604"/>
  <unicode hex="00DE"/>
  <outline>
    <contour>
      <point x="40" y="0" type="line"/>
      <point x="46" y="29" type="line"/>
      <point x="101" y="35" type="line" smooth="yes"/>
      <point x="125" y="38"/>
      <point x="135" y="50"/>
      <point x="143" y="83" type="curve" smooth="yes"/>
      <point x="263" y="609" type="line" smooth="yes"/>
      <point x="271" y="642"/>
      <point x="264" y="655"/>
      <point x="241" y="657" type="curve" smooth="yes"/>
      <point x="182" y="663" type="line"/>
      <point x="189" y="692" type="line"/>
      <point x="463" y="692" type="line"/>
      <point x="456" y="663" type="line"/>
      <point x="401" y="658" type="line" smooth="yes"/>
      <point x="376" y="656"/>
      <point x="367" y="643"/>
      <point x="359" y="609" type="curve" smooth="yes"/>
      <point x="345" y="547" type="line"/>
      <point x="419" y="547" type="line" smooth="yes"/>
      <point x="544" y="547"/>
      <point x="653" y="507"/>
      <point x="651" y="381" type="curve" smooth="yes"/>
      <point x="648" y="207"/>
      <point x="461" y="182"/>
      <point x="352" y="182" type="curve" smooth="yes"/>
      <point x="261" y="182" type="line"/>
      <point x="239" y="83" type="line" smooth="yes"/>
      <point x="232" y="52"/>
      <point x="237" y="37"/>
      <point x="263" y="35" type="curve" smooth="yes"/>
      <point x="322" y="29" type="line"/>
      <point x="316" y="0" type="line"/>
    </contour>
    <contour>
      <point x="278" y="251" type="line" smooth="yes"/>
      <point x="273" y="231"/>
      <point x="275" y="217"/>
      <point x="344" y="217" type="curve" smooth="yes"/>
      <point x="456" y="217"/>
      <point x="546" y="271"/>
      <point x="546" y="394" type="curve" smooth="yes"/>
      <point x="546" y="466"/>
      <point x="502" y="512"/>
      <point x="414" y="512" type="curve" smooth="yes"/>
      <point x="349" y="512"/>
      <point x="335" y="504"/>
      <point x="329" y="476" type="curve" smooth="yes"/>
    </contour>
  </outline>
</glyph>
<glyph name="agrave" format="1">
  <advance width="561"/>
  <unicode hex="00E0"/>
  <outline>
    <contour>
      <point x="66" y="107" type="curve" smooth="yes"/>
      <point x="66" y="239"/>
      <point x="180" y="502"/>
      <point x="418" y="502" type="curve" smooth="yes"/>
      <point x="445" y="502"/>
      <point x="474" y="493"/>
      <point x="491" y="481" type="curve"/>
      <point x="496" y="494" type="line"/>
      <point x="580" y="494" type="line"/>
      <point x="474" y="95" type="line" smooth="yes"/>
      <point x="465" y="63"/>
      <point x="464" y="40"/>
      <point x="484" y="40" type="curve" smooth="yes"/>
      <point x="512" y="40"/>
      <point x="556" y="111"/>
      <point x="574" y="146" type="curve"/>
      <point x="598" y="132" type="line"/>
      <point x="564" y="56"/>
      <point x="508" y="-12"/>
      <point x="432" y="-12" type="curve" smooth="yes"/>
      <point x="378" y="-12"/>
      <point x="367" y="29"/>
      <point x="388" y="100" type="curve" smooth="yes"/>
      <point x="422" y="214" type="line"/>
      <point x="420" y="214" type="line"/>
      <point x="362" y="112"/>
      <point x="269" y="-12"/>
      <point x="162" y="-12" type="curve" smooth="yes"/>
      <point x="94" y="-12"/>
      <point x="66" y="47"/>
    </contour>
    <contour>
      <point x="165" y="110" type="curve" smooth="yes"/>
      <point x="165" y="71"/>
      <point x="176" y="40"/>
      <point x="209" y="40" type="curve" smooth="yes"/>
      <point x="257" y="40"/>
      <point x="318" y="107"/>
      <point x="374" y="192" type="curve" smooth="yes"/>
      <point x="427" y="272"/>
      <point x="463" y="371"/>
      <point x="481" y="445" type="curve"/>
      <point x="466" y="459"/>
      <point x="444" y="467"/>
      <point x="420" y="467" type="curve" smooth="yes"/>
      <point x="263" y="467"/>
      <point x="165" y="220"/>
    </contour>
    <contour>
      <point x="272" y="680" type="curve" smooth="yes"/>
      <point x="272" y="700"/>
      <point x="296" y="723"/>
      <point x="311" y="723" type="curve" smooth="yes"/>
      <point x="328" y="723"/>
      <point x="345" y="713"/>
      <point x="375" y="682" type="curve" smooth="yes"/>
      <point x="494" y="562" type="line"/>
      <point x="479" y="542" type="line"/>
      <point x="328" y="626" type="line" smooth="yes"/>
      <point x="298" y="642"/>
      <point x="272" y="659"/>
    </contour>
  </outline>
</glyph>
<glyph name="aring" format="1">
  <advance width="561"/>
  <unicode hex="00E5"/>
  <outline>
    <contour>
      <point x="302" y="636" type="curve" smooth="yes"/>
      <point x="302" y="670"/>
      <point x="320" y="752"/>
      <point x="423" y="752" type="curve" smooth="yes"/>
      <point x="473" y="752"/>
      <point x="518" y="721"/>
      <point x="518" y="661" type="curve" smooth="yes"/>
      <point x="518" y="613"/>
      <point x="493" y="550"/>
      <point x="398" y="550" type="curve" smooth="yes"/>
      <point x="344" y="550"/>
      <point x="302" y="580"/>
    </contour>
    <contour>
      <point x="359" y="636" type="curve" smooth="yes"/>
      <point x="359" y="600"/>
      <point x="378" y="583"/>
      <point x="400" y="583" type="curve" smooth="yes"/>
      <point x="455" y="583"/>
      <point x="461" y="650"/>
      <point x="461" y="671" type="curve" smooth="yes"/>
      <point x="461" y="702"/>
      <point x="443" y="719"/>
      <point x="421" y="719" type="curve" smooth="yes"/>
      <point x="372" y="719"/>
      <point x="359" y="658"/>
    </contour>
    <contour>
      <point x="66" y="107" type="curve" smooth="yes"/>
      <point x="66" y="239"/>
      <point x="180" y="502"/>
      <point x="418" y="502" type="curve" smooth="yes"/>
      <point x="445" y="502"/>
      <point x="474" y="493"/>
      <point x="491" y="481" type="curve"/>
      <point x="496" y="494" type="line"/>
      <point x="580" y="494" type="line"/>
      <point x="474" y="95" type="line" smooth="yes"/>
      <point x="465" y="63"/>
      <point x="464" y="40"/>
      <point x="484" y="40" type="curve" smooth="yes"/>
      <point x="512" y="40"/>
      <point x="556" y="111"/>
      <point x="574" y="146" type="curve"/>
      <point x="598" y="132" type="line"/>
      <point x="564" y="56"/>
      <point x="508" y="-12"/>
      <point x="432" y="-12" type="curve" smooth="yes"/>
      <point x="378" y="-12"/>
      <point x="367" y="29"/>
      <point x="388" y="100" type="curve" smooth="yes"/>
      <point x="422" y="214" type="line"/>
      <point x="420" y="214" type="line"/>
      <point x="362" y="112"/>
      <point x="269" y="-12"/>
      <point x="162" y="-12" type="curve" smooth="yes"/>
      <point x="94" y="-12"/>
      <point x="66" y="47"/>
    </contour>
    <contour>
      <point x="165" y="110" type="curve" smooth="yes"/>
      <point x="165" y="71"/>
      <point x="176" y="40"/>
      <point x="209" y="40" type="curve" smooth="yes"/>
      <point x="257" y="40"/>
      <point x="318" y="107"/>
      <point x="374" y="192" type="curve" smooth="yes"/>
      <point x="427" y="272"/>
      <point x="463" y="371"/>
      <point x="481" y="445" type="curve"/>
      <point x="466" y="459"/>
      <point x="444" y="467"/>
      <point x="420" y="467" type="curve" smooth="yes"/>
      <point x="263" y="467"/>
      <point x="165" y="220"/>
    </contour>
  </outline>
</glyph>
<glyph name="igrave" format="1">
  <advance width="317"/>
  <unicode hex="00EC"/>
  <outline>
    <contour>
      <point x="120" y="86" type="curve" smooth="yes"/>
      <point x="204" y="399" type="line" smooth="yes"/>
      <point x="213" y="434"/>
      <point x="210" y="443"/>
      <point x="183" y="445" type="curve" smooth="yes"/>
      <point x="126" y="450" type="line"/>
      <point x="132" y="474" type="line"/>
      <point x="314" y="502" type="line"/>
      <point x="319" y="497" type="line"/>
      <point x="210" y="95" type="line" smooth="yes"/>
      <point x="201" y="63"/>
      <point x="200" y="40"/>
      <point x="220" y="40" type="curve" smooth="yes"/>
      <point x="248" y="40"/>
      <point x="292" y="111"/>
      <point x="310" y="146" type="curve"/>
      <point x="334" y="132" type="line"/>
      <point x="300" y="56"/>
      <point x="244" y="-12"/>
      <point x="172" y="-12" type="curve" smooth="yes"/>
      <point x="118" y="-12"/>
      <point x="105" y="29"/>
    </contour>
    <contour>
      <point x="130" y="680" type="curve" smooth="yes"/>
      <point x="130" y="700"/>
      <point x="154" y="723"/>
      <point x="169" y="723" type="curve" smooth="yes"/>
      <point x="186" y="723"/>
      <point x="203" y="713"/>
      <point x="233" y="682" type="curve" smooth="yes"/>
      <point x="352" y="562" type="line"/>
      <point x="337" y="542" type="line"/>
      <point x="186" y="626" type="line" smooth="yes"/>
      <point x="156" y="642"/>
      <point x="130" y="659"/>
    </contour>
  </outline>
</glyph>
<glyph name="icircumflex" format="1">
  <advance width="317"/>
  <unicode hex="00EE"/>
  <outline>
    <contour>
      <point x="121" y="567" type="line"/>
      <point x="259" y="696" type="line" smooth="yes"/>
      <point x="274" y="709"/>
      <point x="287" y="720"/>
      <point x="299" y="720" type="curve" smooth="yes"/>
      <point x="310" y="720"/>
      <point x="320" y="708"/>
      <point x="329" y="696" type="curve" smooth="yes"/>
      <point x="418" y="567" type="line"/>
      <point x="395" y="546" type="line"/>
      <point x="310" y="621" type="line" smooth="yes"/>
      <point x="300" y="629"/>
      <point x="291" y="636"/>
      <point x="282" y="636" type="curve" smooth="yes"/>
      <point x="275" y="636"/>
      <point x="262" y="629"/>
      <point x="250" y="621" type="curve" smooth="yes"/>
      <point x="135" y="546" type="line"/>
    </contour>
    <contour>
      <point x="120" y="86" type="curve" smooth="yes"/>
      <point x="204" y="399" type="line" smooth="yes"/>
      <point x="213" y="434"/>
      <point x="210" y="443"/>
      <point x="183" y="445" type="curve" smooth="yes"/>
      <point x="126" y="450" type="line"/>
      <point x="132" y="474" type="line"/>
      <point x="314" y="502" type="line"/>
      <point x="319" y="497" type="line"/>
      <point x="210" y="95" type="line" smooth="yes"/>
      <point x="201" y="63"/>
      <point x="200" y="40"/>
      <point x="220" y="40" type="curve" smooth="yes"/>
      <point x="248" y="40"/>
      <point x="292" y="111"/>
      <point x="310" y="146" type="curve"/>
      <point x="334" y="132" type="line"/>
      <point x="300" y="56"/>
      <point x="244" y="-12"/>
      <point x="172" y="-12" type="curve" smooth="yes"/>
      <point x="118" y="-12"/>
      <point x="105" y="29"/>
    </contour>
  </outline>
</glyph>
<glyph name="ntilde" format="1">
  <advance width="618"/>
  <unicode hex="00F1"/>
  <outline>
    <contour>
      <point x="239" y="576" type="line"/>
      <point x="259" y="616"/>
      <point x="287" y="674"/>
      <point x="351" y="674" type="curve" smooth="yes"/>
      <point x="375" y="674"/>
      <point x="403" y="665"/>
      <point x="430" y="655" type="curve" smooth="yes"/>
      <point x="458" y="646"/>
      <point x="485" y="636"/>
      <point x="506" y="636" type="curve" smooth="yes"/>
      <point x="534" y="636"/>
      <point x="546" y="647"/>
      <point x="574" y="682" type="curve"/>
      <point x="594" y="671" type="line"/>
      <point x="565" y="614"/>
      <point x="539" y="576"/>
      <point x="490" y="576" type="curve" smooth="yes"/>
      <point x="468" y="576"/>
      <point x="439" y="586"/>
      <point x="410" y="595" type="curve" smooth="yes"/>
      <point x="381" y="605"/>
      <point x="352" y="614"/>
      <point x="330" y="614" type="curve" smooth="yes"/>
      <point x="297" y="614"/>
      <point x="280" y="598"/>
      <point x="258" y="563" type="curve"/>
    </contour>
    <contour>
      <point x="98" y="-12" type="line"/>
      <point x="203" y="397" type="line" smooth="yes"/>
      <point x="212" y="429"/>
      <point x="212" y="443"/>
      <point x="188" y="445" type="curve" smooth="yes"/>
      <point x="126" y="450" type="line"/>
      <point x="132" y="474" type="line"/>
      <point x="315" y="502" type="line"/>
      <point x="320" y="497" type="line"/>
      <point x="255" y="279" type="line"/>
      <point x="258" y="279" type="line"/>
      <point x="318" y="396"/>
      <point x="422" y="502"/>
      <point x="518" y="502" type="curve" smooth="yes"/>
      <point x="600" y="502"/>
      <point x="612" y="436"/>
      <point x="589" y="357" type="curve" smooth="yes"/>
      <point x="511" y="95" type="line" smooth="yes"/>
      <point x="502" y="63"/>
      <point x="501" y="40"/>
      <point x="521" y="40" type="curve" smooth="yes"/>
      <point x="549" y="40"/>
      <point x="593" y="111"/>
      <point x="611" y="146" type="curve"/>
      <point x="635" y="132" type="line"/>
      <point x="601" y="56"/>
      <point x="545" y="-12"/>
      <point x="470" y="-12" type="curve" smooth="yes"/>
      <point x="416" y="-12"/>
      <point x="403" y="30"/>
      <point x="419" y="86" type="curve" smooth="yes"/>
      <point x="505" y="379" type="line" smooth="yes"/>
      <point x="516" y="418"/>
      <point x="507" y="450"/>
      <point x="472" y="450" type="curve" smooth="yes"/>
      <point x="391" y="450"/>
      <point x="295" y="304"/>
      <point x="258" y="218" type="curve" smooth="yes"/>
      <point x="232" y="156"/>
      <point x="215" y="102"/>
      <point x="186" y="0" type="curve"/>
    </contour>
  </outline>
</glyph>
<glyph name="ograve" format="1">
  <advance width="537"/>
  <unicode hex="00F2"/>
  <outline>
    <contour>
      <point x="84" y="169" type="curve" smooth="yes"/>
      <point x="84" y="255"/>
      <point x="141" y="502"/>
      <point x="378" y="502" type="curve" smooth="yes"/>
      <point x="459" y="502"/>
      <point x="557" y="465"/>
      <point x="557" y="327" type="curve" smooth="yes"/>
      <point x="557" y="273"/>
      <point x="540" y="188"/>
      <point x="494" y="116" type="curve" smooth="yes"/>
      <point x="447" y="42"/>
      <point x="377" y="-12"/>
      <point x="268" y="-12" type="curve" smooth="yes"/>
      <point x="142" y="-12"/>
      <point x="84" y="62"/>
    </contour>
    <contour>
      <point x="181" y="129" type="curve" smooth="yes"/>
      <point x="181" y="58"/>
      <point x="213" y="23"/>
      <point x="271" y="23" type="curve" smooth="yes"/>
      <point x="408" y="23"/>
      <point x="460" y="291"/>
      <point x="460" y="362" type="curve" smooth="yes"/>
      <point x="460" y="424"/>
      <point x="438" y="467"/>
      <point x="377" y="467" type="curve" smooth="yes"/>
      <point x="245" y="467"/>
      <point x="181" y="237"/>
    </contour>
    <contour>
      <point x="235" y="680" type="curve" smooth="yes"/>
      <point x="235" y="700"/>
      <point x="259" y="723"/>
      <point x="274" y="723" type="curve" smooth="yes"/>
      <point x="291" y="723"/>
      <point x="308" y="713"/>
      <point x="338" y="682" type="curve" smooth="yes"/>
      <point x="457" y="562" type="line"/>
      <point x="442" y="542" type="line"/>
      <point x="291" y="626" type="line" smooth="yes"/>
      <point x="261" y="642"/>
      <point x="235" y="659"/>
    </contour>
  </outline>
</glyph>
<glyph name="otilde" format="1">
  <advance width="537"/>
  <unicode hex="00F5"/>
  <outline>
    <contour>
      <point x="205" y="576" type="line"/>
      <point x="225" y="616"/>
      <point x="253" y="674"/>
      <point x="317" y="674" type="curve" smooth="yes"/>
      <point x="341" y="674"/>
      <point x="369" y="665"/>
      <point x="396" y="655" type="curve" smooth="yes"/>
      <point x="424" y="646"/>
      <point x="451" y="636"/>
      <point x="472" y="636" type="curve" smooth="yes"/>
      <point x="500" y="636"/>
      <point x="512" y="647"/>
      <point x="540" y="682" type="curve"/>
      <point x="560" y="671" type="line"/>
      <point x="531" y="614"/>
      <point x="505" y="576"/>
      <point x="456" y="576" type="curve" smooth="yes"/>
      <point x="434" y="576"/>
      <point x="405" y="586"/>
      <point x="376" y="595" type="curve" smooth="yes"/>
      <point x="347" y="605"/>
      <point x="318" y="614"/>
      <point x="296" y="614" type="curve" smooth="yes"/>
      <point x="263" y="614"/>
      <point x="246" y="598"/>
      <point x="224" y="563" type="curve"/>
    </contour>
    <contour>
      <point x="84" y="169" type="curve" smooth="yes"/>
      <point x="84" y="255"/>
      <point x="141" y="502"/>
      <point x="378" y="502" type="curve" smooth="yes"/>
      <point x="459" y="502"/>
      <point x="557" y="465"/>
      <point x="557" y="327" type="curve" smooth="yes"/>
      <point x="557" y="273"/>
      <point x="540" y="188"/>
      <point x="494" y="116" type="curve" smooth="yes"/>
      <point x="447" y="42"/>
      <point x="377" y="-12"/>
      <point x="268" y="-12" type="curve" smooth="yes"/>
      <point x="142" y="-12"/>
      <point x="84" y="62"/>
    </contour>
    <contour>
      <point x="181" y="129" type="curve" smooth="yes"/>
      <point x="181" y="58"/>
      <point x="213" y="23"/>
      <point x="271" y="23" type="curve" smooth="yes"/>
      <point x="408" y="23"/>
      <point x="460" y="291"/>
      <point x="460" y="362" type="curve" smooth="yes"/>
      <point x="460" y="424"/>
      <point x="438" y="467"/>
      <point x="377" y="467" type="curve" smooth="yes"/>
      <point x="245" y="467"/>
      <point x="181" y="237"/>
    </contour>
  </outline>
</glyph>
<glyph name="divide" format="1">
  <advance width="570"/>
  <unicode hex="00F7"/>
  <outline>
    <contour>
      <point x="275" y="86" type="curve" smooth="yes"/>
      <point x="275" y="117"/>
      <point x="301" y="144"/>
      <point x="335" y="144" type="curve" smooth="yes"/>
      <point x="367" y="144"/>
      <point x="392" y="117"/>
      <point x="392" y="86" type="curve" smooth="yes"/>
      <point x="392" y="52"/>
      <point x="367" y="26"/>
      <point x="335" y="26" type="curve" smooth="yes"/>
      <point x="301" y="26"/>
      <point x="275" y="52"/>
    </contour>
    <contour>
      <point x="275" y="416" type="curve" smooth="yes"/>
      <point x="275" y="447"/>
      <point x="301" y="474"/>
      <point x="335" y="474" type="curve" smooth="yes"/>
      <point x="367" y="474"/>
      <point x="392" y="447"/>
      <point x="392" y="416" type="curve" smooth="yes"/>
      <point x="392" y="382"/>
      <point x="367" y="356"/>
      <point x="335" y="356" type="curve" smooth="yes"/>
      <point x="301" y="356"/>
      <point x="275" y="382"/>
    </contour>
    <contour>
      <point x="93" y="221" type="line"/>
      <point x="93" y="279" type="line"/>
      <point x="577" y="279" type="line"/>
      <point x="577" y="221" type="line"/>
    </contour>
  </outline>
</glyph>
<glyph name="oslash" format="1">
  <advance width="537"/>
  <unicode hex="00F8"/>
  <outline>
    <contour>
      <point x="84" y="169" type="curve" smooth="yes"/>
      <point x="84" y="255"/>
      <point x="141" y="502"/>
      <point x="378" y="502" type="curve" smooth="yes"/>
      <point x="411" y="502"/>
      <point x="447" y="496"/>
      <point x="477" y="479" type="curve"/>
      <point x="517" y="529" type="line"/>
      <point x="546" y="504" type="line"/>
      <point x="508" y="456" type="line"/>
      <point x="538" y="429"/>
      <point x="557" y="388"/>
      <point x="557" y="327" type="curve" smooth="yes"/>
      <point x="557" y="273"/>
      <point x="540" y="188"/>
      <point x="494" y="116" type="curve" smooth="yes"/>
      <point x="447" y="42"/>
      <point x="377" y="-12"/>
      <point x="268" y="-12" type="curve" smooth="yes"/>
      <point x="223" y="-12"/>
      <point x="186" y="-2"/>
      <point x="159" y="16" type="curve"/>
      <point x="115" y="-39" type="line"/>
      <point x="88" y="-12" type="line"/>
      <point x="129" y="39" type="line"/>
      <point x="99" y="71"/>
      <point x="84" y="117"/>
    </contour>
    <contour>
      <point x="176" y="129" type="curve" smooth="yes"/>
      <point x="176" y="119"/>
      <point x="178" y="110"/>
      <point x="179" y="102" type="curve"/>
      <point x="445" y="438" type="line"/>
      <point x="431" y="457"/>
      <point x="410" y="467"/>
      <point x="377" y="467" type="curve" smooth="yes"/>
      <point x="240" y="467"/>
      <point x="176" y="237"/>
    </contour>
    <contour>
      <point x="194" y="60" type="line"/>
      <point x="209" y="35"/>
      <point x="235" y="23"/>
      <point x="271" y="23" type="curve" smooth="yes"/>
      <point x="413" y="23"/>
      <point x="465" y="291"/>
      <point x="465" y="362" type="curve" smooth="yes"/>
      <point x="465" y="374"/>
      <point x="463" y="386"/>
      <point x="461" y="396" type="curve"/>
    </contour>
  </outline>
</glyph>
<glyph name="ucircumflex" format="1">
  <advance width="618"/>
  <unicode hex="00FB"/>
  <outline>
    <contour>
      <point x="271" y="567" type="line"/>
      <point x="409" y="696" type="line" smooth="yes"/>
      <point x="424" y="709"/>
      <point x="437" y="720"/>
      <point x="449" y="720" type="curve" smooth="yes"/>
      <point x="460" y="720"/>
      <point x="470" y="708"/>
      <point x="479" y="696" type="curve" smooth="yes"/>
      <point x="568" y="567" type="line"/>
      <point x="545" y="546" type="line"/>
      <point x="460" y="621" type="line" smooth="yes"/>
      <point x="450" y="629"/>
      <point x="441" y="636"/>
      <point x="432" y="636" type="curve" smooth="yes"/>
      <point x="425" y="636"/>
      <point x="412" y="629"/>
      <point x="400" y="621" type="curve" smooth="yes"/>
      <point x="285" y="546" type="line"/>
    </contour>
    <contour>
      <point x="126" y="450" type="line"/>
      <point x="132" y="474" type="line"/>
      <point x="314" y="502" type="line"/>
      <point x="319" y="497" type="line"/>
      <point x="223" y="128" type="line" smooth="yes"/>
      <point x="208" y="70"/>
      <point x="216" y="40"/>
      <point x="248" y="40" type="curve" smooth="yes"/>
      <point x="331" y="40"/>
      <point x="418" y="173"/>
      <point x="462" y="274" type="curve" smooth="yes"/>
      <point x="488" y="335"/>
      <point x="504" y="388"/>
      <point x="533" y="490" type="curve"/>
      <point x="622" y="502" type="line"/>
      <point x="515" y="94" type="line" smooth="yes"/>
      <point x="507" y="63"/>
      <point x="507" y="40"/>
      <point x="528" y="40" type="curve" smooth="yes"/>
      <point x="556" y="40"/>
      <point x="600" y="112"/>
      <point x="620" y="146" type="curve"/>
      <point x="644" y="131" type="line"/>
      <point x="609" y="57"/>
      <point x="549" y="-12"/>
      <point x="477" y="-12" type="curve" smooth="yes"/>
      <point x="424" y="-12"/>
      <point x="412" y="29"/>
      <point x="431" y="96" type="curve" smooth="yes"/>
      <point x="464" y="210" type="line"/>
      <point x="462" y="210" type="line"/>
      <point x="402" y="94"/>
      <point x="297" y="-12"/>
      <point x="201" y="-12" type="curve" smooth="yes"/>
      <point x="121" y="-12"/>
      <point x="113" y="53"/>
      <point x="134" y="133" type="curve" smooth="yes"/>
      <point x="203" y="397" type="line" smooth="yes"/>
      <point x="211" y="428"/>
      <point x="212" y="443"/>
      <point x="188" y="445" type="curve" smooth="yes"/>
    </contour>
  </outline>
</glyph>
<glyph name="aogonek" format="1">
  <advance width="561"/>
  <unicode hex="0105"/>
  <outline>
    <contour>
      <point x="66" y="107" type="curve" smooth="yes"/>
      <point x="66" y="239"/>
      <point x="180" y="502"/>
      <point x="418" y="502" type="curve" smooth="yes"/>
      <point x="445" y="502"/>
      <point x="474" y="493"/>
      <point x="491" y="481" type="curve"/>
      <point x="496" y="494" type="line"/>
      <point x="580" y="494" type="line"/>
      <point x="474" y="95" type="line" smooth="yes"/>
      <point x="465" y="63"/>
      <point x="464" y="40"/>
      <point x="484" y="40" type="curve" smooth="yes"/>
      <point x="512" y="40"/>
      <point x="556" y="111"/>
      <point x="574" y="146" type="curve"/>
      <point x="598" y="132" type="line"/>
      <point x="564" y="56"/>
      <point x="519" y="2"/>
      <point x="439" y="-16" type="curve" smooth="yes"/>
      <point x="404" y="-24"/>
      <point x="363" y="-81"/>
      <point x="363" y="-137" type="curve" smooth="yes"/>
      <point x="363" y="-171"/>
      <point x="386" y="-184"/>
      <point x="416" y="-184" type="curve" smooth="yes"/>
      <point x="433" y="-184"/>
      <point x="449" y="-182"/>
      <point x="469" y="-172" type="curve"/>
      <point x="477" y="-193" type="line"/>
      <point x="447" y="-222"/>
      <point x="413" y="-230"/>
      <point x="384" y="-230" type="curve" smooth="yes"/>
      <point x="303" y="-230"/>
      <point x="292" y="-173"/>
      <point x="292" y="-152" type="curve" smooth="yes"/>
      <point x="292" y="-93"/>
      <point x="343" y="-37"/>
      <point x="401" y="-5" type="curve"/>
      <point x="374" y="9"/>
      <point x="373" y="48"/>
      <point x="388" y="100" type="curve" smooth="yes"/>
      <point x="422" y="214" type="line"/>
      <point x="420" y="214" type="line"/>
      <point x="362" y="112"/>
      <point x="269" y="-12"/>
      <point x="162" y="-12" type="curve" smooth="yes"/>
      <point x="94" y="-12"/>
      <point x="66" y="47"/>
    </contour>
    <contour>
      <point x="165" y="110" type="curve" smooth="yes"/>
      <point x="165" y="71"/>
      <point x="176" y="40"/>
      <point x="209" y="40" type="curve" smooth="yes"/>
      <point x="257" y="40"/>
      <point x="318" y="107"/>
      <point x="374" y="192" type="curve" smooth="yes"/>
      <point x="427" y="272"/>
      <point x="463" y="371"/>
      <point x="481" y="445" type="curve"/>
      <point x="466" y="459"/>
      <point x="444" y="467"/>
      <point x="420" y="467" type="curve" smooth="yes"/>
      <point x="263" y="467"/>
      <point x="165" y="220"/>
    </contour>
  </outline>
</glyph>
<glyph name="Cacute" format="1">
  <advance width="661"/>
  <unicode hex="0106"/>
  <outline>
    <contour>
      <point x="488" y="764" type="line"/>
      <point x="633" y="863" type="line" smooth="yes"/>
      <point x="663" y="883"/>
      <point x="677" y="891"/>
      <point x="691" y="891" type="curve" smooth="yes"/>
      <point x="716" y="891"/>
      <point x="730" y="856"/>
      <point x="730" y="841" type="curve" smooth="yes"/>
      <point x="730" y="817"/>
      <point x="708" y="810"/>
      <point x="669" y="798" type="curve" smooth="yes"/>
      <point x="499" y="742" type="line"/>
    </contour>
    <contour>
      <point x="114" y="275" type="curve" smooth="yes"/>
      <point x="114" y="344"/>
      <point x="127" y="436"/>
      <point x="182" y="525" type="curve" smooth="yes"/>
      <point x="240" y="619"/>
      <point x="349" y="707"/>
      <point x="537" y="707" type="curve" smooth="yes"/>
      <point x="607" y="707"/>
      <point x="701" y="690"/>
      <point x="758" y="654" type="curve"/>
      <point x="722" y="504" type="line"/>
      <point x="692" y="504" type="line"/>
      <point x="697" y="613"/>
      <point x="654" y="672"/>
      <point x="529" y="672" type="curve" smooth="yes"/>
      <point x="422" y="672"/>
      <point x="343" y="614"/>
      <point x="293" y="530" type="curve" smooth="yes"/>
      <point x="245" y="450"/>
      <point x="221" y="339"/>
      <point x="221" y="249" type="curve" smooth="yes"/>
      <point x="221" y="95"/>
      <point x="304" y="20"/>
      <point x="420" y="20" type="curve" smooth="yes"/>
      <point x="543" y="20"/>
      <point x="594" y="86"/>
      <point x="649" y="186" type="curve"/>
      <point x="679" y="186" type="line"/>
      <point x="630" y="27" type="line"/>
      <point x="566" y="-5"/>
      <point x="498" y="-15"/>
      <point x="427" y="-15" type="curve" smooth="yes"/>
      <point x="179" y="-15"/>
      <point x="114" y="143"/>
    </contour>
  </outline>
</glyph>
<glyph name="cdotaccent" format="1">
  <advance width="441"/>
  <unicode hex="010B"/>
  <outline>
    <contour>
      <point x="346" y="619" type="curve" smooth="yes"/>
      <point x="346" y="655"/>
      <point x="372" y="680"/>
      <point x="405" y="680" type="curve" smooth="yes"/>
      <point x="435" y="680"/>
      <point x="453" y="656"/>
      <point x="453" y="631" type="curve" smooth="yes"/>
      <point x="453" y="597"/>
      <point x="430" y="570"/>
      <point x="395" y="570" type="curve" smooth="yes"/>
      <point x="363" y="570"/>
      <point x="346" y="590"/>
    </contour>
    <contour>
      <point x="81" y="148" type="curve" smooth="yes"/>
      <point x="81" y="312"/>
      <point x="193" y="502"/>
      <point x="371" y="502" type="curve" smooth="yes"/>
      <point x="446" y="502"/>
      <point x="500" y="464"/>
      <point x="500" y="413" type="curve" smooth="yes"/>
      <point x="500" y="380"/>
      <point x="460" y="357"/>
      <point x="436" y="357" type="curve" smooth="yes"/>
      <point x="418" y="357"/>
      <point x="409" y="369"/>
      <point x="407" y="387" type="curve" smooth="yes"/>
      <point x="401" y="447"/>
      <point x="379" y="467"/>
      <point x="347" y="467" type="curve" smooth="yes"/>
      <point x="255" y="467"/>
      <point x="180" y="298"/>
      <point x="180" y="168" type="curve" smooth="yes"/>
      <point x="180" y="97"/>
      <point x="195" y="37"/>
      <point x="268" y="37" type="curve" smooth="yes"/>
      <point x="335" y="37"/>
      <point x="394" y="108"/>
      <point x="428" y="154" type="curve"/>
      <point x="452" y="135" type="line"/>
      <point x="383" y="20"/>
      <point x="298" y="-12"/>
      <point x="224" y="-12" type="curve" smooth="yes"/>
      <point x="154" y="-12"/>
      <point x="81" y="26"/>
    </contour>
  </outline>
</glyph>
<glyph name="dcaron" format="1">
  <advance width="607"/>
  <unicode hex="010F"/>
  <outline>
    <contour>
      <point x="682" y="733" type="curve" smooth="yes"/>
      <point x="682" y="765"/>
      <point x="706" y="790"/>
      <point x="738" y="790" type="curve" smooth="yes"/>
      <point x="771" y="790"/>
      <point x="792" y="764"/>
      <point x="792" y="727" type="curve" smooth="yes"/>
      <point x="792" y="656"/>
      <point x="741" y="602"/>
      <point x="674" y="552" type="curve"/>
      <point x="659" y="569" type="line"/>
      <point x="692" y="600"/>
      <point x="710" y="646"/>
      <point x="710" y="666" type="curve" smooth="yes"/>
      <point x="710" y="695"/>
      <point x="682" y="704"/>
    </contour>
    <contour>
      <point x="72" y="120" type="curve" smooth="yes"/>
      <point x="72" y="241"/>
      <point x="179" y="502"/>
      <point x="412" y="502" type="curve" smooth="yes"/>
      <point x="446" y="502"/>
      <point x="477" y="495"/>
      <point x="496" y="485" type="curve"/>
      <point x="498" y="487" type="line"/>
      <point x="536" y="648" type="line" smooth="yes"/>
      <point x="544" y="680"/>
      <point x="542" y="687"/>
      <point x="518" y="689" type="curve" smooth="yes"/>
      <point x="458" y="695" type="line"/>
      <point x="464" y="718" type="line"/>
      <point x="642" y="742" type="line"/>
      <point x="647" y="737" type="line"/>
      <point x="489" y="95" type="line" smooth="yes"/>
      <point x="481" y="63"/>
      <point x="479" y="40"/>
      <point x="499" y="40" type="curve" smooth="yes"/>
      <point x="527" y="40"/>
      <point x="571" y="111"/>
      <point x="589" y="146" type="curve"/>
      <point x="613" y="132" type="line"/>
      <point x="579" y="56"/>
      <point x="523" y="-12"/>
      <point x="450" y="-12" type="curve" smooth="yes"/>
      <point x="399" y="-13"/>
      <point x="384" y="28"/>
      <point x="404" y="99" type="curve" smooth="yes"/>
      <point x="437" y="218" type="line"/>
      <point x="435" y="218" type="line"/>
      <point x="376" y="111"/>
      <point x="287" y="-12"/>
      <point x="172" y="-12" type="curve" smooth="yes"/>
      <point x="91" y="-12"/>
      <point x="72" y="55"/>
    </contour>
    <contour>
      <point x="171" y="112" type="curve" smooth="yes"/>
      <point x="171" y="67"/>
      <point x="189" y="40"/>
      <point x="221" y="40" type="curve" smooth="yes"/>
      <point x="274" y="40"/>
      <point x="340" y="115"/>
      <point x="388" y="193" type="curve" smooth="yes"/>
      <point x="439" y="276"/>
      <point x="472" y="370"/>
      <point x="487" y="447" type="curve"/>
      <point x="475" y="458"/>
      <point x="449" y="467"/>
      <point x="418" y="467" type="curve" smooth="yes"/>
      <point x="258" y="467"/>
      <point x="171" y="220"/>
    </contour>
  </outline>
</glyph>
<glyph name="Dcroat" format="1">
  <advance width="763"/>
  <unicode hex="0110"/>
  <outline>
    <contour>
      <point x="40" y="0" type="line"/>
      <point x="46" y="29" type="line"/>
      <point x="102" y="35" type="line" smooth="yes"/>
      <point x="126" y="37"/>
      <point x="136" y="50"/>
      <point x="143" y="83" type="curve" smooth="yes"/>
      <point x="197" y="323" type="line"/>
      <point x="117" y="323" type="line"/>
      <point x="131" y="382" type="line"/>
      <point x="211" y="382" type="line"/>
      <point x="262" y="609" type="line" smooth="yes"/>
      <point x="269" y="642"/>
      <point x="264" y="656"/>
      <point x="241" y="658" type="curve" smooth="yes"/>
      <point x="182" y="663" type="line"/>
      <point x="188" y="692" type="line"/>
      <point x="457" y="692" type="line" smooth="yes"/>
      <point x="568" y="692"/>
      <point x="658" y="669"/>
      <point x="716" y="620" type="curve" smooth="yes"/>
      <point x="773" y="572"/>
      <point x="802" y="492"/>
      <point x="802" y="411" type="curve" smooth="yes"/>
      <point x="802" y="351"/>
      <point x="792" y="267"/>
      <point x="735" y="181" type="curve" smooth="yes"/>
      <point x="663" y="72"/>
      <point x="547" y="0"/>
      <point x="347" y="0" type="curve" smooth="yes"/>
    </contour>
    <contour>
      <point x="321" y="35" type="curve" smooth="yes"/>
      <point x="487" y="35"/>
      <point x="573" y="97"/>
      <point x="630" y="191" type="curve" smooth="yes"/>
      <point x="675" y="265"/>
      <point x="695" y="347"/>
      <point x="695" y="433" type="curve" smooth="yes"/>
      <point x="695" y="513"/>
      <point x="677" y="653"/>
      <point x="469" y="657" type="curve" smooth="yes"/>
      <point x="382" y="657"/>
      <point x="368" y="654"/>
      <point x="360" y="620" type="curve" smooth="yes"/>
      <point x="306" y="382" type="line"/>
      <point x="409" y="382" type="line"/>
      <point x="395" y="323" type="line"/>
      <point x="292" y="323" type="line"/>
      <point x="239" y="86" type="line" smooth="yes"/>
      <point x="229" y="42"/>
      <point x="266" y="35"/>
    </contour>
  </outline>
</glyph>
<glyph name="dcroat" format="1">
  <advance width="587"/>
  <unicode hex="0111"/>
  <outline>
    <contour>
      <point x="72" y="120" type="curve" smooth="yes"/>
      <point x="72" y="241"/>
      <point x="179" y="502"/>
      <point x="412" y="502" type="curve" smooth="yes"/>
      <point x="446" y="502"/>
      <point x="477" y="495"/>
      <point x="496" y="485" type="curve"/>
      <point x="498" y="487" type="line"/>
      <point x="520" y="582" type="line"/>
      <point x="404" y="582" type="line"/>
      <point x="418" y="641" type="line"/>
      <point x="534" y="641" type="line"/>
      <point x="536" y="648" type="line" smooth="yes"/>
      <point x="544" y="680"/>
      <point x="542" y="687"/>
      <point x="518" y="689" type="curve" smooth="yes"/>
      <point x="458" y="695" type="line"/>
      <point x="464" y="718" type="line"/>
      <point x="642" y="742" type="line"/>
      <point x="647" y="737" type="line"/>
      <point x="623" y="641" type="line"/>
      <point x="696" y="641" type="line"/>
      <point x="682" y="582" type="line"/>
      <point x="609" y="582" type="line"/>
      <point x="489" y="95" type="line" smooth="yes"/>
      <point x="481" y="63"/>
      <point x="479" y="40"/>
      <point x="499" y="40" type="curve" smooth="yes"/>
      <point x="527" y="40"/>
      <point x="571" y="111"/>
      <point x="589" y="146" type="curve"/>
      <point x="613" y="132" type="line"/>
      <point x="579" y="56"/>
      <point x="523" y="-12"/>
      <point x="450" y="-12" type="curve" smooth="yes"/>
      <point x="399" y="-13"/>
      <point x="384" y="28"/>
      <point x="404" y="99" type="curve" smooth="yes"/>
      <point x="437" y="218" type="line"/>
      <point x="435" y="218" type="line"/>
      <point x="376" y="111"/>
      <point x="287" y="-12"/>
      <point x="172" y="-12" type="curve" smooth="yes"/>
      <point x="91" y="-12"/>
      <point x="72" y="55"/>
    </contour>
    <contour>
      <point x="171" y="112" type="curve" smooth="yes"/>
      <point x="171" y="67"/>
      <point x="189" y="40"/>
      <point x="221" y="40" type="curve" smooth="yes"/>
      <point x="274" y="40"/>
      <point x="340" y="115"/>
      <point x="388" y="193" type="curve" smooth="yes"/>
      <point x="439" y="276"/>
      <point x="472" y="370"/>
      <point x="487" y="447" type="curve"/>
      <point x="475" y="458"/>
      <point x="449" y="467"/>
      <point x="418" y="467" type="curve" smooth="yes"/>
      <point x="258" y="467"/>
      <point x="171" y="220"/>
    </contour>
  </outline>
</glyph>
<glyph name="Ebreve" format="1">
  <advance width="596"/>
  <unicode hex="0114"/>
  <outline>
    <contour>
      <point x="352" y="870" type="curve"/>
      <point x="380" y="870" type="line"/>
      <point x="377" y="851"/>
      <point x="394" y="808"/>
      <point x="485" y="808" type="curve" smooth="yes"/>
      <point x="576" y="808"/>
      <point x="611" y="851"/>
      <point x="618" y="870" type="curve"/>
      <point x="646" y="870" type="line"/>
      <point x="633" y="814"/>
      <point x="589" y="749"/>
      <point x="471" y="749" type="curve" smooth="yes"/>
      <point x="353" y="749"/>
      <point x="339" y="814"/>
    </contour>
    <contour>
      <point x="38" y="0" type="line"/>
      <point x="44" y="29" type="line"/>
      <point x="100" y="35" type="line" smooth="yes"/>
      <point x="124" y="37"/>
      <point x="133" y="49"/>
      <point x="141" y="83" type="curve" smooth="yes"/>
      <point x="261" y="611" type="line" smooth="yes"/>
      <point x="269" y="645"/>
      <point x="262" y="657"/>
      <point x="239" y="659" type="curve" smooth="yes"/>
      <point x="179" y="663" type="line"/>
      <point x="186" y="692" type="line"/>
      <point x="692" y="692" type="line"/>
      <point x="654" y="525" type="line"/>
      <point x="624" y="525" type="line"/>
      <point x="633" y="615"/>
      <point x="636" y="657"/>
      <point x="510" y="657" type="curve" smooth="yes"/>
      <point x="389" y="657" type="line" smooth="yes"/>
      <point x="372" y="657"/>
      <point x="366" y="652"/>
      <point x="361" y="628" type="curve" smooth="yes"/>
      <point x="304" y="379" type="line"/>
      <point x="435" y="379" type="line" smooth="yes"/>
      <point x="523" y="379"/>
      <point x="534" y="395"/>
      <point x="560" y="464" type="curve"/>
      <point x="590" y="464" type="line"/>
      <point x="544" y="255" type="line"/>
      <point x="514" y="255" type="line"/>
      <point x="518" y="320"/>
      <point x="515" y="341"/>
      <point x="427" y="341" type="curve" smooth="yes"/>
      <point x="296" y="341" type="line"/>
      <point x="245" y="122" type="line" smooth="yes"/>
      <point x="234" y="75"/>
      <point x="235" y="60"/>
      <point x="250" y="48" type="curve" smooth="yes"/>
      <point x="263" y="38"/>
      <point x="313" y="35"/>
      <point x="362" y="35" type="curve" smooth="yes"/>
      <point x="485" y="35"/>
      <point x="530" y="53"/>
      <point x="581" y="176" type="curve"/>
      <point x="611" y="176" type="line"/>
      <point x="560" y="0" type="line"/>
    </contour>
  </outline>
</glyph>
<glyph name="Eogonek" format="1">
  <advance width="596"/>
  <unicode hex="0118"/>
  <outline>
    <contour>
      <point x="38" y="0" type="line"/>
      <point x="44" y="29" type="line"/>
      <point x="100" y="35" type="line" smooth="yes"/>
      <point x="124" y="37"/>
      <point x="133" y="49"/>
      <point x="141" y="83" type="curve" smooth="yes"/>
      <point x="261" y="611" type="line" smooth="yes"/>
      <point x="269" y="645"/>
      <point x="262" y="657"/>
      <point x="239" y="659" type="curve" smooth="yes"/>
      <point x="179" y="663" type="line"/>
      <point x="186" y="692" type="line"/>
      <point x="692" y="692" type="line"/>
      <point x="654" y="525" type="line"/>
      <point x="624" y="525" type="line"/>
      <point x="633" y="615"/>
      <point x="636" y="657"/>
      <point x="510" y="657" type="curve" smooth="yes"/>
      <point x="389" y="657" type="line" smooth="yes"/>
      <point x="372" y="657"/>
      <point x="366" y="652"/>
      <point x="361" y="628" type="curve" smooth="yes"/>
      <point x="304" y="379" type="line"/>
      <point x="435" y="379" type="line" smooth="yes"/>
      <point x="523" y="379"/>
      <point x="534" y="395"/>
      <point x="560" y="464" type="curve"/>
      <point x="590" y="464" type="line"/>
      <point x="544" y="255" type="line"/>
      <point x="514" y="255" type="line"/>
      <point x="518" y="320"/>
      <point x="515" y="341"/>
      <point x="427" y="341" type="curve" smooth="yes"/>
      <point x="296" y="341" type="line"/>
      <point x="245" y="122" type="line" smooth="yes"/>
      <point x="234" y="75"/>
      <point x="235" y="60"/>
      <point x="250" y="48" type="curve" smooth="yes"/>
      <point x="263" y="38"/>
      <point x="313" y="35"/>
      <point x="362" y="35" type="curve" smooth="yes"/>
      <point x="485" y="35"/>
      <point x="530" y="53"/>
      <point x="581" y="176" type="curve"/>
      <point x="611" y="176" type="line"/>
      <point x="560" y="0" type="line"/>
      <point x="486" y="0" type="line"/>
      <point x="438" y="-38"/>
      <point x="404" y="-81"/>
      <point x="404" y="-137" type="curve" smooth="yes"/>
      <point x="404" y="-171"/>
      <point x="427" y="-184"/>
      <point x="457" y="-184" type="curve" smooth="yes"/>
      <point x="474" y="-184"/>
      <point x="490" y="-182"/>
      <point x="510" y="-172" type="curve"/>
      <point x="518" y="-193" type="line"/>
      <point x="488" y="-222"/>
      <point x="454" y="-230"/>
      <point x="425" y="-230" type="curve" smooth="yes"/>
      <point x="344" y="-230"/>
      <point x="333" y="-173"/>
      <point x="333" y="-152" type="curve" smooth="yes"/>
      <point x="333" y="-91"/>
      <point x="386" y="-36"/>
      <point x="444" y="0" type="curve"/>
    </contour>
  </outline>
</glyph>
<glyph name="Gbreve" format="1">
  <advance width="709"/>
  <unicode hex="011E"/>
  <outline>
    <contour>
      <point x="433" y="870" type="curve"/>
      <point x="461" y="870" type="line"/>
      <point x="458" y="851"/>
      <point x="475" y="808"/>
      <point x="566" y="808" type="curve" smooth="yes"/>
      <point x="657" y="808"/>
      <point x="692" y="851"/>
      <point x="699" y="870" type="curve"/>
      <point x="727" y="870" type="line"/>
      <point x="714" y="814"/>
      <point x="670" y="749"/>
      <point x="552" y="749" type="curve" smooth="yes"/>
      <point x="434" y="749"/>
      <point x="420" y="814"/>
    </contour>
    <contour>
      <point x="114" y="285" type="curve" smooth="yes"/>
      <point x="114" y="373"/>
      <point x="143" y="479"/>
      <point x="209" y="563" type="curve" smooth="yes"/>
      <point x="279" y="652"/>
      <point x="390" y="707"/>
      <point x="543" y="707" type="curve" smooth="yes"/>
      <point x="627" y="707"/>
      <point x="706" y="690"/>
      <point x="767" y="657" type="curve"/>
      <point x="731" y="501" type="line"/>
      <point x="701" y="501" type="line"/>
      <point x="708" y="587"/>
      <point x="689" y="672"/>
      <point x="542" y="672" type="curve" smooth="yes"/>
      <point x="303" y="672"/>
      <point x="224" y="438"/>
      <point x="224" y="278" type="curve" smooth="yes"/>
      <point x="224" y="101"/>
      <point x="313" y="20"/>
      <point x="434" y="20" type="curve" smooth="yes"/>
      <point x="538" y="20"/>
      <point x="551" y="45"/>
      <point x="558" y="74" type="curve" smooth="yes"/>
      <point x="595" y="225" type="line" smooth="yes"/>
      <point x="604" y="260"/>
      <point x="597" y="271"/>
      <point x="578" y="273" type="curve" smooth="yes"/>
      <point x="503" y="280" type="line"/>
      <point x="509" y="309" type="line"/>
      <point x="772" y="309" type="line"/>
      <point x="766" y="280" type="line"/>
      <point x="722" y="276" type="line" smooth="yes"/>
      <point x="705" y="274"/>
      <point x="699" y="259"/>
      <point x="691" y="225" type="curve" smooth="yes"/>
      <point x="644" y="23" type="line"/>
      <point x="587" y="2"/>
      <point x="505" y="-15"/>
      <point x="432" y="-15" type="curve" smooth="yes"/>
      <point x="339" y="-15"/>
      <point x="258" y="8"/>
      <point x="199" y="59" type="curve" smooth="yes"/>
      <point x="147" y="104"/>
      <point x="114" y="185"/>
    </contour>
  </outline>
</glyph>
<glyph name="imacron" format="1">
  <advance width="317"/>
  <unicode hex="012B"/>
  <outline>
    <contour>
      <point x="147" y="597" type="line"/>
      <point x="165" y="656" type="line"/>
      <point x="443" y="656" type="line"/>
      <point x="425" y="597" type="line"/>
    </contour>
    <contour>
      <point x="120" y="86" type="curve" smooth="yes"/>
      <point x="204" y="399" type="line" smooth="yes"/>
      <point x="213" y="434"/>
      <point x="210" y="443"/>
      <point x="183" y="445" type="curve" smooth="yes"/>
      <point x="126" y="450" type="line"/>
      <point x="132" y="474" type="line"/>
      <point x="314" y="502" type="line"/>
      <point x="319" y="497" type="line"/>
      <point x="210" y="95" type="line" smooth="yes"/>
      <point x="201" y="63"/>
      <point x="200" y="40"/>
      <point x="220" y="40" type="curve" smooth="yes"/>
      <point x="248" y="40"/>
      <point x="292" y="111"/>
      <point x="310" y="146" type="curve"/>
      <point x="334" y="132" type="line"/>
      <point x="300" y="56"/>
      <point x="244" y="-12"/>
      <point x="172" y="-12" type="curve" smooth="yes"/>
      <point x="118" y="-12"/>
      <point x="105" y="29"/>
    </contour>
  </outline>
</glyph>
<glyph name="iogonek" format="1">
  <advance width="317"/>
  <unicode hex="012F"/>
  <outline>
    <contour>
      <point x="120" y="86" type="curve" smooth="yes"/>
      <point x="203" y="399" type="line" smooth="yes"/>
      <point x="212" y="434"/>
      <point x="209" y="443"/>
      <point x="182" y="445" type="curve" smooth="yes"/>
      <point x="125" y="450" type="line"/>
      <point x="131" y="474" type="line"/>
      <point x="313" y="502" type="line"/>
      <point x="318" y="497" type="line"/>
      <point x="209" y="95" type="line" smooth="yes"/>
      <point x="200" y="63"/>
      <point x="199" y="40"/>
      <point x="219" y="40" type="curve" smooth="yes"/>
      <point x="247" y="40"/>
      <point x="291" y="111"/>
      <point x="309" y="146" type="curve"/>
      <point x="333" y="132" type="line"/>
      <point x="299" y="56"/>
      <point x="243" y="-12"/>
      <point x="171" y="-12" type="curve" smooth="yes"/>
      <point x="169" y="-12"/>
      <point x="167" y="-12"/>
      <point x="165" y="-12" type="curve" smooth="yes"/>
      <point x="125" y="-47"/>
      <point x="100" y="-84"/>
      <point x="100" y="-127" type="curve" smooth="yes"/>
      <point x="100" y="-163"/>
      <point x="127" y="-178"/>
      <point x="156" y="-178" type="curve" smooth="yes"/>
      <point x="176" y="-178"/>
      <point x="188" y="-175"/>
      <point x="207" y="-167" type="curve"/>
      <point x="214" y="-183" type="line"/>
      <point x="184" y="-212"/>
      <point x="150" y="-220"/>
      <point x="121" y="-220" type="curve" smooth="yes"/>
      <point x="40" y="-220"/>
      <point x="34" y="-165"/>
      <point x="34" y="-141" type="curve" smooth="yes"/>
      <point x="34" y="-88"/>
      <point x="78" y="-33"/>
      <point x="136" y="-3" type="curve"/>
      <point x="113" y="12"/>
      <point x="109" y="45"/>
    </contour>
    <contour>
      <point x="243" y="649" type="curve" smooth="yes"/>
      <point x="243" y="681"/>
      <point x="265" y="715"/>
      <point x="308" y="715" type="curve" smooth="yes"/>
      <point x="336" y="715"/>
      <point x="362" y="699"/>
      <point x="362" y="660" type="curve" smooth="yes"/>
      <point x="362" y="620"/>
      <point x="337" y="593"/>
      <point x="298" y="593" type="curve" smooth="yes"/>
      <point x="268" y="593"/>
      <point x="243" y="612"/>
    </contour>
  </outline>
</glyph>
<glyph name="Idotaccent" format="1">
  <advance width="345"/>
  <unicode hex="0130"/>
  <outline>
    <contour>
      <point x="300" y="787" type="curve" smooth="yes"/>
      <point x="300" y="823"/>
      <point x="326" y="848"/>
      <point x="359" y="848" type="curve" smooth="yes"/>
      <point x="389" y="848"/>
      <point x="407" y="824"/>
      <point x="407" y="799" type="curve" smooth="yes"/>
      <point x="407" y="765"/>
      <point x="384" y="738"/>
      <point x="349" y="738" type="curve" smooth="yes"/>
      <point x="317" y="738"/>
      <point x="300" y="758"/>
    </contour>
    <contour>
      <point x="40" y="0" type="line"/>
      <point x="46" y="29" type="line"/>
      <point x="101" y="35" type="line" smooth="yes"/>
      <point x="125" y="37"/>
      <point x="136" y="51"/>
      <point x="143" y="83" type="curve" smooth="yes"/>
      <point x="263" y="609" type="line" smooth="yes"/>
      <point x="270" y="639"/>
      <point x="264" y="657"/>
      <point x="241" y="659" type="curve" smooth="yes"/>
      <point x="182" y="663" type="line"/>
      <point x="189" y="692" type="line"/>
      <point x="463" y="692" type="line"/>
      <point x="456" y="663" type="line"/>
      <point x="401" y="658" type="line" smooth="yes"/>
      <point x="376" y="656"/>
      <point x="366" y="640"/>
      <point x="359" y="609" type="curve" smooth="yes"/>
      <point x="239" y="83" type="line" smooth="yes"/>
      <point x="232" y="52"/>
      <point x="237" y="35"/>
      <point x="261" y="33" type="curve" smooth="yes"/>
      <point x="320" y="29" type="line"/>
      <point x="314" y="0" type="line"/>
    </contour>
  </outline>
</glyph>
<glyph name="ij" format="1">
  <advance width="626"/>
  <unicode hex="0133"/>
  <outline>
    <contour>
      <point x="244" y="649" type="curve" smooth="yes"/>
      <point x="244" y="681"/>
      <point x="266" y="715"/>
      <point x="309" y="715" type="curve" smooth="yes"/>
      <point x="337" y="715"/>
      <point x="363" y="699"/>
      <point x="363" y="660" type="curve" smooth="yes"/>
      <point x="363" y="620"/>
      <point x="338" y="593"/>
      <point x="299" y="593" type="curve" smooth="yes"/>
      <point x="269" y="593"/>
      <point x="244" y="612"/>
    </contour>
    <contour>
      <point x="120" y="86" type="curve" smooth="yes"/>
      <point x="204" y="399" type="line" smooth="yes"/>
      <point x="213" y="434"/>
      <point x="210" y="443"/>
      <point x="183" y="445" type="curve" smooth="yes"/>
      <point x="126" y="450" type="line"/>
      <point x="132" y="474" type="line"/>
      <point x="314" y="502" type="line"/>
      <point x="319" y="497" type="line"/>
      <point x="210" y="95" type="line" smooth="yes"/>
      <point x="201" y="63"/>
      <point x="200" y="40"/>
      <point x="220" y="40" type="curve" smooth="yes"/>
      <point x="248" y="40"/>
      <point x="292" y="111"/>
      <point x="310" y="146" type="curve"/>
      <point x="334" y="132" type="line"/>
      <point x="300" y="56"/>
      <point x="244" y="-12"/>
      <point x="172" y="-12" type="curve" smooth="yes"/>
      <point x="118" y="-12"/>
      <point x="105" y="29"/>
    </contour>
    <contour>
      <point x="563" y="649" type="curve" smooth="yes"/>
      <point x="563" y="681"/>
      <point x="585" y="715"/>
      <point x="628" y="715" type="curve" smooth="yes"/>
      <point x="656" y="715"/>
      <point x="682" y="699"/>
      <point x="682" y="660" type="curve" smooth="yes"/>
      <point x="682" y="620"/>
      <point x="657" y="593"/>
      <point x="618" y="593" type="curve" smooth="yes"/>
      <point x="588" y="593"/>
      <point x="563" y="612"/>
    </contour>
    <contour>
      <point x="257" y="-184" type="curve" smooth="yes"/>
      <point x="257" y="-159"/>
      <point x="280" y="-134"/>
      <point x="302" y="-134" type="curve" smooth="yes"/>
      <point x="315" y="-134"/>
      <point x="322" y="-145"/>
      <point x="328" y="-154" type="curve" smooth="yes"/>
      <point x="355" y="-194"/>
      <point x="373" y="-207"/>
      <point x="385" y="-207" type="curve" smooth="yes"/>
      <point x="397" y="-207"/>
      <point x="404" y="-195"/>
      <point x="408" y="-176" type="curve" smooth="yes"/>
      <point x="530" y="395" type="line" smooth="yes"/>
      <point x="538" y="430"/>
      <point x="539" y="443"/>
      <point x="515" y="445" type="curve" smooth="yes"/>
      <point x="453" y="450" type="line"/>
      <point x="459" y="474" type="line"/>
      <point x="638" y="502" type="line"/>
      <point x="643" y="497" type="line"/>
      <point x="530" y="-3" type="line" smooth="yes"/>
      <point x="510" y="-92"/>
      <point x="487" y="-156"/>
      <point x="459" y="-192" type="curve" smooth="yes"/>
      <point x="431" y="-227"/>
      <point x="398" y="-242"/>
      <point x="352" y="-242" type="curve" smooth="yes"/>
      <point x="300" y="-242"/>
      <point x="258" y="-217"/>
    </contour>
  </outline>
</glyph>
<glyph name="Lcaron" format="1">
  <advance width="565"/>
  <unicode hex="013D"/>
  <outline>
    <contour>
      <point x="520" y="733" type="curve" smooth="yes"/>
      <point x="520" y="765"/>
      <point x="544" y="790"/>
      <point x="576" y="790" type="curve" smooth="yes"/>
      <point x="609" y="790"/>
      <point x="630" y="764"/>
      <point x="630" y="727" type="curve" smooth="yes"/>
      <point x="630" y="656"/>
      <point x="579" y="602"/>
      <point x="512" y="552" type="curve"/>
      <point x="497" y="569" type="line"/>
      <point x="530" y="600"/>
      <point x="548" y="646"/>
      <point x="548" y="666" type="curve" smooth="yes"/>
      <point x="548" y="695"/>
      <point x="520" y="704"/>
    </contour>
    <contour>
      <point x="40" y="0" type="line"/>
      <point x="46" y="29" type="line"/>
      <point x="101" y="35" type="line" smooth="yes"/>
      <point x="125" y="37"/>
      <point x="135" y="48"/>
      <point x="143" y="83" type="curve" smooth="yes"/>
      <point x="263" y="609" type="line" smooth="yes"/>
      <point x="271" y="642"/>
      <point x="264" y="656"/>
      <point x="241" y="658" type="curve" smooth="yes"/>
      <point x="182" y="663" type="line"/>
      <point x="189" y="692" type="line"/>
      <point x="468" y="692" type="line"/>
      <point x="461" y="663" type="line"/>
      <point x="401" y="659" type="line" smooth="yes"/>
      <point x="376" y="657"/>
      <point x="366" y="642"/>
      <point x="358" y="609" type="curve" smooth="yes"/>
      <point x="247" y="122" type="line" smooth="yes"/>
      <point x="236" y="75"/>
      <point x="237" y="60"/>
      <point x="252" y="48" type="curve" smooth="yes"/>
      <point x="265" y="38"/>
      <point x="315" y="35"/>
      <point x="364" y="35" type="curve" smooth="yes"/>
      <point x="477" y="35"/>
      <point x="522" y="53"/>
      <point x="573" y="176" type="curve"/>
      <point x="603" y="176" type="line"/>
      <point x="552" y="0" type="line"/>
    </contour>
  </outline>
</glyph>
<glyph name="lcaron" format="1">
  <advance width="326"/>
  <unicode hex="013E"/>
  <outline>
    <contour>
      <point x="401" y="733" type="curve" smooth="yes"/>
      <point x="401" y="765"/>
      <point x="425" y="790"/>
      <point x="457" y="790" type="curve" smooth="yes"/>
      <point x="490" y="790"/>
      <point x="511" y="764"/>
      <point x="511" y="727" type="curve" smooth="yes"/>
      <point x="511" y="656"/>
      <point x="460" y="602"/>
      <point x="393" y="552" type="curve"/>
      <point x="378" y="569" type="line"/>
      <point x="411" y="600"/>
      <point x="429" y="646"/>
      <point x="429" y="666" type="curve" smooth="yes"/>
      <point x="429" y="695"/>
      <point x="401" y="704"/>
    </contour>
    <contour>
      <point x="116" y="86" type="curve" smooth="yes"/>
      <point x="253" y="639" type="line" smooth="yes"/>
      <point x="263" y="678"/>
      <point x="258" y="685"/>
      <point x="233" y="688" type="curve" smooth="yes"/>
      <point x="176" y="695" type="line"/>
      <point x="182" y="718" type="line"/>
      <point x="361" y="742" type="line"/>
      <point x="366" y="737" type="line"/>
      <point x="205" y="94" type="line" smooth="yes"/>
      <point x="197" y="61"/>
      <point x="197" y="40"/>
      <point x="215" y="40" type="curve" smooth="yes"/>
      <point x="239" y="40"/>
      <point x="284" y="101"/>
      <point x="307" y="146" type="curve"/>
      <point x="331" y="132" type="line"/>
      <point x="299" y="57"/>
      <point x="238" y="-12"/>
      <point x="168" y="-12" type="curve" smooth="yes"/>
      <point x="114" y="-12"/>
      <point x="102" y="29"/>
    </contour>
  </outline>
</glyph>
<glyph name="Ldot" format="1">
  <advance width="565"/>
  <unicode hex="013F"/>
  <outline>
    <contour>
      <point x="40" y="0" type="line"/>
      <point x="46" y="29" type="line"/>
      <point x="101" y="35" type="line" smooth="yes"/>
      <point x="125" y="38"/>
      <point x="135" y="48"/>
      <point x="143" y="83" type="curve" smooth="yes"/>
      <point x="263" y="609" type="line" smooth="yes"/>
      <point x="271" y="642"/>
      <point x="264" y="656"/>
      <point x="241" y="658" type="curve" smooth="yes"/>
      <point x="182" y="663" type="line"/>
      <point x="189" y="692" type="line"/>
      <point x="468" y="692" type="line"/>
      <point x="461" y="663" type="line"/>
      <point x="401" y="659" type="line" smooth="yes"/>
      <point x="376" y="657"/>
      <point x="366" y="642"/>
      <point x="358" y="609" type="curve" smooth="yes"/>
      <point x="247" y="122" type="line" smooth="yes"/>
      <point x="236" y="75"/>
      <point x="237" y="60"/>
      <point x="252" y="48" type="curve" smooth="yes"/>
      <point x="265" y="38"/>
      <point x="315" y="35"/>
      <point x="364" y="35" type="curve" smooth="yes"/>
      <point x="477" y="35"/>
      <point x="522" y="53"/>
      <point x="573" y="176" type="curve"/>
      <point x="603" y="176" type="line"/>
      <point x="552" y="0" type="line"/>
    </contour>
    <contour>
      <point x="365" y="289" type="curve" smooth="yes"/>
      <point x="365" y="330"/>
      <point x="392" y="357"/>
      <point x="430" y="357" type="curve" smooth="yes"/>
      <point x="466" y="357"/>
      <point x="487" y="331"/>
      <point x="487" y="301" type="curve" smooth="yes"/>
      <point x="487" y="259"/>
      <point x="461" y="232"/>
      <point x="422" y="232" type="curve" smooth="yes"/>
      <point x="386" y="232"/>
      <point x="365" y="257"/>
    </contour>
  </outline>
</glyph>
<glyph name="ldot" format="1">
  <advance width="571"/>
  <unicode hex="0140"/>
  <outline>
    <contour>
      <point x="116" y="86" type="curve" smooth="yes"/>
      <point x="253" y="639" type="line" smooth="yes"/>
      <point x="263" y="678"/>
      <point x="258" y="685"/>
      <point x="233" y="688" type="curve" smooth="yes"/>
      <point x="176" y="695" type="line"/>
      <point x="182" y="718" type="line"/>
      <point x="361" y="742" type="line"/>
      <point x="366" y="737" type="line"/>
      <point x="205" y="94" type="line" smooth="yes"/>
      <point x="197" y="61"/>
      <point x="197" y="40"/>
      <point x="215" y="40" type="curve" smooth="yes"/>
      <point x="239" y="40"/>
      <point x="284" y="101"/>
      <point x="307" y="146" type="curve"/>
      <point x="331" y="132" type="line"/>
      <point x="299" y="57"/>
      <point x="238" y="-12"/>
      <point x="168" y="-12" type="curve" smooth="yes"/>
      <point x="114" y="-12"/>
      <point x="102" y="29"/>
    </contour>
    <contour>
      <point x="430" y="244" type="curve" smooth="yes"/>
      <point x="430" y="285"/>
      <point x="457" y="312"/>
      <point x="495" y="312" type="curve" smooth="yes"/>
      <point x="531" y="312"/>
      <point x="552" y="286"/>
      <point x="552" y="256" type="curve" smooth="yes"/>
      <point x="552" y="214"/>
      <point x="526" y="187"/>
      <point x="487" y="187" type="curve" smooth="yes"/>
      <point x="451" y="187"/>
      <point x="430" y="212"/>
    </contour>
  </outline>
</glyph>
<glyph name="Lslash" format="1">
  <advance width="571"/>
  <unicode hex="0141"/>
  <outline>
    <contour>
      <point x="46" y="0" type="line"/>
      <point x="52" y="29" type="line"/>
      <point x="107" y="35" type="line" smooth="yes"/>
      <point x="131" y="37"/>
      <point x="141" y="48"/>
      <point x="149" y="83" type="curve" smooth="yes"/>
      <point x="196" y="291" type="line"/>
      <point x="88" y="222" type="line"/>
      <point x="103" y="275" type="line"/>
      <point x="208" y="342" type="line"/>
      <point x="269" y="609" type="line" smooth="yes"/>
      <point x="277" y="642"/>
      <point x="270" y="656"/>
      <point x="247" y="658" type="curve" smooth="yes"/>
      <point x="188" y="663" type="line"/>
      <point x="195" y="692" type="line"/>
      <point x="474" y="692" type="line"/>
      <point x="467" y="663" type="line"/>
      <point x="407" y="659" type="line" smooth="yes"/>
      <point x="382" y="657"/>
      <point x="372" y="642"/>
      <point x="364" y="609" type="curve" smooth="yes"/>
      <point x="317" y="403" type="line"/>
      <point x="463" y="496" type="line"/>
      <point x="453" y="445" type="line"/>
      <point x="305" y="351" type="line"/>
      <point x="253" y="122" type="line" smooth="yes"/>
      <point x="242" y="75"/>
      <point x="243" y="60"/>
      <point x="258" y="48" type="curve" smooth="yes"/>
      <point x="271" y="38"/>
      <point x="321" y="35"/>
      <point x="370" y="35" type="curve" smooth="yes"/>
      <point x="483" y="35"/>
      <point x="528" y="53"/>
      <point x="579" y="176" type="curve"/>
      <point x="609" y="176" type="line"/>
      <point x="558" y="0" type="line"/>
    </contour>
  </outline>
</glyph>
<glyph name="lslash" format="1">
  <advance width="318"/>
  <unicode hex="0142"/>
  <outline>
    <contour>
      <point x="80" y="277" type="line"/>
      <point x="99" y="330" type="line"/>
      <point x="196" y="389" type="line"/>
      <point x="259" y="639" type="line" smooth="yes"/>
      <point x="269" y="678"/>
      <point x="264" y="685"/>
      <point x="239" y="688" type="curve" smooth="yes"/>
      <point x="182" y="695" type="line"/>
      <point x="188" y="718" type="line"/>
      <point x="367" y="742" type="line"/>
      <point x="372" y="737" type="line"/>
      <point x="299" y="443" type="line"/>
      <point x="411" y="511" type="line"/>
      <point x="396" y="458" type="line"/>
      <point x="286" y="392" type="line"/>
      <point x="211" y="94" type="line" smooth="yes"/>
      <point x="203" y="61"/>
      <point x="203" y="40"/>
      <point x="221" y="40" type="curve" smooth="yes"/>
      <point x="245" y="40"/>
      <point x="290" y="101"/>
      <point x="313" y="146" type="curve"/>
      <point x="337" y="132" type="line"/>
      <point x="305" y="57"/>
      <point x="244" y="-12"/>
      <point x="174" y="-12" type="curve" smooth="yes"/>
      <point x="120" y="-12"/>
      <point x="108" y="29"/>
      <point x="122" y="86" type="curve" smooth="yes"/>
      <point x="184" y="340" type="line"/>
    </contour>
  </outline>
</glyph>
<glyph name="Nacute" format="1">
  <advance width="763"/>
  <unicode hex="0143"/>
  <outline>
    <contour>
      <point x="494" y="764" type="line"/>
      <point x="639" y="863" type="line" smooth="yes"/>
      <point x="669" y="883"/>
      <point x="683" y="891"/>
      <point x="697" y="891" type="curve" smooth="yes"/>
      <point x="722" y="891"/>
      <point x="736" y="856"/>
      <point x="736" y="841" type="curve" smooth="yes"/>
      <point x="736" y="817"/>
      <point x="714" y="810"/>
      <point x="675" y="798" type="curve" smooth="yes"/>
      <point x="505" y="742" type="line"/>
    </contour>
    <contour>
      <point x="31" y="0" type="line"/>
      <point x="36" y="29" type="line"/>
      <point x="67" y="32" type="line" smooth="yes"/>
      <point x="97" y="35"/>
      <point x="114" y="43"/>
      <point x="126" y="75" type="curve" smooth="yes"/>
      <point x="138" y="108"/>
      <point x="149" y="146"/>
      <point x="161" y="199" type="curve" smooth="yes"/>
      <point x="255" y="609" type="line" smooth="yes"/>
      <point x="263" y="642"/>
      <point x="256" y="655"/>
      <point x="233" y="657" type="curve" smooth="yes"/>
      <point x="174" y="663" type="line"/>
      <point x="181" y="692" type="line"/>
      <point x="371" y="692" type="line"/>
      <point x="455" y="505"/>
      <point x="541" y="318"/>
      <point x="627" y="131" type="curve"/>
      <point x="631" y="131" type="line"/>
      <point x="713" y="493" type="line" smooth="yes"/>
      <point x="725" y="546"/>
      <point x="731" y="584"/>
      <point x="734" y="617" type="curve" smooth="yes"/>
      <point x="737" y="650"/>
      <point x="720" y="655"/>
      <point x="688" y="659" type="curve" smooth="yes"/>
      <point x="649" y="663" type="line"/>
      <point x="654" y="692" type="line"/>
      <point x="890" y="692" type="line"/>
      <point x="885" y="663" type="line"/>
      <point x="854" y="660" type="line" smooth="yes"/>
      <point x="824" y="657"/>
      <point x="807" y="649"/>
      <point x="795" y="617" type="curve" smooth="yes"/>
      <point x="783" y="584"/>
      <point x="772" y="546"/>
      <point x="760" y="493" type="curve" smooth="yes"/>
      <point x="648" y="0" type="line"/>
      <point x="583" y="0" type="line"/>
      <point x="491" y="203"/>
      <point x="399" y="406"/>
      <point x="305" y="609" type="curve"/>
      <point x="302" y="609" type="line"/>
      <point x="208" y="199" type="line" smooth="yes"/>
      <point x="196" y="146"/>
      <point x="190" y="108"/>
      <point x="187" y="75" type="curve" smooth="yes"/>
      <point x="184" y="44"/>
      <point x="201" y="35"/>
      <point x="233" y="32" type="curve" smooth="yes"/>
      <point x="272" y="29" type="line"/>
      <point x="267" y="0" type="line"/>
    </contour>
  </outline>
</glyph>
<glyph name="Ncaron" format="1">
  <advance width="763"/>
  <unicode hex="0147"/>
  <outline>
    <contour>
      <point x="427" y="869" type="line"/>
      <point x="445" y="888" type="line"/>
      <point x="535" y="828" type="line" smooth="yes"/>
      <point x="547" y="820"/>
      <point x="558" y="813"/>
      <point x="567" y="813" type="curve" smooth="yes"/>
      <point x="575" y="813"/>
      <point x="590" y="820"/>
      <point x="603" y="827" type="curve" smooth="yes"/>
      <point x="720" y="888" type="line"/>
      <point x="733" y="868" type="line"/>
      <point x="593" y="757" type="line" smooth="yes"/>
      <point x="575" y="742"/>
      <point x="564" y="734"/>
      <point x="551" y="734" type="curve" smooth="yes"/>
      <point x="539" y="734"/>
      <point x="529" y="745"/>
      <point x="518" y="759" type="curve" smooth="yes"/>
    </contour>
    <contour>
      <point x="31" y="0" type="line"/>
      <point x="36" y="29" type="line"/>
      <point x="67" y="32" type="line" smooth="yes"/>
      <point x="97" y="35"/>
      <point x="114" y="43"/>
      <point x="126" y="75" type="curve" smooth="yes"/>
      <point x="138" y="108"/>
      <point x="149" y="146"/>
      <point x="161" y="199" type="curve" smooth="yes"/>
      <point x="255" y="609" type="line" smooth="yes"/>
      <point x="263" y="642"/>
      <point x="256" y="655"/>
      <point x="233" y="657" type="curve" smooth="yes"/>
      <point x="174" y="663" type="line"/>
      <point x="181" y="692" type="line"/>
      <point x="371" y="692" type="line"/>
      <point x="455" y="505"/>
      <point x="541" y="318"/>
      <point x="627" y="131" type="curve"/>
      <point x="631" y="131" type="line"/>
      <point x="713" y="493" type="line" smooth="yes"/>
      <point x="725" y="546"/>
      <point x="731" y="584"/>
      <point x="734" y="617" type="curve" smooth="yes"/>
      <point x="737" y="650"/>
      <point x="720" y="655"/>
      <point x="688" y="659" type="curve" smooth="yes"/>
      <point x="649" y="663" type="line"/>
      <point x="654" y="692" type="line"/>
      <point x="890" y="692" type="line"/>
      <point x="885" y="663" type="line"/>
      <point x="854" y="660" type="line" smooth="yes"/>
      <point x="824" y="657"/>
      <point x="807" y="649"/>
      <point x="795" y="617" type="curve" smooth="yes"/>
      <point x="783" y="584"/>
      <point x="772" y="546"/>
      <point x="760" y="493" type="curve" smooth="yes"/>
      <point x="648" y="0" type="line"/>
      <point x="583" y="0" type="line"/>
      <point x="491" y="203"/>
      <point x="399" y="406"/>
      <point x="305" y="609" type="curve"/>
      <point x="302" y="609" type="line"/>
      <point x="208" y="199" type="line" smooth="yes"/>
      <point x="196" y="146"/>
      <point x="190" y="108"/>
      <point x="187" y="75" type="curve" smooth="yes"/>
      <point x="184" y="44"/>
      <point x="201" y="35"/>
      <point x="233" y="32" type="curve" smooth="yes"/>
      <point x="272" y="29" type="line"/>
      <point x="267" y="0" type="line"/>
    </contour>
  </outline>
</glyph>
<glyph name="Eng" format="1">
  <advance width="744"/>
  <unicode hex="014A"/>
  <outline>
    <contour>
      <point x="40" y="0" type="line"/>
      <point x="46" y="29" type="line"/>
      <point x="101" y="35" type="line" smooth="yes"/>
      <point x="125" y="37"/>
      <point x="135" y="49"/>
      <point x="143" y="83" type="curve" smooth="yes"/>
      <point x="263" y="609" type="line" smooth="yes"/>
      <point x="270" y="641"/>
      <point x="264" y="657"/>
      <point x="241" y="659" type="curve" smooth="yes"/>
      <point x="182" y="663" type="line"/>
      <point x="189" y="692" type="line"/>
      <point x="378" y="692" type="line"/>
      <point x="349" y="571" type="line"/>
      <point x="350" y="571" type="line"/>
      <point x="420" y="641"/>
      <point x="504" y="707"/>
      <point x="614" y="707" type="curve" smooth="yes"/>
      <point x="746" y="707"/>
      <point x="806" y="647"/>
      <point x="766" y="473" type="curve" smooth="yes"/>
      <point x="662" y="40" type="line" smooth="yes"/>
      <point x="614" y="-162"/>
      <point x="540" y="-242"/>
      <point x="428" y="-242" type="curve" smooth="yes"/>
      <point x="384" y="-242"/>
      <point x="271" y="-240"/>
      <point x="271" y="-159" type="curve" smooth="yes"/>
      <point x="271" y="-132"/>
      <point x="310" y="-112"/>
      <point x="334" y="-112" type="curve" smooth="yes"/>
      <point x="379" y="-112"/>
      <point x="358" y="-207"/>
      <point x="423" y="-207" type="curve" smooth="yes"/>
      <point x="501" y="-207"/>
      <point x="531" y="-114"/>
      <point x="559" y="10" type="curve" smooth="yes"/>
      <point x="676" y="503" type="line" smooth="yes"/>
      <point x="698" y="599"/>
      <point x="679" y="645"/>
      <point x="577" y="645" type="curve" smooth="yes"/>
      <point x="518" y="645"/>
      <point x="457" y="619"/>
      <point x="417" y="589" type="curve" smooth="yes"/>
      <point x="379" y="561"/>
      <point x="338" y="517"/>
      <point x="324" y="456" type="curve" smooth="yes"/>
      <point x="239" y="83" type="line" smooth="yes"/>
      <point x="231" y="50"/>
      <point x="237" y="35"/>
      <point x="261" y="33" type="curve" smooth="yes"/>
      <point x="323" y="29" type="line"/>
      <point x="317" y="0" type="line"/>
    </contour>
  </outline>
</glyph>
<glyph name="eng" format="1">
  <advance width="606"/>
  <unicode hex="014B"/>
  <outline>
    <contour>
      <point x="98" y="-12" type="line"/>
      <point x="203" y="397" type="line" smooth="yes"/>
      <point x="212" y="429"/>
      <point x="212" y="443"/>
      <point x="188" y="445" type="curve" smooth="yes"/>
      <point x="126" y="450" type="line"/>
      <point x="132" y="474" type="line"/>
      <point x="315" y="502" type="line"/>
      <point x="320" y="497" type="line"/>
      <point x="255" y="279" type="line"/>
      <point x="258" y="279" type="line"/>
      <point x="318" y="396"/>
      <point x="422" y="502"/>
      <point x="518" y="502" type="curve" smooth="yes"/>
      <point x="600" y="502"/>
      <point x="610" y="437"/>
      <point x="589" y="357" type="curve" smooth="yes"/>
      <point x="502" y="29" type="line" smooth="yes"/>
      <point x="452" y="-161"/>
      <point x="413" y="-242"/>
      <point x="309" y="-242" type="curve" smooth="yes"/>
      <point x="257" y="-242"/>
      <point x="219" y="-220"/>
      <point x="219" y="-184" type="curve" smooth="yes"/>
      <point x="219" y="-158"/>
      <point x="242" y="-134"/>
      <point x="264" y="-134" type="curve" smooth="yes"/>
      <point x="294" y="-134"/>
      <point x="312" y="-205"/>
      <point x="344" y="-205" type="curve" smooth="yes"/>
      <point x="358" y="-205"/>
      <point x="365" y="-197"/>
      <point x="370" y="-175" type="curve" smooth="yes"/>
      <point x="422" y="67" type="line"/>
      <point x="505" y="379" type="line" smooth="yes"/>
      <point x="515" y="418"/>
      <point x="507" y="450"/>
      <point x="472" y="450" type="curve" smooth="yes"/>
      <point x="391" y="450"/>
      <point x="295" y="304"/>
      <point x="258" y="218" type="curve" smooth="yes"/>
      <point x="232" y="156"/>
      <point x="215" y="102"/>
      <point x="186" y="0" type="curve"/>
    </contour>
  </outline>
</glyph>
<glyph name="OE" format="1">
  <advance width="1020"/>
  <unicode hex="0152"/>
  <outline>
    <contour>
      <point x="114" y="293" type="curve" smooth="yes"/>
      <point x="114" y="323"/>
      <point x="119" y="410"/>
      <point x="178" y="503" type="curve" smooth="yes"/>
      <point x="248" y="614"/>
      <point x="357" y="689"/>
      <point x="580" y="692" type="curve" smooth="yes"/>
      <point x="1116" y="692" type="line"/>
      <point x="1078" y="525" type="line"/>
      <point x="1048" y="525" type="line"/>
      <point x="1057" y="615"/>
      <point x="1060" y="657"/>
      <point x="934" y="657" type="curve" smooth="yes"/>
      <point x="813" y="657" type="line" smooth="yes"/>
      <point x="796" y="657"/>
      <point x="790" y="652"/>
      <point x="785" y="628" type="curve" smooth="yes"/>
      <point x="728" y="379" type="line"/>
      <point x="859" y="379" type="line" smooth="yes"/>
      <point x="947" y="379"/>
      <point x="958" y="395"/>
      <point x="984" y="464" type="curve"/>
      <point x="1014" y="464" type="line"/>
      <point x="968" y="255" type="line"/>
      <point x="938" y="255" type="line"/>
      <point x="942" y="320"/>
      <point x="939" y="341"/>
      <point x="851" y="341" type="curve" smooth="yes"/>
      <point x="720" y="341" type="line"/>
      <point x="669" y="122" type="line" smooth="yes"/>
      <point x="658" y="75"/>
      <point x="659" y="60"/>
      <point x="674" y="48" type="curve" smooth="yes"/>
      <point x="687" y="38"/>
      <point x="737" y="35"/>
      <point x="786" y="35" type="curve" smooth="yes"/>
      <point x="909" y="35"/>
      <point x="954" y="53"/>
      <point x="1005" y="176" type="curve"/>
      <point x="1035" y="176" type="line"/>
      <point x="984" y="0" type="line"/>
      <point x="472" y="0" type="line" smooth="yes"/>
      <point x="234" y="0"/>
      <point x="114" y="92"/>
    </contour>
    <contour>
      <point x="222" y="274" type="curve" smooth="yes"/>
      <point x="222" y="99"/>
      <point x="330" y="35"/>
      <point x="461" y="35" type="curve" smooth="yes"/>
      <point x="526" y="35"/>
      <point x="555" y="41"/>
      <point x="569" y="103" type="curve" smooth="yes"/>
      <point x="681" y="595" type="line" smooth="yes"/>
      <point x="693" y="646"/>
      <point x="683" y="657"/>
      <point x="583" y="657" type="curve" smooth="yes"/>
      <point x="329" y="657"/>
      <point x="222" y="454"/>
    </contour>
  </outline>
</glyph>
<glyph name="uni0157" format="1">
  <advance width="402"/>
  <unicode hex="0157"/>
  <outline>
    <contour>
      <point x="-1" y="-275" type="line"/>
      <point x="28" y="-247"/>
      <point x="54" y="-213"/>
      <point x="54" y="-184" type="curve" smooth="yes"/>
      <point x="54" y="-154"/>
      <point x="35" y="-144"/>
      <point x="35" y="-114" type="curve" smooth="yes"/>
      <point x="35" y="-92"/>
      <point x="53" y="-72"/>
      <point x="79" y="-72" type="curve" smooth="yes"/>
      <point x="114" y="-72"/>
      <point x="129" y="-98"/>
      <point x="129" y="-126" type="curve" smooth="yes"/>
      <point x="129" y="-196"/>
      <point x="65" y="-250"/>
      <point x="13" y="-289" type="curve"/>
    </contour>
    <contour>
      <point x="104" y="-12" type="line"/>
      <point x="196" y="397" type="line" smooth="yes"/>
      <point x="203" y="429"/>
      <point x="205" y="443"/>
      <point x="181" y="445" type="curve" smooth="yes"/>
      <point x="119" y="450" type="line"/>
      <point x="125" y="474" type="line"/>
      <point x="297" y="502" type="line"/>
      <point x="302" y="497" type="line"/>
      <point x="257" y="331" type="line"/>
      <point x="259" y="331" type="line"/>
      <point x="313" y="439"/>
      <point x="382" y="502"/>
      <point x="438" y="502" type="curve" smooth="yes"/>
      <point x="470" y="502"/>
      <point x="484" y="485"/>
      <point x="483" y="458" type="curve" smooth="yes"/>
      <point x="483" y="429"/>
      <point x="461" y="396"/>
      <point x="436" y="396" type="curve" smooth="yes"/>
      <point x="404" y="396"/>
      <point x="397" y="421"/>
      <point x="366" y="421" type="curve" smooth="yes"/>
      <point x="328" y="421"/>
      <point x="278" y="335"/>
      <point x="242" y="204" type="curve" smooth="yes"/>
      <point x="226" y="146"/>
      <point x="207" y="65"/>
      <point x="190" y="0" type="curve"/>
    </contour>
  </outline>
</glyph>
<glyph name="rcaron" format="1">
  <advance width="402"/>
  <unicode hex="0159"/>
  <outline>
    <contour>
      <point x="263" y="710" type="line"/>
      <point x="286" y="731" type="line"/>
      <point x="371" y="656" type="line" smooth="yes"/>
      <point x="381" y="648"/>
      <point x="390" y="641"/>
      <point x="399" y="641" type="curve" smooth="yes"/>
      <point x="406" y="641"/>
      <point x="419" y="648"/>
      <point x="431" y="656" type="curve" smooth="yes"/>
      <point x="546" y="731" type="line"/>
      <point x="560" y="710" type="line"/>
      <point x="422" y="581" type="line" smooth="yes"/>
      <point x="407" y="568"/>
      <point x="394" y="557"/>
      <point x="382" y="557" type="curve" smooth="yes"/>
      <point x="371" y="557"/>
      <point x="361" y="569"/>
      <point x="352" y="581" type="curve" smooth="yes"/>
    </contour>
    <contour>
      <point x="104" y="-12" type="line"/>
      <point x="196" y="397" type="line" smooth="yes"/>
      <point x="203" y="429"/>
      <point x="205" y="443"/>
      <point x="181" y="445" type="curve" smooth="yes"/>
      <point x="119" y="450" type="line"/>
      <point x="125" y="474" type="line"/>
      <point x="297" y="502" type="line"/>
      <point x="302" y="497" type="line"/>
      <point x="257" y="331" type="line"/>
      <point x="259" y="331" type="line"/>
      <point x="313" y="439"/>
      <point x="382" y="502"/>
      <point x="438" y="502" type="curve" smooth="yes"/>
      <point x="470" y="502"/>
      <point x="484" y="485"/>
      <point x="483" y="458" type="curve" smooth="yes"/>
      <point x="483" y="429"/>
      <point x="461" y="396"/>
      <point x="436" y="396" type="curve" smooth="yes"/>
      <point x="404" y="396"/>
      <point x="397" y="421"/>
      <point x="366" y="421" type="curve" smooth="yes"/>
      <point x="328" y="421"/>
      <point x="278" y="335"/>
      <point x="242" y="204" type="curve" smooth="yes"/>
      <point x="226" y="146"/>
      <point x="207" y="65"/>
      <point x="190" y="0" type="curve"/>
    </contour>
  </outline>
</glyph>
<glyph name="Scedilla" format="1">
  <advance width="533"/>
  <unicode hex="015E"/>
  <outline>
    <contour>
      <point x="154" y="-220" type="curve"/>
      <point x="158" y="-196" type="line"/>
      <point x="203" y="-202"/>
      <point x="256" y="-195"/>
      <point x="256" y="-147" type="curve" smooth="yes"/>
      <point x="256" y="-120"/>
      <point x="236" y="-97"/>
      <point x="201" y="-95" type="curve"/>
      <point x="198" y="-86" type="line"/>
      <point x="258" y="0" type="line"/>
      <point x="303" y="0" type="line"/>
      <point x="259" y="-60" type="line"/>
      <point x="305" y="-66"/>
      <point x="341" y="-107"/>
      <point x="331" y="-157" type="curve" smooth="yes"/>
      <point x="322" y="-203"/>
      <point x="273" y="-230"/>
      <point x="220" y="-230" type="curve" smooth="yes"/>
      <point x="195" y="-230"/>
      <point x="169" y="-226"/>
    </contour>
    <contour>
      <point x="69" y="67" type="curve"/>
      <point x="95" y="220" type="line"/>
      <point x="124" y="220" type="line"/>
      <point x="118" y="87"/>
      <point x="198" y="20"/>
      <point x="290" y="20" type="curve" smooth="yes"/>
      <point x="390" y="20"/>
      <point x="441" y="94"/>
      <point x="441" y="165" type="curve" smooth="yes"/>
      <point x="441" y="245"/>
      <point x="393" y="287"/>
      <point x="313" y="327" type="curve" smooth="yes"/>
      <point x="232" y="366"/>
      <point x="168" y="415"/>
      <point x="168" y="509" type="curve" smooth="yes"/>
      <point x="168" y="593"/>
      <point x="223" y="707"/>
      <point x="398" y="707" type="curve" smooth="yes"/>
      <point x="460" y="707"/>
      <point x="534" y="690"/>
      <point x="577" y="656" type="curve"/>
      <point x="541" y="516" type="line"/>
      <point x="512" y="516" type="line"/>
      <point x="524" y="619"/>
      <point x="487" y="672"/>
      <point x="391" y="672" type="curve" smooth="yes"/>
      <point x="304" y="672"/>
      <point x="252" y="616"/>
      <point x="252" y="545" type="curve" smooth="yes"/>
      <point x="252" y="469"/>
      <point x="323" y="435"/>
      <point x="381" y="405" type="curve" smooth="yes"/>
      <point x="482" y="353"/>
      <point x="531" y="296"/>
      <point x="531" y="206" type="curve" smooth="yes"/>
      <point x="531" y="99"/>
      <point x="472" y="-13"/>
      <point x="278" y="-15" type="curve" smooth="yes"/>
      <point x="205" y="-15"/>
      <point x="108" y="15"/>
    </contour>
  </outline>
</glyph>
<glyph name="uni0162" format="1">
  <advance width="606"/>
  <unicode hex="0162"/>
  <outline>
    <contour>
      <point x="178" y="-220" type="curve"/>
      <point x="182" y="-196" type="line"/>
      <point x="227" y="-202"/>
      <point x="280" y="-195"/>
      <point x="280" y="-147" type="curve" smooth="yes"/>
      <point x="280" y="-120"/>
      <point x="260" y="-97"/>
      <point x="225" y="-95" type="curve"/>
      <point x="222" y="-86" type="line"/>
      <point x="282" y="0" type="line"/>
      <point x="327" y="0" type="line"/>
      <point x="283" y="-60" type="line"/>
      <point x="329" y="-66"/>
      <point x="365" y="-107"/>
      <point x="355" y="-157" type="curve" smooth="yes"/>
      <point x="346" y="-203"/>
      <point x="297" y="-230"/>
      <point x="244" y="-230" type="curve" smooth="yes"/>
      <point x="219" y="-230"/>
      <point x="193" y="-226"/>
    </contour>
    <contour>
      <point x="137" y="525" type="line"/>
      <point x="175" y="692" type="line"/>
      <point x="743" y="692" type="line"/>
      <point x="705" y="525" type="line"/>
      <point x="675" y="525" type="line"/>
      <point x="684" y="615"/>
      <point x="685" y="657"/>
      <point x="561" y="657" type="curve" smooth="yes"/>
      <point x="498" y="657" type="line"/>
      <point x="368" y="81" type="line" smooth="yes"/>
      <point x="361" y="50"/>
      <point x="366" y="35"/>
      <point x="394" y="33" type="curve" smooth="yes"/>
      <point x="467" y="29" type="line"/>
      <point x="460" y="0" type="line"/>
      <point x="152" y="0" type="line"/>
      <point x="159" y="29" type="line"/>
      <point x="224" y="33" type="line" smooth="yes"/>
      <point x="254" y="35"/>
      <point x="265" y="50"/>
      <point x="272" y="81" type="curve" smooth="yes"/>
      <point x="402" y="657" type="line"/>
      <point x="333" y="657" type="line" smooth="yes"/>
      <point x="235" y="657"/>
      <point x="199" y="627"/>
      <point x="167" y="525" type="curve"/>
    </contour>
  </outline>
</glyph>
<glyph name="tcaron" format="1">
  <advance width="341"/>
  <unicode hex="0165"/>
  <outline>
    <contour>
      <point x="400" y="733" type="curve" smooth="yes"/>
      <point x="400" y="765"/>
      <point x="424" y="790"/>
      <point x="456" y="790" type="curve" smooth="yes"/>
      <point x="489" y="790"/>
      <point x="510" y="764"/>
      <point x="510" y="727" type="curve" smooth="yes"/>
      <point x="510" y="656"/>
      <point x="459" y="602"/>
      <point x="392" y="552" type="curve"/>
      <point x="377" y="569" type="line"/>
      <point x="410" y="600"/>
      <point x="428" y="646"/>
      <point x="428" y="666" type="curve" smooth="yes"/>
      <point x="428" y="695"/>
      <point x="400" y="704"/>
    </contour>
    <contour>
      <point x="125" y="86" type="curve" smooth="yes"/>
      <point x="215" y="452" type="line"/>
      <point x="132" y="452" type="line"/>
      <point x="143" y="490" type="line"/>
      <point x="224" y="490" type="line"/>
      <point x="237" y="539" type="line"/>
      <point x="334" y="616" type="line"/>
      <point x="346" y="609" type="line"/>
      <point x="312" y="490" type="line"/>
      <point x="439" y="490" type="line"/>
      <point x="428" y="452" type="line"/>
      <point x="303" y="452" type="line"/>
      <point x="214" y="88" type="line" smooth="yes"/>
      <point x="208" y="63"/>
      <point x="208" y="40"/>
      <point x="229" y="40" type="curve" smooth="yes"/>
      <point x="260" y="40"/>
      <point x="311" y="107"/>
      <point x="334" y="146" type="curve"/>
      <point x="356" y="129" type="line"/>
      <point x="316" y="54"/>
      <point x="252" y="-12"/>
      <point x="172" y="-12" type="curve" smooth="yes"/>
      <point x="122" y="-12"/>
      <point x="110" y="29"/>
    </contour>
  </outline>
</glyph>
<glyph name="Utilde" format="1">
  <advance width="794"/>
  <unicode hex="0168"/>
  <outline>
    <contour>
      <point x="177" y="256" type="curve" smooth="yes"/>
      <point x="261" y="609" type="line" smooth="yes"/>
      <point x="269" y="642"/>
      <point x="262" y="656"/>
      <point x="239" y="658" type="curve" smooth="yes"/>
      <point x="180" y="663" type="line"/>
      <point x="187" y="692" type="line"/>
      <point x="461" y="692" type="line"/>
      <point x="454" y="663" type="line"/>
      <point x="399" y="659" type="line" smooth="yes"/>
      <point x="374" y="657"/>
      <point x="365" y="643"/>
      <point x="357" y="609" type="curve" smooth="yes"/>
      <point x="278" y="269" type="line" smooth="yes"/>
      <point x="234" y="81"/>
      <point x="304" y="20"/>
      <point x="415" y="20" type="curve" smooth="yes"/>
      <point x="554" y="20"/>
      <point x="603" y="127"/>
      <point x="634" y="260" type="curve" smooth="yes"/>
      <point x="715" y="609" type="line" smooth="yes"/>
      <point x="723" y="642"/>
      <point x="716" y="656"/>
      <point x="693" y="658" type="curve" smooth="yes"/>
      <point x="634" y="663" type="line"/>
      <point x="641" y="692" type="line"/>
      <point x="915" y="692" type="line"/>
      <point x="908" y="663" type="line"/>
      <point x="853" y="658" type="line" smooth="yes"/>
      <point x="828" y="656"/>
      <point x="819" y="643"/>
      <point x="811" y="609" type="curve" smooth="yes"/>
      <point x="726" y="247" type="line" smooth="yes"/>
      <point x="671" y="14"/>
      <point x="546" y="-15"/>
      <point x="410" y="-15" type="curve" smooth="yes"/>
      <point x="238" y="-15"/>
      <point x="130" y="57"/>
    </contour>
    <contour>
      <point x="397" y="736" type="line"/>
      <point x="417" y="776"/>
      <point x="445" y="834"/>
      <point x="509" y="834" type="curve" smooth="yes"/>
      <point x="533" y="834"/>
      <point x="561" y="825"/>
      <point x="588" y="815" type="curve" smooth="yes"/>
      <point x="616" y="806"/>
      <point x="643" y="796"/>
      <point x="664" y="796" type="curve" smooth="yes"/>
      <point x="692" y="796"/>
      <point x="704" y="807"/>
      <point x="732" y="842" type="curve"/>
      <point x="752" y="831" type="line"/>
      <point x="723" y="774"/>
      <point x="697" y="736"/>
      <point x="648" y="736" type="curve" smooth="yes"/>
      <point x="626" y="736"/>
      <point x="597" y="746"/>
      <point x="568" y="755" type="curve" smooth="yes"/>
      <point x="539" y="765"/>
      <point x="510" y="774"/>
      <point x="488" y="774" type="curve" smooth="yes"/>
      <point x="455" y="774"/>
      <point x="438" y="758"/>
      <point x="416" y="723" type="curve"/>
    </contour>
  </outline>
</glyph>
<glyph name="Uring" format="1">
  <advance width="794"/>
  <unicode hex="016E"/>
  <outline>
    <contour>
      <point x="473" y="801" type="curve" smooth="yes"/>
      <point x="473" y="835"/>
      <point x="491" y="917"/>
      <point x="594" y="917" type="curve" smooth="yes"/>
      <point x="644" y="917"/>
      <point x="689" y="886"/>
      <point x="689" y="826" type="curve" smooth="yes"/>
      <point x="689" y="778"/>
      <point x="664" y="715"/>
      <point x="569" y="715" type="curve" smooth="yes"/>
      <point x="515" y="715"/>
      <point x="473" y="745"/>
    </contour>
    <contour>
      <point x="530" y="801" type="curve" smooth="yes"/>
      <point x="530" y="765"/>
      <point x="549" y="748"/>
      <point x="571" y="748" type="curve" smooth="yes"/>
      <point x="626" y="748"/>
      <point x="632" y="815"/>
      <point x="632" y="836" type="curve" smooth="yes"/>
      <point x="632" y="867"/>
      <point x="614" y="884"/>
      <point x="592" y="884" type="curve" smooth="yes"/>
      <point x="543" y="884"/>
      <point x="530" y="823"/>
    </contour>
    <contour>
      <point x="177" y="256" type="curve" smooth="yes"/>
      <point x="261" y="609" type="line" smooth="yes"/>
      <point x="269" y="642"/>
      <point x="262" y="656"/>
      <point x="239" y="658" type="curve" smooth="yes"/>
      <point x="180" y="663" type="line"/>
      <point x="187" y="692" type="line"/>
      <point x="461" y="692" type="line"/>
      <point x="454" y="663" type="line"/>
      <point x="399" y="659" type="line" smooth="yes"/>
      <point x="374" y="657"/>
      <point x="365" y="643"/>
      <point x="357" y="609" type="curve" smooth="yes"/>
      <point x="278" y="269" type="line" smooth="yes"/>
      <point x="234" y="81"/>
      <point x="304" y="20"/>
      <point x="415" y="20" type="curve" smooth="yes"/>
      <point x="554" y="20"/>
      <point x="603" y="127"/>
      <point x="634" y="260" type="curve" smooth="yes"/>
      <point x="715" y="609" type="line" smooth="yes"/>
      <point x="723" y="642"/>
      <point x="716" y="656"/>
      <point x="693" y="658" type="curve" smooth="yes"/>
      <point x="634" y="663" type="line"/>
      <point x="641" y="692" type="line"/>
      <point x="915" y="692" type="line"/>
      <point x="908" y="663" type="line"/>
      <point x="853" y="658" type="line" smooth="yes"/>
      <point x="828" y="656"/>
      <point x="819" y="643"/>
      <point x="811" y="609" type="curve" smooth="yes"/>
      <point x="726" y="247" type="line" smooth="yes"/>
      <point x="671" y="14"/>
      <point x="546" y="-15"/>
      <point x="410" y="-15" type="curve" smooth="yes"/>
      <point x="238" y="-15"/>
      <point x="130" y="57"/>
    </contour>
  </outline>
</glyph>
<glyph name="uring" format="1">
  <advance width="618"/>
  <unicode hex="016F"/>
  <outline>
    <contour>
      <point x="333" y="636" type="curve" smooth="yes"/>
      <point x="333" y="670"/>
      <point x="351" y="752"/>
      <point x="454" y="752" type="curve" smooth="yes"/>
      <point x="504" y="752"/>
      <point x="549" y="721"/>
      <point x="549" y="661" type="curve" smooth="yes"/>
      <point x="549" y="613"/>
      <point x="524" y="550"/>
      <point x="429" y="550" type="curve" smooth="yes"/>
      <point x="375" y="550"/>
      <point x="333" y="580"/>
    </contour>
    <contour>
      <point x="390" y="636" type="curve" smooth="yes"/>
      <point x="390" y="600"/>
      <point x="409" y="583"/>
      <point x="431" y="583" type="curve" smooth="yes"/>
      <point x="486" y="583"/>
      <point x="492" y="650"/>
      <point x="492" y="671" type="curve" smooth="yes"/>
      <point x="492" y="702"/>
      <point x="474" y="719"/>
      <point x="452" y="719" type="curve" smooth="yes"/>
      <point x="403" y="719"/>
      <point x="390" y="658"/>
    </contour>
    <contour>
      <point x="126" y="450" type="line"/>
      <point x="132" y="474" type="line"/>
      <point x="314" y="502" type="line"/>
      <point x="319" y="497" type="line"/>
      <point x="223" y="128" type="line" smooth="yes"/>
      <point x="208" y="70"/>
      <point x="216" y="40"/>
      <point x="248" y="40" type="curve" smooth="yes"/>
      <point x="331" y="40"/>
      <point x="418" y="173"/>
      <point x="462" y="274" type="curve" smooth="yes"/>
      <point x="488" y="335"/>
      <point x="504" y="388"/>
      <point x="533" y="490" type="curve"/>
      <point x="622" y="502" type="line"/>
      <point x="515" y="94" type="line" smooth="yes"/>
      <point x="507" y="63"/>
      <point x="507" y="40"/>
      <point x="528" y="40" type="curve" smooth="yes"/>
      <point x="556" y="40"/>
      <point x="600" y="112"/>
      <point x="620" y="146" type="curve"/>
      <point x="644" y="131" type="line"/>
      <point x="609" y="57"/>
      <point x="549" y="-12"/>
      <point x="477" y="-12" type="curve" smooth="yes"/>
      <point x="424" y="-12"/>
      <point x="412" y="29"/>
      <point x="431" y="96" type="curve" smooth="yes"/>
      <point x="464" y="210" type="line"/>
      <point x="462" y="210" type="line"/>
      <point x="402" y="94"/>
      <point x="297" y="-12"/>
      <point x="201" y="-12" type="curve" smooth="yes"/>
      <point x="121" y="-12"/>
      <point x="113" y="53"/>
      <point x="134" y="133" type="curve" smooth="yes"/>
      <point x="203" y="397" type="line" smooth="yes"/>
      <point x="211" y="428"/>
      <point x="212" y="443"/>
      <point x="188" y="445" type="curve" smooth="yes"/>
    </contour>
  </outline>
</glyph>
<glyph name="Zacute" format="1">
  <advance width="622"/>
  <unicode hex="0179"/>
  <outline>
    <contour>
      <point x="420" y="764" type="line"/>
      <point x="565" y="863" type="line" smooth="yes"/>
      <point x="595" y="883"/>
      <point x="609" y="891"/>
      <point x="623" y="891" type="curve" smooth="yes"/>
      <point x="648" y="891"/>
      <point x="662" y="856"/>
      <point x="662" y="841" type="curve" smooth="yes"/>
      <point x="662" y="817"/>
      <point x="640" y="810"/>
      <point x="601" y="798" type="curve" smooth="yes"/>
      <point x="431" y="742" type="line"/>
    </contour>
    <contour>
      <point x="15" y="13" type="line"/>
      <point x="212" y="229"/>
      <point x="408" y="446"/>
      <point x="598" y="657" type="curve"/>
      <point x="403" y="657" type="line" smooth="yes"/>
      <point x="292" y="657"/>
      <point x="259" y="639"/>
      <point x="218" y="523" type="curve"/>
      <point x="188" y="523" type="line"/>
      <point x="225" y="692" type="line"/>
      <point x="733" y="692" type="line"/>
      <point x="738" y="679" type="line"/>
      <point x="541" y="463"/>
      <point x="344" y="246"/>
      <point x="154" y="35" type="curve"/>
      <point x="357" y="35" type="line" smooth="yes"/>
      <point x="515" y="35"/>
      <point x="558" y="53"/>
      <point x="611" y="176" type="curve"/>
      <point x="641" y="176" type="line"/>
      <point x="590" y="0" type="line"/>
      <point x="19" y="0" type="line"/>
    </contour>
  </outline>
</glyph>
<glyph name="uni0190" format="1">
  <advance width="575"/>
  <unicode hex="0190"/>
  <outline>
    <contour>
      <point x="80" y="154" type="curve" smooth="yes"/>
      <point x="80" y="264"/>
      <point x="183" y="344"/>
      <point x="296" y="369" type="curve"/>
      <point x="296" y="371" type="line"/>
      <point x="219" y="386"/>
      <point x="170" y="435"/>
      <point x="170" y="508" type="curve" smooth="yes"/>
      <point x="170" y="630"/>
      <point x="299" y="707"/>
      <point x="442" y="707" type="curve" smooth="yes"/>
      <point x="520" y="707"/>
      <point x="610" y="688"/>
      <point x="650" y="660" type="curve"/>
      <point x="620" y="496" type="line"/>
      <point x="590" y="496" type="line"/>
      <point x="590" y="651"/>
      <point x="539" y="673"/>
      <point x="437" y="673" type="curve" smooth="yes"/>
      <point x="349" y="673"/>
      <point x="273" y="603"/>
      <point x="273" y="518" type="curve" smooth="yes"/>
      <point x="273" y="410"/>
      <point x="351" y="387"/>
      <point x="423" y="387" type="curve" smooth="yes"/>
      <point x="489" y="387" type="line"/>
      <point x="481" y="349" type="line"/>
      <point x="418" y="349" type="line" smooth="yes"/>
      <point x="311" y="349"/>
      <point x="188" y="262"/>
      <point x="188" y="149" type="curve" smooth="yes"/>
      <point x="188" y="80"/>
      <point x="231" y="20"/>
      <point x="324" y="20" type="curve" smooth="yes"/>
      <point x="467" y="20"/>
      <point x="507" y="80"/>
      <point x="561" y="189" type="curve"/>
      <point x="592" y="189" type="line"/>
      <point x="545" y="29" type="line"/>
      <point x="486" y="6"/>
      <point x="421" y="-15"/>
      <point x="330" y="-15" type="curve" smooth="yes"/>
      <point x="149" y="-15"/>
      <point x="80" y="54"/>
    </contour>
  </outline>
</glyph>
<glyph name="uni0191" format="1">
  <advance width="571"/>
  <unicode hex="0191"/>
  <outline>
    <contour>
      <point x="-158" y="-159" type="curve" smooth="yes"/>
      <point x="-158" y="-132"/>
      <point x="-119" y="-112"/>
      <point x="-95" y="-112" type="curve" smooth="yes"/>
      <point x="-50" y="-112"/>
      <point x="-71" y="-207"/>
      <point x="-9" y="-207" type="curve" smooth="yes"/>
      <point x="66" y="-207"/>
      <point x="96" y="-114"/>
      <point x="124" y="10" type="curve" smooth="yes"/>
      <point x="261" y="612" type="line" smooth="yes"/>
      <point x="268" y="641"/>
      <point x="262" y="655"/>
      <point x="239" y="657" type="curve" smooth="yes"/>
      <point x="180" y="663" type="line"/>
      <point x="186" y="692" type="line"/>
      <point x="695" y="692" type="line"/>
      <point x="657" y="527" type="line"/>
      <point x="627" y="527" type="line"/>
      <point x="636" y="615"/>
      <point x="639" y="657"/>
      <point x="513" y="657" type="curve" smooth="yes"/>
      <point x="390" y="657" type="line" smooth="yes"/>
      <point x="372" y="657"/>
      <point x="367" y="652"/>
      <point x="361" y="627" type="curve" smooth="yes"/>
      <point x="301" y="365" type="line"/>
      <point x="433" y="365" type="line" smooth="yes"/>
      <point x="521" y="365"/>
      <point x="532" y="381"/>
      <point x="558" y="451" type="curve"/>
      <point x="588" y="451" type="line"/>
      <point x="542" y="241" type="line"/>
      <point x="512" y="241" type="line"/>
      <point x="516" y="306"/>
      <point x="513" y="327"/>
      <point x="425" y="327" type="curve" smooth="yes"/>
      <point x="293" y="327" type="line"/>
      <point x="227" y="40" type="line" smooth="yes"/>
      <point x="180" y="-162"/>
      <point x="105" y="-242"/>
      <point x="-4" y="-242" type="curve" smooth="yes"/>
      <point x="-45" y="-242"/>
      <point x="-158" y="-240"/>
    </contour>
  </outline>
</glyph>
<glyph name="uni0196" format="1">
  <advance width="412"/>
  <unicode hex="0196"/>
  <outline>
    <contour>
      <point x="180" y="663" type="line"/>
      <point x="187" y="692" type="line"/>
      <point x="376" y="692" type="line"/>
      <point x="260" y="187" type="line" smooth="yes"/>
      <point x="236" y="81"/>
      <point x="241" y="39"/>
      <point x="296" y="39" type="curve" smooth="yes"/>
      <point x="321" y="39"/>
      <point x="355" y="50"/>
      <point x="403" y="81" type="curve"/>
      <point x="416" y="58" type="line"/>
      <point x="350" y="4"/>
      <point x="321" y="-15"/>
      <point x="253" y="-15" type="curve" smooth="yes"/>
      <point x="180" y="-15"/>
      <point x="124" y="31"/>
      <point x="164" y="201" type="curve" smooth="yes"/>
      <point x="261" y="609" type="line" smooth="yes"/>
      <point x="269" y="642"/>
      <point x="262" y="656"/>
      <point x="239" y="658" type="curve" smooth="yes"/>
    </contour>
  </outline>
</glyph>
<glyph name="uni0197" format="1">
  <advance width="357"/>
  <unicode hex="0197"/>
  <outline>
    <contour>
      <point x="46" y="0" type="line"/>
      <point x="52" y="29" type="line"/>
      <point x="107" y="35" type="line" smooth="yes"/>
      <point x="131" y="37"/>
      <point x="142" y="51"/>
      <point x="149" y="83" type="curve" smooth="yes"/>
      <point x="208" y="341" type="line"/>
      <point x="113" y="341" type="line"/>
      <point x="121" y="379" type="line"/>
      <point x="217" y="379" type="line"/>
      <point x="269" y="609" type="line" smooth="yes"/>
      <point x="276" y="639"/>
      <point x="270" y="657"/>
      <point x="247" y="659" type="curve" smooth="yes"/>
      <point x="188" y="663" type="line"/>
      <point x="195" y="692" type="line"/>
      <point x="469" y="692" type="line"/>
      <point x="462" y="663" type="line"/>
      <point x="407" y="658" type="line" smooth="yes"/>
      <point x="382" y="656"/>
      <point x="372" y="640"/>
      <point x="365" y="609" type="curve" smooth="yes"/>
      <point x="313" y="379" type="line"/>
      <point x="407" y="379" type="line"/>
      <point x="399" y="341" type="line"/>
      <point x="304" y="341" type="line"/>
      <point x="245" y="83" type="line" smooth="yes"/>
      <point x="238" y="52"/>
      <point x="243" y="35"/>
      <point x="267" y="33" type="curve" smooth="yes"/>
      <point x="326" y="29" type="line"/>
      <point x="320" y="0" type="line"/>
    </contour>
  </outline>
</glyph>
<glyph name="uni01A9" format="1">
  <advance width="569"/>
  <unicode hex="01A9"/>
  <outline>
    <contour>
      <point x="20" y="13" type="line"/>
      <point x="327" y="349" type="line"/>
      <point x="180" y="680" type="line"/>
      <point x="187" y="692" type="line"/>
      <point x="668" y="692" type="line"/>
      <point x="631" y="524" type="line"/>
      <point x="601" y="524" type="line"/>
      <point x="610" y="634"/>
      <point x="595" y="657"/>
      <point x="477" y="657" type="curve" smooth="yes"/>
      <point x="289" y="657" type="line"/>
      <point x="289" y="655" type="line"/>
      <point x="411" y="382" type="line"/>
      <point x="135" y="78" type="line"/>
      <point x="135" y="76" type="line"/>
      <point x="364" y="76" type="line" smooth="yes"/>
      <point x="475" y="76"/>
      <point x="514" y="92"/>
      <point x="557" y="191" type="curve"/>
      <point x="587" y="191" type="line"/>
      <point x="531" y="0" type="line"/>
      <point x="25" y="0" type="line"/>
    </contour>
  </outline>
</glyph>
<glyph name="uni01C8" format="1">
  <advance width="874"/>
  <unicode hex="01C8"/>
  <outline>
    <contour>
      <point x="811" y="649" type="curve" smooth="yes"/>
      <point x="811" y="681"/>
      <point x="833" y="715"/>
      <point x="876" y="715" type="curve" smooth="yes"/>
      <point x="904" y="715"/>
      <point x="930" y="699"/>
      <point x="930" y="660" type="curve" smooth="yes"/>
      <point x="930" y="620"/>
      <point x="905" y="593"/>
      <point x="866" y="593" type="curve" smooth="yes"/>
      <point x="836" y="593"/>
      <point x="811" y="612"/>
    </contour>
    <contour>
      <point x="505" y="-184" type="curve" smooth="yes"/>
      <point x="505" y="-159"/>
      <point x="528" y="-134"/>
      <point x="550" y="-134" type="curve" smooth="yes"/>
      <point x="563" y="-134"/>
      <point x="570" y="-145"/>
      <point x="576" y="-154" type="curve" smooth="yes"/>
      <point x="603" y="-194"/>
      <point x="621" y="-207"/>
      <point x="633" y="-207" type="curve" smooth="yes"/>
      <point x="645" y="-207"/>
      <point x="652" y="-195"/>
      <point x="656" y="-176" type="curve" smooth="yes"/>
      <point x="778" y="395" type="line" smooth="yes"/>
      <point x="786" y="430"/>
      <point x="787" y="443"/>
      <point x="763" y="445" type="curve" smooth="yes"/>
      <point x="701" y="450" type="line"/>
      <point x="707" y="474" type="line"/>
      <point x="886" y="502" type="line"/>
      <point x="891" y="497" type="line"/>
      <point x="778" y="-3" type="line" smooth="yes"/>
      <point x="758" y="-92"/>
      <point x="735" y="-156"/>
      <point x="707" y="-192" type="curve" smooth="yes"/>
      <point x="679" y="-227"/>
      <point x="646" y="-242"/>
      <point x="600" y="-242" type="curve" smooth="yes"/>
      <point x="548" y="-242"/>
      <point x="506" y="-217"/>
    </contour>
    <contour>
      <point x="40" y="0" type="line"/>
      <point x="46" y="29" type="line"/>
      <point x="101" y="35" type="line" smooth="yes"/>
      <point x="125" y="37"/>
      <point x="135" y="48"/>
      <point x="143" y="83" type="curve" smooth="yes"/>
      <point x="263" y="609" type="line" smooth="yes"/>
      <point x="271" y="642"/>
      <point x="264" y="656"/>
      <point x="241" y="658" type="curve" smooth="yes"/>
      <point x="182" y="663" type="line"/>
      <point x="189" y="692" type="line"/>
      <point x="468" y="692" type="line"/>
      <point x="461" y="663" type="line"/>
      <point x="401" y="659" type="line" smooth="yes"/>
      <point x="376" y="657"/>
      <point x="366" y="642"/>
      <point x="358" y="609" type="curve" smooth="yes"/>
      <point x="247" y="122" type="line" smooth="yes"/>
      <point x="236" y="75"/>
      <point x="237" y="60"/>
      <point x="252" y="48" type="curve" smooth="yes"/>
      <point x="265" y="38"/>
      <point x="315" y="35"/>
      <point x="364" y="35" type="curve" smooth="yes"/>
      <point x="477" y="35"/>
      <point x="522" y="53"/>
      <point x="573" y="176" type="curve"/>
      <point x="603" y="176" type="line"/>
      <point x="552" y="0" type="line"/>
    </contour>
  </outline>
</glyph>
<glyph name="uni01CB" format="1">
  <advance width="1072"/>
  <unicode hex="01CB"/>
  <outline>
    <contour>
      <point x="1009" y="649" type="curve" smooth="yes"/>
      <point x="1009" y="681"/>
      <point x="1031" y="715"/>
      <point x="1074" y="715" type="curve" smooth="yes"/>
      <point x="1102" y="715"/>
      <point x="1128" y="699"/>
      <point x="1128" y="660" type="curve" smooth="yes"/>
      <point x="1128" y="620"/>
      <point x="1103" y="593"/>
      <point x="1064" y="593" type="curve" smooth="yes"/>
      <point x="1034" y="593"/>
      <point x="1009" y="612"/>
    </contour>
    <contour>
      <point x="703" y="-184" type="curve" smooth="yes"/>
      <point x="703" y="-159"/>
      <point x="726" y="-134"/>
      <point x="748" y="-134" type="curve" smooth="yes"/>
      <point x="761" y="-134"/>
      <point x="768" y="-145"/>
      <point x="774" y="-154" type="curve" smooth="yes"/>
      <point x="801" y="-194"/>
      <point x="819" y="-207"/>
      <point x="831" y="-207" type="curve" smooth="yes"/>
      <point x="843" y="-207"/>
      <point x="850" y="-195"/>
      <point x="854" y="-176" type="curve" smooth="yes"/>
      <point x="976" y="395" type="line" smooth="yes"/>
      <point x="984" y="430"/>
      <point x="985" y="443"/>
      <point x="961" y="445" type="curve" smooth="yes"/>
      <point x="899" y="450" type="line"/>
      <point x="905" y="474" type="line"/>
      <point x="1084" y="502" type="line"/>
      <point x="1089" y="497" type="line"/>
      <point x="976" y="-3" type="line" smooth="yes"/>
      <point x="956" y="-92"/>
      <point x="933" y="-156"/>
      <point x="905" y="-192" type="curve" smooth="yes"/>
      <point x="877" y="-227"/>
      <point x="844" y="-242"/>
      <point x="798" y="-242" type="curve" smooth="yes"/>
      <point x="746" y="-242"/>
      <point x="704" y="-217"/>
    </contour>
    <contour>
      <point x="31" y="0" type="line"/>
      <point x="36" y="29" type="line"/>
      <point x="67" y="32" type="line" smooth="yes"/>
      <point x="97" y="35"/>
      <point x="114" y="43"/>
      <point x="126" y="75" type="curve" smooth="yes"/>
      <point x="138" y="108"/>
      <point x="149" y="146"/>
      <point x="161" y="199" type="curve" smooth="yes"/>
      <point x="255" y="609" type="line" smooth="yes"/>
      <point x="263" y="642"/>
      <point x="256" y="655"/>
      <point x="233" y="657" type="curve" smooth="yes"/>
      <point x="174" y="663" type="line"/>
      <point x="181" y="692" type="line"/>
      <point x="371" y="692" type="line"/>
      <point x="455" y="505"/>
      <point x="541" y="318"/>
      <point x="627" y="131" type="curve"/>
      <point x="631" y="131" type="line"/>
      <point x="713" y="493" type="line" smooth="yes"/>
      <point x="725" y="546"/>
      <point x="731" y="584"/>
      <point x="734" y="617" type="curve" smooth="yes"/>
      <point x="737" y="650"/>
      <point x="720" y="655"/>
      <point x="688" y="659" type="curve" smooth="yes"/>
      <point x="649" y="663" type="line"/>
      <point x="654" y="692" type="line"/>
      <point x="890" y="692" type="line"/>
      <point x="885" y="663" type="line"/>
      <point x="854" y="660" type="line" smooth="yes"/>
      <point x="824" y="657"/>
      <point x="807" y="649"/>
      <point x="795" y="617" type="curve" smooth="yes"/>
      <point x="783" y="584"/>
      <point x="772" y="546"/>
      <point x="760" y="493" type="curve" smooth="yes"/>
      <point x="648" y="0" type="line"/>
      <point x="583" y="0" type="line"/>
      <point x="491" y="203"/>
      <point x="399" y="406"/>
      <point x="305" y="609" type="curve"/>
      <point x="302" y="609" type="line"/>
      <point x="208" y="199" type="line" smooth="yes"/>
      <point x="196" y="146"/>
      <point x="190" y="108"/>
      <point x="187" y="75" type="curve" smooth="yes"/>
      <point x="184" y="44"/>
      <point x="201" y="35"/>
      <point x="233" y="32" type="curve" smooth="yes"/>
      <point x="272" y="29" type="line"/>
      <point x="267" y="0" type="line"/>
    </contour>
  </outline>
</glyph>
<glyph name="uni01CC" format="1">
  <advance width="927"/>
  <unicode hex="01CC"/>
  <outline>
    <contour>
      <point x="864" y="649" type="curve" smooth="yes"/>
      <point x="864" y="681"/>
      <point x="886" y="715"/>
      <point x="929" y="715" type="curve" smooth="yes"/>
      <point x="957" y="715"/>
      <point x="983" y="699"/>
      <point x="983" y="660" type="curve" smooth="yes"/>
      <point x="983" y="620"/>
      <point x="958" y="593"/>
      <point x="919" y="593" type="curve" smooth="yes"/>
      <point x="889" y="593"/>
      <point x="864" y="612"/>
    </contour>
    <contour>
      <point x="558" y="-184" type="curve" smooth="yes"/>
      <point x="558" y="-159"/>
      <point x="581" y="-134"/>
      <point x="603" y="-134" type="curve" smooth="yes"/>
      <point x="616" y="-134"/>
      <point x="623" y="-145"/>
      <point x="629" y="-154" type="curve" smooth="yes"/>
      <point x="656" y="-194"/>
      <point x="674" y="-207"/>
      <point x="686" y="-207" type="curve" smooth="yes"/>
      <point x="698" y="-207"/>
      <point x="705" y="-195"/>
      <point x="709" y="-176" type="curve" smooth="yes"/>
      <point x="831" y="395" type="line" smooth="yes"/>
      <point x="839" y="430"/>
      <point x="840" y="443"/>
      <point x="816" y="445" type="curve" smooth="yes"/>
      <point x="754" y="450" type="line"/>
      <point x="760" y="474" type="line"/>
      <point x="939" y="502" type="line"/>
      <point x="944" y="497" type="line"/>
      <point x="831" y="-3" type="line" smooth="yes"/>
      <point x="811" y="-92"/>
      <point x="788" y="-156"/>
      <point x="760" y="-192" type="curve" smooth="yes"/>
      <point x="732" y="-227"/>
      <point x="699" y="-242"/>
      <point x="653" y="-242" type="curve" smooth="yes"/>
      <point x="601" y="-242"/>
      <point x="559" y="-217"/>
    </contour>
    <contour>
      <point x="98" y="-12" type="line"/>
      <point x="203" y="397" type="line" smooth="yes"/>
      <point x="212" y="429"/>
      <point x="212" y="443"/>
      <point x="188" y="445" type="curve" smooth="yes"/>
      <point x="126" y="450" type="line"/>
      <point x="132" y="474" type="line"/>
      <point x="315" y="502" type="line"/>
      <point x="320" y="497" type="line"/>
      <point x="255" y="279" type="line"/>
      <point x="258" y="279" type="line"/>
      <point x="318" y="396"/>
      <point x="422" y="502"/>
      <point x="518" y="502" type="curve" smooth="yes"/>
      <point x="600" y="502"/>
      <point x="612" y="436"/>
      <point x="589" y="357" type="curve" smooth="yes"/>
      <point x="511" y="95" type="line" smooth="yes"/>
      <point x="502" y="63"/>
      <point x="501" y="40"/>
      <point x="521" y="40" type="curve" smooth="yes"/>
      <point x="549" y="40"/>
      <point x="593" y="111"/>
      <point x="611" y="146" type="curve"/>
      <point x="635" y="132" type="line"/>
      <point x="601" y="56"/>
      <point x="545" y="-12"/>
      <point x="470" y="-12" type="curve" smooth="yes"/>
      <point x="416" y="-12"/>
      <point x="403" y="30"/>
      <point x="419" y="86" type="curve" smooth="yes"/>
      <point x="505" y="379" type="line" smooth="yes"/>
      <point x="516" y="418"/>
      <point x="507" y="450"/>
      <point x="472" y="450" type="curve" smooth="yes"/>
      <point x="391" y="450"/>
      <point x="295" y="304"/>
      <point x="258" y="218" type="curve" smooth="yes"/>
      <point x="232" y="156"/>
      <point x="215" y="102"/>
      <point x="186" y="0" type="curve"/>
    </contour>
  </outline>
</glyph>
<glyph name="uni01CE" format="1">
  <advance width="561"/>
  <unicode hex="01CE"/>
  <outline>
    <contour>
      <point x="311" y="710" type="line"/>
      <point x="334" y="731" type="line"/>
      <point x="419" y="656" type="line" smooth="yes"/>
      <point x="429" y="648"/>
      <point x="438" y="641"/>
      <point x="447" y="641" type="curve" smooth="yes"/>
      <point x="454" y="641"/>
      <point x="467" y="648"/>
      <point x="479" y="656" type="curve" smooth="yes"/>
      <point x="594" y="731" type="line"/>
      <point x="608" y="710" type="line"/>
      <point x="470" y="581" type="line" smooth="yes"/>
      <point x="455" y="568"/>
      <point x="442" y="557"/>
      <point x="430" y="557" type="curve" smooth="yes"/>
      <point x="419" y="557"/>
      <point x="409" y="569"/>
      <point x="400" y="581" type="curve" smooth="yes"/>
    </contour>
    <contour>
      <point x="66" y="107" type="curve" smooth="yes"/>
      <point x="66" y="239"/>
      <point x="180" y="502"/>
      <point x="418" y="502" type="curve" smooth="yes"/>
      <point x="445" y="502"/>
      <point x="474" y="493"/>
      <point x="491" y="481" type="curve"/>
      <point x="496" y="494" type="line"/>
      <point x="580" y="494" type="line"/>
      <point x="474" y="95" type="line" smooth="yes"/>
      <point x="465" y="63"/>
      <point x="464" y="40"/>
      <point x="484" y="40" type="curve" smooth="yes"/>
      <point x="512" y="40"/>
      <point x="556" y="111"/>
      <point x="574" y="146" type="curve"/>
      <point x="598" y="132" type="line"/>
      <point x="564" y="56"/>
      <point x="508" y="-12"/>
      <point x="432" y="-12" type="curve" smooth="yes"/>
      <point x="378" y="-12"/>
      <point x="367" y="29"/>
      <point x="388" y="100" type="curve" smooth="yes"/>
      <point x="422" y="214" type="line"/>
      <point x="420" y="214" type="line"/>
      <point x="362" y="112"/>
      <point x="269" y="-12"/>
      <point x="162" y="-12" type="curve" smooth="yes"/>
      <point x="94" y="-12"/>
      <point x="66" y="47"/>
    </contour>
    <contour>
      <point x="165" y="110" type="curve" smooth="yes"/>
      <point x="165" y="71"/>
      <point x="176" y="40"/>
      <point x="209" y="40" type="curve" smooth="yes"/>
      <point x="257" y="40"/>
      <point x="318" y="107"/>
      <point x="374" y="192" type="curve" smooth="yes"/>
      <point x="427" y="272"/>
      <point x="463" y="371"/>
      <point x="481" y="445" type="curve"/>
      <point x="466" y="459"/>
      <point x="444" y="467"/>
      <point x="420" y="467" type="curve" smooth="yes"/>
      <point x="263" y="467"/>
      <point x="165" y="220"/>
    </contour>
  </outline>
</glyph>
<glyph name="uni01D0" format="1">
  <advance width="317"/>
  <unicode hex="01D0"/>
  <outline>
    <contour>
      <point x="159" y="710" type="line"/>
      <point x="182" y="731" type="line"/>
      <point x="267" y="656" type="line" smooth="yes"/>
      <point x="277" y="648"/>
      <point x="286" y="641"/>
      <point x="295" y="641" type="curve" smooth="yes"/>
      <point x="302" y="641"/>
      <point x="315" y="648"/>
      <point x="327" y="656" type="curve" smooth="yes"/>
      <point x="442" y="731" type="line"/>
      <point x="456" y="710" type="line"/>
      <point x="318" y="581" type="line" smooth="yes"/>
      <point x="303" y="568"/>
      <point x="290" y="557"/>
      <point x="278" y="557" type="curve" smooth="yes"/>
      <point x="267" y="557"/>
      <point x="257" y="569"/>
      <point x="248" y="581" type="curve" smooth="yes"/>
    </contour>
    <contour>
      <point x="120" y="86" type="curve" smooth="yes"/>
      <point x="204" y="399" type="line" smooth="yes"/>
      <point x="213" y="434"/>
      <point x="210" y="443"/>
      <point x="183" y="445" type="curve" smooth="yes"/>
      <point x="126" y="450" type="line"/>
      <point x="132" y="474" type="line"/>
      <point x="314" y="502" type="line"/>
      <point x="319" y="497" type="line"/>
      <point x="210" y="95" type="line" smooth="yes"/>
      <point x="201" y="63"/>
      <point x="200" y="40"/>
      <point x="220" y="40" type="curve" smooth="yes"/>
      <point x="248" y="40"/>
      <point x="292" y="111"/>
      <point x="310" y="146" type="curve"/>
      <point x="334" y="132" type="line"/>
      <point x="300" y="56"/>
      <point x="244" y="-12"/>
      <point x="172" y="-12" type="curve" smooth="yes"/>
      <point x="118" y="-12"/>
      <point x="105" y="29"/>
    </contour>
  </outline>
</glyph>
<glyph name="uni01D1" format="1">
  <advance width="753"/>
  <unicode hex="01D1"/>
  <outline>
    <contour>
      <point x="384" y="869" type="line"/>
      <point x="402" y="888" type="line"/>
      <point x="492" y="828" type="line" smooth="yes"/>
      <point x="504" y="820"/>
      <point x="515" y="813"/>
      <point x="524" y="813" type="curve" smooth="yes"/>
      <point x="532" y="813"/>
      <point x="547" y="820"/>
      <point x="560" y="827" type="curve" smooth="yes"/>
      <point x="677" y="888" type="line"/>
      <point x="690" y="868" type="line"/>
      <point x="550" y="757" type="line" smooth="yes"/>
      <point x="532" y="742"/>
      <point x="521" y="734"/>
      <point x="508" y="734" type="curve" smooth="yes"/>
      <point x="496" y="734"/>
      <point x="486" y="745"/>
      <point x="475" y="759" type="curve" smooth="yes"/>
    </contour>
    <contour>
      <point x="114" y="270" type="curve" smooth="yes"/>
      <point x="114" y="336"/>
      <point x="128" y="430"/>
      <point x="183" y="523" type="curve" smooth="yes"/>
      <point x="241" y="619"/>
      <point x="340" y="707"/>
      <point x="500" y="707" type="curve" smooth="yes"/>
      <point x="665" y="707"/>
      <point x="789" y="619"/>
      <point x="789" y="414" type="curve" smooth="yes"/>
      <point x="789" y="375"/>
      <point x="780" y="273"/>
      <point x="726" y="175" type="curve" smooth="yes"/>
      <point x="671" y="76"/>
      <point x="584" y="-15"/>
      <point x="407" y="-15" type="curve" smooth="yes"/>
      <point x="208" y="-15"/>
      <point x="114" y="105"/>
    </contour>
    <contour>
      <point x="219" y="230" type="curve" smooth="yes"/>
      <point x="219" y="91"/>
      <point x="290" y="20"/>
      <point x="398" y="20" type="curve" smooth="yes"/>
      <point x="528" y="20"/>
      <point x="596" y="113"/>
      <point x="637" y="220" type="curve" smooth="yes"/>
      <point x="678" y="326"/>
      <point x="684" y="409"/>
      <point x="684" y="466" type="curve" smooth="yes"/>
      <point x="684" y="607"/>
      <point x="614" y="672"/>
      <point x="504" y="672" type="curve" smooth="yes"/>
      <point x="398" y="672"/>
      <point x="327" y="599"/>
      <point x="281" y="504" type="curve" smooth="yes"/>
      <point x="235" y="407"/>
      <point x="219" y="314"/>
    </contour>
  </outline>
</glyph>
